<svg xmlns="http://www.w3.org/2000/svg" width="48" height="48" viewBox="0 0 48 48"><path d="M43.977 18.328h-0.661v-5.612c0-0.737-0.586-1.342-1.323-1.342h-3.94c-0.52 0-0.983 0.283-1.209 0.756l-2.957 6.197h-24.771c-0.633 0-1.228 0.161-1.767 0.425-4.988 2.532-6.727 7.085-7.293 10.487-0.425 2.504 1.672 4.79 3.968 4.676h7.652c0.85 1.606 2.513 2.711 4.44 2.711h6.953c0.737 0 1.342-0.595 1.342-1.342v-1.37h9.353c0.718 0 1.436-0.208 2.059-0.586l10.231-6.141c1.2-0.737 1.937-2.059 1.937-3.458v-1.389c0-2.22-1.795-4.015-4.015-4.015zM45.319 23.741c0 0.472-0.246 0.907-0.661 1.134l-10.222 6.16c-0.208 0.123-0.444 0.189-0.69 0.189h-10.732c-0.718 0.038-1.285 0.624-1.285 1.342v1.379h-5.602c-1.275 0-2.315-1.039-2.315-2.315s1.039-2.315 2.315-2.315h11.526c0.727 0 1.323-0.595 1.323-1.342s-0.586-1.323-1.323-1.323h-11.526c-2.617 0-4.761 2.060-4.969 4.629h-7.095c-0.784 0-1.464-0.756-1.323-1.559 0.189-1.19 0.567-2.551 1.256-3.902h5.479c0.737 0 1.323-0.595 1.323-1.342 0-0.737-0.567-1.342-1.323-1.342h-3.618c0.727-0.737 1.606-1.417 2.683-1.946 0.151-0.094 0.35-0.142 0.567-0.142h25.602c0.52 0 0.983-0.283 1.209-0.756l2.957-6.207h1.748v5.574c0 0.756 0.595 1.351 1.342 1.351h1.984c0.756 0 1.351 0.624 1.351 1.36v1.342z"></path></svg>