<svg xmlns="http://www.w3.org/2000/svg" width="48" height="48" viewBox="0 0 48 48"><path d="M24 2q3.313 0 5.656 2.344T32 10q0 2.766-1.688 4.914t-4.313 2.82V41.89q3.328-.375 6.289-1.93t5.094-3.914 3.375-5.5 1.242-6.547q0-.828.586-1.414t1.414-.586 1.414.586.586 1.414q0 4.484-1.742 8.555t-4.688 7.016-7.016 4.688T23.998 46t-8.555-1.742-7.016-4.688-4.688-7.016-1.742-8.555q0-.828.586-1.414t1.414-.586 1.414.586.586 1.414q0 3.406 1.242 6.547t3.375 5.5 5.094 3.914 6.289 1.93V17.734q-2.625-.672-4.313-2.82T15.996 10q0-3.313 2.344-5.656T23.996 2zm0 4q-1.656 0-2.828 1.172T20 10t1.172 2.828T24 14t2.828-1.172T28 10t-1.172-2.828T24 6z"/></svg>