<svg xmlns="http://www.w3.org/2000/svg" width="48" height="48" viewBox="0 0 48 48"><path d="M29.28 33.151v.252c-.002 2.986.003 5.971-.007 8.957-.009 2.502-1.623 4.568-4.049 5.159-1.736.423-3.288-.025-4.66-1.126-1.126-.904-1.694-2.115-1.813-3.541-.031-.379-.033-.761-.033-1.139-.003-2.779-.002-5.557-.003-8.336v-.223c-.08.044-.144.077-.204.111-2.61 1.502-5.222 3.001-7.83 4.508-3.077 1.779-7.044.041-7.793-3.559-.448-2.15.546-4.407 2.496-5.56 2.196-1.298 4.413-2.56 6.621-3.837.463-.268.926-.536 1.413-.815-.073-.044-.127-.08-.184-.114-2.578-1.489-5.157-2.974-7.734-4.466-1.453-.841-2.322-2.091-2.637-3.741-.479-2.508 1.159-5.363 3.985-6.011 1.395-.32 2.713-.098 3.948.613 2.575 1.481 5.148 2.969 7.722 4.454.053.031.108.058.189.101v-.228c0-2.94.004-5.879 0-8.82-.001-1.168.286-2.248.96-3.207.863-1.227 2.058-1.919 3.529-2.189 2.458-.45 5.56 1.221 6.024 4.484.04.284.049.574.049.861.004 2.951.003 5.903.004 8.854v.243c.077-.041.135-.07.191-.102 2.6-1.498 5.205-2.985 7.797-4.496 3.142-1.831 7.152-.022 7.849 3.636.089.465.136.934.077 1.391-.188 1.424-.756 2.665-1.903 3.584-.309.247-.639.474-.983.672-2.514 1.461-5.034 2.912-7.552 4.367-.053.031-.105.065-.178.111.078.047.141.086.203.121 2.538 1.465 5.071 2.939 7.617 4.394 1.623.928 2.563 2.32 2.789 4.152.152 1.236-.157 2.414-.87 3.445-1.058 1.529-2.529 2.337-4.4 2.356-1.008.01-1.937-.296-2.807-.799-2.258-1.307-4.516-2.61-6.776-3.914-.337-.194-.676-.388-1.049-.604zm-7.077-21.487h-.006c0 1.995 0 3.988-.002 5.983 0 .121-.01.243-.021.363-.073.752-.577 1.366-1.27 1.536-.542.133-1.036-.009-1.505-.281-2.991-1.728-5.983-3.457-8.975-5.184-.499-.287-.99-.59-1.502-.852-.687-.354-1.372-.315-1.974.181-.587.484-.811 1.123-.61 1.873.145.536.512.898.984 1.171 3.413 1.968 6.824 3.936 10.23 5.913.25.145.491.33.684.545.548.608.573 1.472.055 2.104-.195.238-.454.447-.722.602-2.841 1.654-5.69 3.294-8.537 4.94-.633.366-1.271.725-1.894 1.107-.697.428-1.009 1.231-.804 2.004.192.725.904 1.295 1.656 1.327.44.019.82-.146 1.188-.36 3.06-1.77 6.122-3.538 9.184-5.307.444-.256.881-.527 1.339-.755.719-.36 1.56-.176 2.072.422.32.374.426.821.426 1.301v4.149c.002 2.64-.001 5.28.006 7.92.001.764.358 1.33 1.054 1.646.681.309 1.335.209 1.908-.266.466-.386.638-.916.638-1.508V31.742c0-.548-.006-1.095.004-1.643.015-.786.514-1.438 1.25-1.635.53-.142 1.021-.033 1.492.24 3.149 1.823 6.3 3.643 9.45 5.464.36.207.716.419 1.085.61.858.445 1.873.164 2.356-.644.392-.656.46-1.776-.516-2.43-.133-.09-.274-.17-.413-.252-3.361-1.942-6.721-3.882-10.081-5.825-.173-.101-.343-.215-.494-.346-.59-.519-.767-1.301-.454-1.976.194-.42.524-.706.917-.934 2.664-1.536 5.326-3.074 7.988-4.613.827-.478 1.659-.952 2.476-1.446.703-.426.966-1.125.78-1.974-.152-.693-.767-1.227-1.512-1.327-.484-.065-.906.096-1.313.332-3.185 1.842-6.371 3.683-9.557 5.523-.334.192-.662.401-1.012.558-.992.442-2.054-.031-2.356-1.048-.07-.232-.092-.488-.092-.733-.004-3.92-.003-7.839-.004-11.759 0-.173-.01-.346-.03-.516-.084-.764-.756-1.452-1.504-1.552-1.111-.148-2.056.651-2.061 1.773-.01 2.023-.003 4.046-.003 6.069z"/></svg>