<svg xmlns="http://www.w3.org/2000/svg" width="48" height="48" viewBox="0 0 48 48"><path d="M48 25.56c-.06.535-.109 1.071-.181 1.604-.183 1.356-.535 2.661-1.195 3.87-.903 1.653-2.241 2.801-4.035 3.379-1.808.584-3.652.677-5.504.243-1.978-.464-3.507-1.592-4.629-3.279-.064-.098-.132-.195-.175-.259-.596.533-1.151 1.102-1.776 1.575-6.459 4.883-15.591 1.266-17.183-6.517-1.226-5.997 2.649-11.723 8.656-12.9 5.909-1.157 11.814 2.936 12.761 8.86.114.717.148 1.451.171 2.178.037 1.153.135 2.296.517 3.393.736 2.115 2.317 3.082 4.567 2.805.247-.03.496-.063.739-.116 1.236-.273 2.001-1.059 2.403-2.234.31-.907.416-1.851.468-2.799.231-4.254-.686-8.233-3.006-11.824-3.189-4.94-7.695-7.977-13.51-8.918C16.7 2.942 6.836 9.802 4.753 20.081c-2.15 10.61 4.717 21.061 15.335 23.143 6.607 1.296 12.457-.411 17.418-4.992 1.041-.962 2.382-.895 3.177-.124.9.874.898 2.268-.02 3.159a23.631 23.631 0 0 1-6.186 4.333 23.614 23.614 0 0 1-9.015 2.349c-.089.005-.174.032-.261.048h-2.4c-.108-.018-.215-.039-.323-.052-1.02-.129-2.053-.191-3.057-.395-6.203-1.261-11.183-4.462-14.909-9.575C2.088 34.65.657 30.918.173 26.827c-.065-.543-.114-1.088-.171-1.631v-2.4c.018-.106.037-.212.051-.318.129-1.02.189-2.053.394-3.057 1.27-6.248 4.503-11.252 9.669-14.98C13.419 2.058 17.118.649 21.166.169c.544-.065 1.09-.115 1.635-.173h2.4c.108.018.215.039.322.053 1.02.129 2.053.19 3.057.394 6.203 1.262 11.184 4.462 14.908 9.575 2.424 3.325 3.855 7.057 4.34 11.148.065.543.114 1.087.171 1.63v2.76zm-24.006-8.103a6.546 6.546 0 0 0-6.537 6.549 6.541 6.541 0 1 0 13.084-.012 6.544 6.544 0 0 0-6.549-6.537z"/></svg>