<svg xmlns="http://www.w3.org/2000/svg" width="48" height="48" viewBox="0 0 48 48"><path d="M33.702 28.689c3.804-2.918 6.26-7.52 6.26-12.67 0-8.804-7.158-15.963-15.963-15.963S8.036 7.214 8.036 16.019c0 5.163 2.457 9.752 6.26 12.67l-2.257 16.998a1.99 1.99 0 0 0 .885 1.933 1.975 1.975 0 0 0 2.12.037l8.954-5.375 8.954 5.375c.312.187.673.287 1.023.287.387 0 .761-.112 1.097-.324a2.013 2.013 0 0 0 .885-1.933L33.7 28.689zm-21.674-12.67c0-6.597 5.375-11.972 11.972-11.972s11.972 5.375 11.972 11.972c0 4.165-2.132 7.832-5.375 9.989-.087.05-.162.1-.237.15A11.921 11.921 0 0 1 24 27.991c-6.597 0-11.972-5.375-11.972-11.972zm12.995 22.235a2.028 2.028 0 0 0-2.058 0l-6.422 3.853 1.496-11.274c1.846.748 3.853 1.147 5.961 1.147s4.115-.412 5.961-1.147l1.496 11.286-6.435-3.866z"/></svg>