<svg xmlns="http://www.w3.org/2000/svg" width="43" height="48" viewBox="0 0 43 48"><path d="M21.139.009c-.78.09-1.429.831-1.416 1.616v1.699c-2.971.371-5.516 1.76-7.429 3.731-2.248 2.316-3.668 5.399-4.264 8.679L5.898 27.461c-.442 2.433-1.344 2.933-2.632 3.781-.644.424-1.429.877-2.116 1.682S.001 34.906.001 36.272c0 2.335 1.93 4.264 4.264 4.264h9.078c.277 4.155 3.757 7.463 7.979 7.463s7.702-3.308 7.979-7.463h9.078c2.335 0 4.264-1.93 4.264-4.264 0-1.366-.463-2.543-1.149-3.348s-1.472-1.258-2.116-1.682c-1.288-.848-2.189-1.348-2.632-3.781l-2.132-11.727c-.596-3.279-2.016-6.362-4.264-8.679-1.913-1.971-4.458-3.361-7.429-3.731V1.625c.015-.907-.881-1.72-1.782-1.616zm.183 6.413c2.806 0 5.005 1.071 6.73 2.848s2.934 4.295 3.431 7.03l2.132 11.727c.605 3.33 2.632 4.969 4.015 5.88.691.455 1.184.791 1.433 1.083s.383.52.383 1.283c0 .618-.448 1.066-1.066 1.066H4.265c-.618 0-1.066-.448-1.066-1.066 0-.763.134-.991.383-1.283s.741-.627 1.433-1.083c1.382-.911 3.409-2.55 4.015-5.88L11.162 16.3c.497-2.735 1.707-5.253 3.431-7.03s3.923-2.848 6.73-2.848zm-4.698 34.115h9.395c-.27 2.413-2.202 4.264-4.697 4.264s-4.427-1.851-4.697-4.264z"/></svg>