<svg xmlns="http://www.w3.org/2000/svg" width="57" height="48" viewBox="0 0 57 48"><path d="M24.954 14.09h7.2c.023-.266.04-.529.071-.79.228-1.972 1.009-3.7 2.344-5.166 1.495-1.642 3.35-2.644 5.55-2.944 2.684-.367 5.091.331 7.203 2.024a8.592 8.592 0 0 1 2.393 2.963c.305.627.537 1.289.795 1.939 1.992 5.019 3.985 10.038 5.973 15.06.512 1.294.69 2.64.594 4.028-.183 2.675-1.109 5.061-2.812 7.128-1.91 2.318-4.346 3.801-7.305 4.341-3.795.692-7.231-.177-10.228-2.61-2.34-1.9-3.778-4.368-4.355-7.331a12.47 12.47 0 0 1-.213-2.58c0-.029-.003-.059-.005-.1H24.94v.245c.015 2.565-.664 4.932-2.105 7.054-1.947 2.867-4.627 4.687-8.04 5.32-3.787.703-7.221-.174-10.214-2.603C2.236 38.165.794 35.693.218 32.725a11.1 11.1 0 0 1-.182-3.044c.08-.958.33-1.873.685-2.766 2.155-5.422 4.302-10.847 6.456-16.269C7.664 9.42 8.454 8.4 9.425 7.521c1.36-1.231 2.948-2.025 4.763-2.299 3.029-.457 5.685.366 7.913 2.472 1.522 1.438 2.418 3.222 2.739 5.29.057.364.077.733.115 1.107zm-3.081 8.367c0-2.67.003-5.34-.003-8.009a7.086 7.086 0 0 0-.079-1.06c-.434-2.831-2.777-5.009-5.623-5.202-1.952-.133-3.622.521-5.002 1.906-.454.456-.854.965-1.093 1.565-2.006 5.041-4.001 10.086-5.997 15.13-.261.659-.545 1.311-.757 1.986-.395 1.262-.299 2.543.004 3.807 1.137 4.752 5.588 7.815 10.421 7.158 2.598-.353 4.692-1.607 6.268-3.697 1.259-1.671 1.857-3.574 1.86-5.664.004-2.64.001-5.28.001-7.919zm22.763 17.396c.458-.04.919-.054 1.372-.126 2.645-.417 4.756-1.717 6.312-3.894.993-1.389 1.534-2.95 1.683-4.648.091-1.032-.03-2.032-.414-3-1.969-4.958-3.935-9.918-5.903-14.877-.236-.594-.43-1.208-.716-1.777-1.224-2.428-4.072-3.791-6.737-3.255-2.939.591-4.999 3.097-5.001 6.101-.004 5.34-.001 10.679-.001 16.019 0 .642.058 1.278.187 1.907a9.434 9.434 0 0 0 9.218 7.55zm-12.48-22.667H24.95v4.836h7.206v-4.836zm-7.211 9.762h7.214v-1.785h-7.214v1.785z"/><path d="M20.237 30.522a7.575 7.575 0 0 1-7.588 7.575c-4.193-.004-7.578-3.396-7.575-7.588s3.398-7.58 7.588-7.575a7.575 7.575 0 0 1 7.575 7.588zm-2.228-.001c.001-2.958-2.39-5.357-5.343-5.361s-5.361 2.393-5.365 5.341a5.356 5.356 0 0 0 5.352 5.367 5.351 5.351 0 0 0 5.355-5.346zm26.43 7.546c-4.2-.014-7.581-3.406-7.571-7.593a7.577 7.577 0 0 1 7.608-7.571 7.575 7.575 0 0 1 7.555 7.622c-.02 4.176-3.422 7.555-7.593 7.541zm.009-2.229a5.355 5.355 0 0 0 5.357-5.347 5.36 5.36 0 0 0-5.346-5.361 5.355 5.355 0 1 0-.012 10.708z"/></svg>