<svg xmlns="http://www.w3.org/2000/svg" width="42" height="48" viewBox="0 0 42 48"><path d="M41.552 33.576v6.864c-.006.01-.015.02-.017.031-.155.695-.629 1.076-1.339 1.076h-1.905v.143c0 .588.001 1.176-.001 1.764a1.27 1.27 0 0 1-1.299 1.333l-5.027.001h-.153v.155c0 .608.004 1.216-.002 1.824a1.269 1.269 0 0 1-.9 1.202c-.068.021-.137.038-.206.057H14.167c-.01-.006-.019-.015-.03-.017-.716-.148-1.102-.621-1.102-1.352v-1.894H7.83c-.762 0-1.318-.556-1.319-1.317V41.53h-.143c-.588 0-1.176.009-1.764-.005a1.478 1.478 0 0 1-.568-.115c-.512-.235-.754-.657-.754-1.218v-5.153h-.123c-.604-.006-1.208-.01-1.812-.02a1.559 1.559 0 0 1-.355-.041c-.584-.15-.96-.653-.96-1.277v-19.38c0-.597.379-1.104.951-1.246.199-.05.411-.059.618-.062.516-.008 1.032-.003 1.548-.003h.133v-.174c0-1.66-.001-3.32 0-4.98.001-.804.547-1.349 1.348-1.349h1.764c.042 0 .084-.004.134-.006v-.143c0-.584-.001-1.168.001-1.752a1.274 1.274 0 0 1 1.295-1.339c1.684-.002 3.368-.001 5.052-.001h.15v-.157c.003-.604.004-1.208.01-1.812a1.272 1.272 0 0 1 .982-1.236c.042-.01.083-.023.125-.034h16.56c.01.006.02.014.031.017.695.154 1.076.628 1.077 1.337V3.28h.161c1.667 0 3.335-.001 5.002.001.789.001 1.335.55 1.336 1.336v1.888h.144c.612 0 1.224-.003 1.835.001a1.274 1.274 0 0 1 1.216.945c.014.053.03.106.046.159v6.864l-.025.091c-.13.536-.46.88-.999.998-.175.038-.365.015-.548.015h-4.914v1.896c-.001.794-.551 1.344-1.342 1.344h-5.169v.154c0 .584.001 1.168-.001 1.752 0 .104-.003.209-.024.31-.126.628-.64 1.04-1.298 1.041-1.66.002-3.32.001-4.98.001h-.155v3.919h.149c1.656 0 3.312.01 4.968-.004.794-.007 1.389.612 1.362 1.367-.021.579-.004 1.16-.004 1.74v.147h.175c1.664 0 3.328-.001 4.992.001.782.001 1.332.551 1.334 1.327v1.905h4.881c.064 0 .128-.003.192-.009a1.276 1.276 0 0 1 1.364.95l.043.161zM29.247 45.449v-.15c0-.576-.001-1.152.001-1.728.001-.107.006-.217.028-.322.13-.619.646-1.027 1.297-1.028h5.153v-1.898c.002-.791.554-1.341 1.346-1.342h1.904V35.04h-.15l-4.764-.001c-.12 0-.24-.001-.359-.014-.723-.075-1.196-.601-1.197-1.329v-1.892h-.157l-4.98-.001c-.1 0-.201 0-.299-.018-.636-.118-1.06-.632-1.064-1.291-.003-.596-.001-1.192-.001-1.788v-.149h-5.149c-.776 0-1.333-.554-1.333-1.329-.001-2.132-.001-4.264.001-6.396 0-.107.01-.217.033-.321a1.267 1.267 0 0 1 1.265-1.004c1.672-.002 3.344-.001 5.016-.001h.153v-.156c0-.584-.001-1.168.001-1.752 0-.1.002-.201.02-.298.123-.631.638-1.051 1.289-1.052l5.04-.001h.159v-.148c0-.6-.002-1.2.001-1.8.004-.587.388-1.09.956-1.228.192-.047.396-.06.594-.061 1.596-.005 3.192-.003 4.788-.003h.137V9.066h-.139c-.592 0-1.184.002-1.776-.001-.76-.003-1.315-.562-1.317-1.322V5.837h-.166l-4.956-.001c-.108 0-.218 0-.322-.02-.63-.121-1.049-.635-1.053-1.288-.003-.596-.001-1.192-.001-1.788v-.146H15.591v.144l-.007 1.752c0 .08.001.161-.012.239a1.28 1.28 0 0 1-1.298 1.098H9.091v.153c0 .592.004 1.184-.001 1.776-.006.765-.56 1.31-1.325 1.312H5.977c-.042 0-.084.004-.133.006v1.2c0 1.328.002 2.656-.001 3.984-.002.714-.517 1.265-1.229 1.291-.623.023-1.247.015-1.871.021h-.14v16.894h.136c.596.001 1.192.001 1.788.006.111.001.225.01.332.036.597.142.983.646.984 1.281v5.174h.152c.584 0 1.168-.002 1.752.001.779.003 1.327.554 1.328 1.333v1.896h5.166c.808 0 1.356.547 1.357 1.355v1.899h13.647z"/><path d="M13.378 13.175h2.868c.69 0 1.16.47 1.16 1.16v5.747c0 .68-.475 1.155-1.155 1.155h-5.759c-.672 0-1.147-.476-1.147-1.149v-5.771c0-.666.476-1.14 1.142-1.141h2.892z"/></svg>