<svg xmlns="http://www.w3.org/2000/svg" width="48" height="48" viewBox="0 0 48 48"><path d="M9.739 0h28.526c.396.087.8.145 1.186.264 2.456.757 4.075 2.984 4.075 5.596.002 8.539.001 17.077.001 25.616 0 2.2-.001 4.4.001 6.6.001.826-.135 1.629-.494 2.374-1.082 2.25-2.877 3.435-5.38 3.451-3.846.024-7.693.006-11.539.006h-.305v.289c0 .762.005 1.523-.004 2.285a1.792 1.792 0 0 1-.085.565c-.308.881-1.319 1.224-2.143.726a576.79 576.79 0 0 1-4.053-2.476c-.13-.08-.22-.079-.349 0-1.317.807-2.639 1.607-3.958 2.411-.502.306-1.017.348-1.529.054-.502-.288-.735-.741-.73-1.323.006-.754.001-1.508.001-2.262v-.268h-.281c-.785 0-1.569-.003-2.354.001a5.79 5.79 0 0 1-1.816-.27c-2.437-.786-4.031-2.989-4.032-5.585-.002-8.785-.001-17.57-.001-26.355 0-2.008-.012-4.016.005-6.023.02-2.408 1.611-4.589 3.897-5.351.441-.147.906-.218 1.361-.324zm5.436 29.168h.242c7.516 0 15.031.001 22.547-.001 1.545 0 2.661-1.117 2.661-2.665.002-6.877.001-13.755-.001-20.632 0-.176-.001-.356-.032-.529-.256-1.468-1.412-2.442-2.909-2.442-7.423-.002-14.847-.001-22.27-.001h-.239v26.269zm-2.922 0V2.899c-.652 0-1.29-.002-1.927 0-1.698.006-2.948 1.247-2.948 2.94-.002 7.907-.001 15.814-.001 23.721 0 .072.008.143.013.236l.233-.108c.526-.244 1.073-.444 1.653-.471.898-.041 1.798-.036 2.697-.05h.28zM12.949 38c-.295 0-.565.02-.83-.004-.552-.051-.95-.347-1.171-.85s-.166-.995.161-1.44c.322-.439.774-.589 1.309-.589 8.454.005 16.908.003 25.361.003.108 0 .215.001.323-.001 1.148-.028 2.17-.793 2.422-1.914.127-.566.099-1.166.143-1.79-.097.035-.126.042-.152.055-.87.442-1.796.596-2.766.595-9.169-.006-18.338-.003-27.508-.003-.161 0-.323 0-.484.01-1.281.078-2.352 1.165-2.373 2.448-.021 1.253-.022 2.508.001 3.761.026 1.38 1.176 2.614 2.554 2.701.973.062 1.952.025 2.929.03.027 0 .054-.021.081-.031v-2.983zm27.67-.608c-.043.012-.073.016-.098.029-.876.447-1.81.6-2.787.598-3.868-.009-7.736-.004-11.603-.004h-.306v2.988c.073.006.14.015.207.015 3.891.001 7.782.004 11.673-.002 1.229-.002 2.26-.701 2.716-1.797.245-.588.214-1.199.2-1.827zm-17.717 6.572v-5.93h-7.029v5.879c.099-.058.172-.099.243-.143.801-.486 1.604-.97 2.401-1.461.56-.345 1.11-.345 1.67.001.824.508 1.652 1.009 2.478 1.512l.237.142z"/></svg>