<svg xmlns="http://www.w3.org/2000/svg" width="67" height="48" viewBox="0 0 67 48"><path d="M16.203 33.426h-.328c-.578 0-.578 0-.578-.588v-1.367c-.027-.016-.044-.033-.064-.036-.737-.147-1.247-.565-1.523-1.267-.017-.044-.089-.074-.142-.095-.038-.015-.087-.003-.131-.003-3.249 0-6.498.001-9.748-.004-.172 0-.254.047-.324.209a1.736 1.736 0 0 1-1.959 1.006A1.758 1.758 0 0 1 0 29.582a1.767 1.767 0 0 1 1.372-1.752c.808-.178 1.641.221 1.98.972.078.172.165.217.341.217 3.249-.005 6.498-.005 9.748 0 .169 0 .25-.04.319-.208.276-.675.8-1.052 1.539-1.187v-.873l.001-.84c0-.171.086-.259.258-.26h.647v-.321c0-3.853.002-7.707-.001-11.56-.001-1.024.398-1.826 1.284-2.362a2.349 2.349 0 0 1 1.197-.34c.317-.005.633-.001.981-.001-.033-.066-.051-.117-.082-.159a15.02 15.02 0 0 1-1.479-2.571 3.188 3.188 0 0 1-.176-.543c-.067-.271.019-.509.2-.712.127-.142.28-.13.441-.058.763.342 1.527.68 2.289 1.025.621.281 1.238.571 1.861.848.117.052.253.084.381.087.198.004.263-.106.151-.266a5.683 5.683 0 0 0-.489-.595c-.657-.71-1.214-1.493-1.716-2.317-.252-.414-.31-.87-.258-1.339.044-.401.354-.603.791-.585.48.02.847.27 1.201.548 1.037.811 2.031 1.671 2.942 2.624.121.127.256.246.402.341.228.148.432.073.52-.186.04-.116.057-.245.059-.368.018-1.326.026-2.652.049-3.978.007-.396.018-.797.087-1.186.103-.577.582-.849 1.156-.709.535.13.912.493 1.266.878.716.779 1.426 1.564 2.127 2.357.282.319.521.675.803.994.152.172.336.329.535.443.24.137.467.055.64-.163 1.12-1.417 2.228-2.845 3.372-4.243.311-.38.696-.732 1.114-.987 1.167-.712 2.14.239 2.159 1.224.02 1.068.028 2.136.047 3.204.005.302.022.603.05.904.043.465.24.519.666.314.228-.109.424-.287.629-.44.877-.654 1.746-1.32 2.632-1.962a8.743 8.743 0 0 1 2.14-1.164c.6-.218.973-.154.909.678-.041.534-.258 1.014-.56 1.441-.601.85-1.232 1.678-1.851 2.515-.17.23-.364.445-.511.688-.182.303-.066.508.286.506.192-.001.394-.05.574-.123.82-.331 1.658-.588 2.537-.702a1.72 1.72 0 0 1 .176-.018c.556-.021.744.189.633.735-.145.715-.478 1.353-.865 1.962-.227.357-.49.692-.745 1.047.225.044.459.081.689.138 1.63.404 3.093 1.914 3.093 3.906.001 3.647.024 7.294.038 10.94v.272h.335c.553 0 .553 0 .553.563v1.403c.121.031.235.052.344.089.587.196 1.001.58 1.22 1.16.044.116.097.154.221.154 3.301-.004 6.602-.004 9.902 0 .123 0 .177-.039.227-.15.363-.812 1.189-1.23 2.026-1.034.809.189 1.37.918 1.357 1.763-.013.835-.615 1.534-1.463 1.698-.773.15-1.586-.283-1.907-1.034-.068-.158-.149-.196-.31-.195-3.257.005-6.513.005-9.77.001-.157 0-.241.03-.308.193-.251.614-.713.995-1.361 1.147-.056.013-.112.031-.178.049v1.619c0 .287-.063.348-.349.352l-.486.006c-.013 0-.026.01-.058.024-.003.07-.009.149-.01.227-.04 3.293-.077 6.586-.123 9.879-.007.537-.012 1.079-.087 1.609-.167 1.173-1.222 2.097-2.405 2.154a6.96 6.96 0 0 1-.353.009c-9.556 0-19.112-.002-28.668.003-1.028.001-1.827-.387-2.37-1.268-.275-.447-.354-.944-.354-1.461.002-3.839.001-7.677.001-11.516v-.329zm2.452-3.904c0 5.253.001 10.505-.003 15.758 0 .184.023.275.248.275 9.585-.006 19.169-.005 28.754-.005.264 0 .302-.038.308-.31.045-2.224.113-4.448.127-6.673.035-5.451.052-10.903.059-16.355.003-2.357-.032-4.715-.058-7.072-.008-.732-.424-1.304-1.116-1.531a2.174 2.174 0 0 0-.672-.098c-9.106-.005-18.212-.004-27.317-.004-.33 0-.33 0-.33.322v15.692z"/><path d="M30.004 21.893c.002 2.184-1.712 4.048-3.863 4.201-2.227.159-4.188-1.382-4.513-3.547a4.236 4.236 0 0 1 2.725-4.618.614.614 0 0 0 .277-.221c.313-.481.61-.972.915-1.458.167-.266.327-.264.495.005.301.48.593.966.902 1.44a.65.65 0 0 0 .292.237 4.238 4.238 0 0 1 2.769 3.961zm15.725.004c-.001 2.182-1.689 4.026-3.84 4.195-2.201.173-4.152-1.331-4.521-3.485-.342-2 .79-3.953 2.699-4.672a.677.677 0 0 0 .306-.252c.307-.467.595-.947.891-1.421.176-.281.335-.282.509-.006.304.486.601.978.913 1.459.058.089.161.17.262.208 1.684.628 2.782 2.19 2.781 3.972zm-12.13 6.644h2.961c.417 0 .551.13.531.542-.087 1.802-.177 3.604-.269 5.405-.02.395-.155.525-.553.526-1.996.005-3.992.005-5.988.004-.34 0-.483-.158-.466-.497l.263-5.339a3.88 3.88 0 0 1 .019-.242c.031-.275.15-.391.432-.395.449-.006.899-.001 1.348-.001H33.6v-.003zm-.549 11.806h-2.961c-.435 0-.564-.143-.541-.576.059-1.081.112-2.162.168-3.244.004-.074.005-.147.01-.221.028-.405.129-.505.532-.505 1.274-.001 2.549.002 3.823.002.707 0 1.414-.003 2.122-.003.432 0 .548.13.526.56-.058 1.14-.114 2.28-.167 3.421-.021.449-.138.565-.596.565h-2.917z"/></svg>