<svg xmlns="http://www.w3.org/2000/svg" width="61" height="48" viewBox="0 0 61 48"><path d="M35.46.26c.283.079.585.119.846.244.976.467 1.487 1.269 1.548 2.341.032.55.006 1.103.006 1.655l.047.012c.043-.029.086-.057.128-.087.714-.511 1.398-1.065 2.175-1.481.531-.284 1.072-.548 1.663-.684.834-.192 1.609.112 2.008.779.281.469.306.981.242 1.504-.083.672-.363 1.265-.758 1.807-.064.087-.127.175-.199.275.182.009.351.009.518.028 1.108.126 1.793 1.057 1.599 2.155-.101.574-.321 1.105-.565 1.628-.012.027-.023.054-.034.083.008.012.013.028.024.036.975.746 1.622 1.738 2.126 2.836.557 1.211.911 2.487 1.183 3.787.313 1.493.506 3.004.628 4.524.019.231.045.462.052.693.004.114.041.152.153.158.66.036 1.32.08 1.98.12 1.01.062 2.019.121 3.029.186.111.007.161-.022.206-.128.562-1.339 1.902-2.131 3.285-1.994 1.537.152 2.689 1.225 2.951 2.698.331 1.858-1.014 3.623-2.9 3.807-1.44.141-2.78-.659-3.339-1.998-.042-.1-.087-.128-.194-.12-1.65.105-3.3.205-4.95.307-.019.001-.038.005-.073.009-.002.048-.008.095-.007.141.036 2.182-.026 4.363-.175 6.54-.137 2.004-.34 4-.678 5.981-.177 1.035-.374 2.066-.751 3.053-.878 2.297-2.461 3.926-4.688 4.942-1.21.553-2.485.891-3.795 1.097-2.88.454-5.781.571-8.691.535-2.069-.025-4.132-.15-6.184-.422-1.821-.241-3.62-.588-5.356-1.206-.81-.288-1.584-.65-2.324-1.092-.899-.536-1.57-1.271-2.061-2.191-.596-1.118-.992-2.306-1.292-3.53-.391-1.593-.624-3.212-.781-4.844-.28-2.903-.327-5.812-.239-8.725.003-.088 0-.177 0-.28-.146-.012-.291-.026-.437-.035-1.527-.094-3.054-.185-4.58-.283-.104-.007-.146.023-.183.115-.533 1.297-1.835 2.122-3.232 2.013-1.498-.117-2.645-1.115-2.977-2.543-.437-1.879.9-3.757 2.822-3.962 1.466-.156 2.811.634 3.383 1.993.043.101.092.127.197.12 1.403-.09 2.807-.177 4.211-.263.236-.015.473-.026.709-.041.078-.005.155-.013.239-.021.041-.497.075-.983.121-1.469.187-1.984.384-3.968.89-5.903.428-1.637 1.21-3.078 2.471-4.233.221-.203.459-.387.695-.585-.133-.27-.273-.541-.402-.816-.211-.451-.352-.917-.313-1.427.056-.738.569-1.434 1.267-1.672.392-.133.787-.11 1.174.033.049.018.098.037.124.046-.006-.351-.034-.7-.012-1.045.062-.971.817-1.715 1.785-1.802.802-.073 1.496.19 2.121.666.416.317.819.65 1.228.976.038.03.075.06.13.104.004-.07.007-.121.009-.173.019-.646.026-1.293.061-1.938.036-.657.242-1.25.763-1.69.652-.55 1.398-.641 2.197-.412.549.157 1.018.458 1.406.871.797.849 1.579 1.712 2.367 2.569.02.022.039.045.071.082.038-.043.072-.081.104-.121.779-.956 1.547-1.923 2.343-2.865.509-.601 1.118-1.087 1.883-1.335.2-.065.412-.092.618-.136h.385zM14.525 26.978c-.011 3.045.048 5.354.35 7.949.161 1.383.387 2.753.776 4.092.231.797.504 1.58.973 2.274.119.176.273.34.442.468.764.578 1.639.94 2.542 1.235 2.08.681 4.23.996 6.4 1.176 1.175.098 2.354.16 3.532.191 3.009.08 6.009-.036 8.987-.514 1.074-.173 2.118-.458 3.111-.914 1.819-.836 2.979-2.202 3.404-4.177.304-1.41.504-2.835.659-4.267.213-1.968.339-3.943.383-5.922.059-2.676.005-5.349-.313-8.011-.145-1.215-.342-2.421-.657-3.605-.232-.874-.52-1.727-.975-2.515-.28-.486-.64-.898-1.114-1.207-.498-.325-1.035-.572-1.593-.773-1.437-.518-2.931-.783-4.44-.973-1.661-.209-3.332-.302-5.005-.327-3.379-.05-6.748.103-10.097.588-1.002.145-1.989.357-2.933.735-1.122.449-2.072 1.115-2.716 2.165-.464.757-.699 1.593-.86 2.455-.327 1.753-.51 3.523-.644 5.299-.137 1.807-.207 3.616-.212 4.571z"/><path d="M41.98 21.476c-.031 1.535-.494 2.907-1.551 4.045-.606.653-1.333 1.109-2.229 1.247-1.034.159-1.946-.127-2.729-.809-.82-.714-1.272-1.64-1.449-2.695-.298-1.773.087-3.39 1.201-4.815.409-.524.917-.936 1.517-1.228.176-.086.298-.221.389-.391.313-.587.626-1.174.942-1.76.051-.095.112-.186.182-.267.082-.096.178-.083.248.017.053.076.094.161.13.247.25.595.489 1.195.749 1.785.056.127.159.265.277.328 1.11.593 1.76 1.536 2.107 2.715.152.514.217 1.042.216 1.579zm-15.013 1.031c-.012.974-.32 2.081-1.089 3.028-.548.675-1.24 1.125-2.115 1.245-.85.116-1.638-.085-2.361-.533-1.092-.677-1.79-1.666-2.18-2.872-.467-1.446-.453-2.883.18-4.285.373-.824.948-1.467 1.756-1.897.123-.065.233-.205.289-.336.255-.592.488-1.195.733-1.792.053-.128.083-.308.252-.314.163-.006.22.165.287.287.327.591.65 1.184.97 1.778.105.194.252.33.45.43 1.121.569 1.857 1.49 2.342 2.626.327.766.486 1.57.487 2.634zm.35 10.055c0-.849-.001-1.698.001-2.547 0-.123.009-.247.032-.368.029-.157.128-.237.289-.248.118-.008.237-.006.355-.007 1.663-.002 3.326-.003 4.99-.004.484 0 .582.093.553.573-.07 1.167-.149 2.334-.226 3.501-.04.606-.078 1.211-.126 1.816-.024.297-.143.404-.438.404-1.678.005-3.356.008-5.034.008-.314 0-.429-.123-.43-.449-.002-.893 0-1.786 0-2.68h.036zm2.852 3.839c.804 0 1.609-.001 2.413 0 .438 0 .531.105.501.539-.067.984-.133 1.969-.197 2.954-.023.348-.116.453-.462.454-1.584.004-3.168.004-4.753 0-.327-.001-.437-.115-.436-.443.005-1.022.017-2.043.027-3.065.001-.069.012-.138.026-.205.026-.124.103-.201.231-.215.083-.009.167-.015.251-.015.8-.001 1.599-.001 2.398-.001V36.4z"/></svg>