<svg xmlns="http://www.w3.org/2000/svg" width="48" height="48" viewBox="0 0 48 48"><path d="M43.052 8.799L26.805.676c-.013-.013-.025-.013-.038-.025-.854-.434-1.811-.65-2.767-.65s-1.9.23-2.729.638L4.922 8.813a6.078 6.078 0 0 0-3.367 5.458v19.447c0 2.308 1.288 4.4 3.354 5.458 0 0 .013 0 .013.013l16.298 8.149c.854.434 1.811.663 2.767.663s1.913-.23 2.742-.65l16.349-8.174a6.126 6.126 0 0 0 3.367-5.458V14.272c0-2.321-1.301-4.412-3.392-5.471zM23.107 4.285c.178-.089.485-.204.893-.204.306 0 .599.064.867.191.013 0 .025.013.038.013l14.92 7.46-15.826 7.919-15.826-7.919 14.933-7.46zM6.759 35.554a2.036 2.036 0 0 1-1.122-1.824V15.048l16.323 8.161v19.945l-15.201-7.6zm34.495-.013l-15.214 7.6V23.209l16.323-8.162v18.67c0 .778-.434 1.479-1.109 1.824z"/></svg>