<svg xmlns="http://www.w3.org/2000/svg" width="48" height="48" viewBox="0 0 48 48"><path d="M43.775 46.401H4.229c-.06-.015-.12-.038-.181-.045-2.3-.266-4.041-2.174-4.041-4.48C.001 30.996 0 20.117.007 9.237c.001-2.466 2.022-4.481 4.485-4.495 2.139-.013 4.279-.005 6.419-.003.426 0 .627.204.63.633.003.559.002 1.119 0 1.68 0 .577-.164.743-.736.743H4.71c-1.017 0-1.598.579-1.598 1.595-.002 2.383 0 4.767 0 7.151 0 .096.007.192.013.302h41.733c.009-.075.023-.136.023-.197.002-2.482 0-4.965 0-7.449 0-.347-.102-.659-.322-.926-.316-.382-.734-.529-1.221-.529-2.067.003-4.136.002-6.203 0-.489 0-.674-.184-.674-.668-.002-.587-.002-1.173 0-1.761.002-.428.203-.627.633-.627 2.14-.002 4.28-.009 6.419.003 2.026.011 3.817 1.417 4.328 3.38.063.243.107.49.159.735v33.48c-.017.06-.041.119-.05.18a4.532 4.532 0 0 1-3.384 3.779c-.261.066-.528.106-.792.159zM3.123 19.982c-.005.104-.012.183-.012.262 0 7.123-.002 14.247 0 21.371 0 .966.588 1.552 1.553 1.552 12.902.002 25.803.002 38.704-.002.169 0 .347-.006.508-.05.683-.181 1.055-.73 1.055-1.539V19.981H3.122z"/><path d="M14.304 1.707c.152.051.311.09.455.157.606.283.934.774.938 1.434a660.04 660.04 0 0 1 0 7.446 1.576 1.576 0 0 1-1.538 1.578c-.84.023-1.527-.598-1.619-1.466-.012-.116-.011-.234-.011-.351V3.709c0-1.215.27-1.603 1.394-2.001h.38zm19.773 0c.119.039.239.072.355.115.654.243 1.029.827 1.031 1.62.003 2.256.002 4.512 0 6.769 0 .216.006.433-.014.649-.078.86-.776 1.485-1.619 1.461a1.585 1.585 0 0 1-1.533-1.556c-.017-.694-.005-1.39-.005-2.085V3.698c0-1.21.279-1.608 1.404-1.992h.38zM23.995 7.743h-6.553c-.59 0-.75-.164-.75-.758 0-.55-.002-1.101 0-1.652.002-.446.203-.646.645-.646 4.442-.002 8.881-.002 13.323 0 .441 0 .64.202.643.649.003.577.003 1.155 0 1.732-.002.482-.19.672-.675.672-2.211.002-4.423 0-6.634.002zm5.342 18.899c-.297 0-.595.005-.892-.002-.387-.007-.618-.215-.626-.594a40.266 40.266 0 0 1 0-1.839c.007-.387.249-.606.645-.609a93.655 93.655 0 0 1 1.758 0c.403.005.637.232.643.641.009.585.008 1.171 0 1.758-.006.426-.229.638-.661.643-.288.005-.578 0-.866 0zm.016 2.96c.297 0 .596-.005.892.002.366.008.606.218.614.579.015.621.015 1.244.002 1.866-.008.373-.251.59-.63.593-.595.005-1.189.005-1.785 0-.381-.003-.619-.219-.627-.596a38.697 38.697 0 0 1 .002-1.866c.009-.363.247-.572.613-.578.306-.006.613-.002.919-.002zm-.025 5.995c.306 0 .613-.008.919.002.38.012.608.229.615.609.012.603.011 1.208 0 1.811-.007.39-.242.618-.633.622-.594.008-1.189.009-1.784 0-.392-.006-.621-.233-.627-.629a48.172 48.172 0 0 1 0-1.783c.006-.413.229-.622.646-.631.288-.006.576-.002.866-.002zm-3.808 1.53c0 .297.005.596-.002.892-.006.375-.228.615-.602.623-.612.011-1.225.012-1.839 0-.372-.008-.594-.248-.597-.626a99.497 99.497 0 0 1 0-1.812c.003-.366.221-.596.587-.603a48.365 48.365 0 0 1 1.866 0c.363.007.578.242.585.606.006.306.002.614.002.919zm-5.342-6.004c0 .288.005.578-.002.866-.009.433-.225.649-.651.652-.578.003-1.154.003-1.731 0-.435-.003-.66-.23-.663-.672a96.79 96.79 0 0 1 0-1.704c.003-.443.228-.662.67-.663.578-.003 1.154-.003 1.731 0 .417.003.63.215.645.629v.892zm19.858 1.519c-.306 0-.613.005-.919-.002-.378-.008-.606-.228-.61-.608a66.315 66.315 0 0 1 0-1.839c.006-.366.231-.588.597-.591a93.944 93.944 0 0 1 1.839 0c.359.005.597.233.603.591a56.37 56.37 0 0 1 0 1.839c-.006.373-.243.6-.617.608-.297.006-.595.002-.892.002zM9.492 37.131c0 .297.005.596-.002.892-.008.366-.219.609-.576.617-.63.014-1.262.015-1.893-.002-.342-.009-.564-.254-.568-.6a70.46 70.46 0 0 1 0-1.839c.005-.36.231-.592.594-.599a56.366 56.366 0 0 1 1.839-.002c.386.006.597.228.606.612.006.306.002.614.002.919zm12.987-11.992c0-.306-.005-.613.002-.919.006-.375.231-.614.605-.618a62.632 62.632 0 0 1 1.839 0c.357.006.591.245.594.602.008.614.006 1.226 0 1.839-.005.363-.228.593-.591.599-.622.009-1.244.009-1.866 0-.35-.005-.57-.233-.579-.581-.008-.306-.002-.613-.002-.919zm17.525 1.503c-.297 0-.596.006-.892-.002-.384-.009-.602-.224-.606-.609a68.406 68.406 0 0 1 0-1.812c.005-.393.234-.615.63-.62a88.508 88.508 0 0 1 1.785 0c.386.005.621.242.626.629.008.594.008 1.189 0 1.785-.005.395-.231.618-.623.627-.306.006-.613.002-.919.002zm-32.016 2.96c.306 0 .613-.006.919.002.35.009.578.23.582.578.009.631.009 1.262-.002 1.893a.552.552 0 0 1-.569.564c-.63.009-1.262.009-1.893 0a.56.56 0 0 1-.573-.566c-.012-.63-.01-1.262-.002-1.893.006-.342.245-.569.588-.578.315-.008.631-.002.947-.002zm5.305 3.04c-.297 0-.595.006-.893-.002-.363-.008-.595-.23-.6-.59a64.484 64.484 0 0 1 0-1.866c.005-.351.231-.576.579-.581a82.906 82.906 0 0 1 1.866 0c.343.005.585.231.591.573.012.63.012 1.261 0 1.893-.008.34-.25.563-.597.57-.315.007-.631.002-.947.002zm10.683 0c-.288 0-.578.003-.865 0-.398-.006-.627-.227-.63-.617a91.206 91.206 0 0 1 0-1.812c.003-.38.228-.606.608-.609a91.206 91.206 0 0 1 1.812 0c.395.003.615.23.618.627.005.595.005 1.189 0 1.785-.003.393-.231.619-.622.626-.306.004-.614.002-.919.002zm10.725-3.04c.297 0 .595-.005.892.002.378.008.6.23.604.612.006.605.006 1.208 0 1.812-.003.38-.231.611-.604.614-.604.006-1.208.006-1.812 0-.39-.003-.62-.236-.622-.627a88.508 88.508 0 0 1 0-1.785c.003-.395.231-.619.622-.626.306-.005.613-.002.919-.002zm-21.379 5.995c.288 0 .578-.005.866.002.431.009.651.228.654.654a99.88 99.88 0 0 1 0 1.731c-.003.421-.232.657-.651.661-.585.006-1.172.008-1.758 0-.408-.005-.63-.233-.633-.645a93.656 93.656 0 0 1 0-1.758c.003-.42.213-.633.63-.642.297-.008.594-.002.893-.002zm19.835-10.458c0-.306-.005-.613.002-.919.007-.373.237-.614.608-.618a62.632 62.632 0 0 1 1.839 0c.358.006.588.242.592.6a70.46 70.46 0 0 1 0 1.839c-.005.367-.224.593-.588.599-.613.009-1.225.008-1.839 0-.378-.005-.603-.234-.61-.609-.006-.297-.002-.595-.002-.892zM18.662 35.597c.297 0 .596-.006.893.002.402.011.616.222.621.626.009.594.009 1.189 0 1.783-.006.41-.232.63-.645.635-.585.006-1.172.007-1.756 0-.403-.005-.636-.24-.64-.644a73.42 73.42 0 0 1 0-1.756c.005-.411.228-.629.638-.645h.892z"/></svg>