<svg xmlns="http://www.w3.org/2000/svg" width="59" height="48" viewBox="0 0 59 48"><path d="M21.818 0h15.847c.674.148 1.072.598 1.403 1.178 1.2 2.098 2.429 4.179 3.64 6.27.092.159.19.218.376.218 3.024-.006 6.048-.017 9.072 0 3.373.019 6.293 2.336 7.104 5.614.097.391.15.792.224 1.189v26.687c-.053.322-.091.648-.161.967C58.555 45.609 55.579 48 52.007 48c-14.843.001-29.686.001-44.529-.001-.26 0-.52-.014-.779-.038-3.022-.272-5.619-2.439-6.419-5.372-.128-.468-.188-.955-.28-1.433V14.469c.084-.441.141-.89.257-1.322a7.374 7.374 0 0 1 7.116-5.483c3.001-.013 6.002-.005 9.002.002.204.001.31-.063.411-.238 1.253-2.164 2.517-4.322 3.771-6.485.273-.471.65-.783 1.183-.902.028-.006.052-.027.078-.041zm7.925 44.663c7.38 0 14.76.001 22.14-.004.35 0 .708-.016 1.049-.09 1.956-.425 3.213-2.023 3.213-4.079.003-8.444.003-16.888-.004-25.332 0-.379-.038-.769-.132-1.135-.465-1.825-2.062-3.032-3.997-3.034-3.33-.005-6.66-.007-9.99.003-.766.002-1.309-.312-1.691-.971-1.254-2.164-2.522-4.319-3.777-6.482-.089-.153-.184-.206-.36-.206-4.302.005-8.605.005-12.907 0-.178 0-.27.057-.358.209-1.245 2.143-2.504 4.276-3.741 6.424-.408.709-.977 1.033-1.799 1.029-3.292-.016-6.584-.006-9.876-.007-.973 0-1.862.258-2.626.87-1.069.857-1.553 1.985-1.552 3.35.005 8.413.003 16.827.003 25.24 0 .122.002.245.008.367.036.802.285 1.534.763 2.175.852 1.143 2.005 1.675 3.426 1.674 7.403-.004 14.806-.002 22.208-.002z"/><path d="M29.748 42.898c-8.311.005-15.085-6.771-15.072-15.075.014-8.322 6.745-15.053 15.059-15.058 8.319-.005 15.08 6.755 15.071 15.069s-6.752 15.059-15.059 15.064zm-.001-26.804c-6.463-.009-11.723 5.231-11.739 11.694a11.719 11.719 0 0 0 11.727 11.769 11.719 11.719 0 0 0 11.739-11.711c.009-6.489-5.234-11.743-11.728-11.752zm22.031.977c.005 1.494-1.197 2.708-2.687 2.713s-2.702-1.201-2.706-2.694a2.696 2.696 0 1 1 5.393-.019z"/><path d="M38.429 27.831c-.001 4.787-3.906 8.688-8.696 8.685-4.786-.003-8.692-3.918-8.68-8.7.012-4.795 3.913-8.678 8.707-8.668 4.784.01 8.67 3.903 8.669 8.684zm-8.689 5.345a5.336 5.336 0 0 0 5.353-5.328 5.35 5.35 0 1 0-10.703-.027 5.336 5.336 0 0 0 5.349 5.355z"/></svg>