<svg xmlns="http://www.w3.org/2000/svg" width="53" height="48" viewBox="0 0 53 48"><path d="M7.425.026c.092.022.185.039.274.067.573.178.947.556 1.1 1.136.694 2.637 1.383 5.275 2.074 7.912.179.684.361 1.368.536 2.054.023.09.057.126.147.113.034-.005.069-.001.104-.001l39.217-.001c.56 0 1.026.192 1.359.647.332.453.397.957.212 1.488l-1.493 4.276-3.829 10.945c-.257.735-.817 1.131-1.602 1.131H16.293c.003.036.002.065.009.091.329 1.256.659 2.512.985 3.769.022.085.053.121.147.116.177-.008.354-.002.531-.002h25.397c.701 0 1.23.299 1.525.941.467 1.016-.258 2.175-1.375 2.223a4.707 4.707 0 0 1-.168.003c-9.049 0-18.098-.001-27.147.002-.598 0-1.081-.211-1.414-.712a1.745 1.745 0 0 1-.225-.518c-1.929-7.348-3.853-14.697-5.778-22.047L6.075 3.33l-.038-.135h-.155c-1.413 0-2.826.002-4.239-.001C.869 3.192.243 2.691.08 1.953A1.579 1.579 0 0 1 1.388.05c.024-.004.048-.016.071-.024h5.964zM48.73 14.48H12.275l.021.095c1.042 3.981 2.084 7.962 3.124 11.944.024.09.064.111.151.11.575-.004 1.149-.002 1.724-.002 9.01 0 18.019 0 27.029.003.124 0 .175-.037.216-.154 1.379-3.955 2.762-7.908 4.144-11.861l.046-.135zm-7.16 28.427a4.995 4.995 0 0 1-4.805 5.09 4.995 4.995 0 0 1-5.166-4.897c-.056-2.707 2.144-5.009 4.844-5.063 2.785-.056 5.07 2.116 5.127 4.871zm-4.976-1.706a1.817 1.817 0 1 0-.017 3.632 1.822 1.822 0 0 0 1.829-1.814 1.823 1.823 0 0 0-1.811-1.819zM15.83 43.015a4.988 4.988 0 0 1 4.993-4.98 4.989 4.989 0 0 1 4.978 4.983 4.991 4.991 0 0 1-4.993 4.981 4.989 4.989 0 0 1-4.977-4.983zm6.804-.001a1.817 1.817 0 0 0-1.827-1.813 1.821 1.821 0 0 0-1.81 1.819 1.818 1.818 0 1 0 3.637-.006z"/></svg>