<svg xmlns="http://www.w3.org/2000/svg" width="48" height="48" viewBox="0 0 48 48"><path d="M47.145 3.02a2.179 2.179 0 0 0-3.068 0L21.72 25.377l-4.982-4.982c-.842-.842-2.226-.842-3.068 0s-.842 2.226 0 3.068l6.516 6.516c.421.421.977.638 1.534.638s1.113-.217 1.534-.638L47.145 6.088a2.155 2.155 0 0 0 0-3.068z"/><path d="M41.267 21.93a2.178 2.178 0 0 0-2.172 2.172v15.204a2.178 2.178 0 0 1-2.172 2.172H6.516a2.178 2.178 0 0 1-2.172-2.172V8.899c0-1.195.977-2.172 2.172-2.172h23.891c1.195 0 2.172-.977 2.172-2.172s-.977-2.172-2.172-2.172H6.516A6.518 6.518 0 0 0 0 8.899v30.407a6.518 6.518 0 0 0 6.516 6.516h30.407a6.518 6.518 0 0 0 6.516-6.516V24.102a2.178 2.178 0 0 0-2.172-2.172z"/></svg>