<svg xmlns="http://www.w3.org/2000/svg" width="39" height="48" viewBox="0 0 39 48"><path d="M16.423 0h6.253c.016.007.031.016.047.019.842.157 1.38.8 1.382 1.655v1.304h2.826V1.654c.003-.694.56-1.417 1.228-1.596.083-.022.167-.039.25-.058h6.201c.083.021.166.04.248.065.718.216 1.172.842 1.172 1.623.001 2.927.003 5.854-.003 8.78-.001.353-.022.71-.074 1.059-.133.896-.48 1.701-1.107 2.369-.617.657-1.388 1.026-2.263 1.2a.21.21 0 0 0-.131.096c-.766 1.523-1.529 3.049-2.29 4.574a.245.245 0 0 0-.028.134c.084.603.173 1.206.26 1.808l.454 3.142.453 3.142.481 3.321.478 3.321.484 3.347.136.926h.154c.476 0 .952-.014 1.426.005.361.014.731.028 1.079.116 1.751.444 2.896 1.526 3.361 3.289.066.252.082.518.121.777v.363c-.008.086-.012.172-.023.257-.03.235-.044.474-.096.705-.478 2.136-2.287 3.58-4.488 3.58-9.943.001-19.887.001-29.83-.002-.237 0-.475-.018-.71-.051C2.062 47.694.54 46.301.131 44.519c-.059-.256-.088-.518-.131-.777v-.571l.047-.332a4.522 4.522 0 0 1 4.336-3.926c.562-.018 1.124-.007 1.686-.005.092 0 .124-.025.137-.12.074-.552.156-1.103.236-1.655l.586-4.04.607-4.22.638-4.399c.215-1.488.429-2.975.646-4.463a.509.509 0 0 0-.049-.322c-.743-1.477-1.483-2.956-2.22-4.436a.305.305 0 0 0-.235-.184c-1.281-.287-2.265-.973-2.869-2.159-.37-.728-.511-1.509-.511-2.319V6.012c0-1.457-.001-2.914.001-4.371A1.63 1.63 0 0 1 4.066.113c.127-.051.264-.077.396-.114h6.227c.033.009.065.02.098.026.64.132 1.428.711 1.403 1.676-.01.38-.002.761-.002 1.141v.136h2.824v-.157c.002-.432-.012-.865.009-1.297.022-.466.224-.854.588-1.154a1.86 1.86 0 0 1 .814-.371zm-4.461 21.186L9.379 38.898h20.36l-2.53-17.712H11.962zM30.175 3.147v.146c0 .411.001.822-.001 1.232 0 .095 0 .191-.015.284-.13.776-.772 1.311-1.581 1.312-1.985.002-3.969.001-5.954-.002-.133 0-.268-.019-.397-.048-.609-.134-1.296-.705-1.258-1.577.017-.401.003-.804.003-1.206 0-.046-.004-.092-.006-.138h-2.762c0 .459.002.908-.001 1.358a1.607 1.607 0 0 1-.032.347 1.644 1.644 0 0 1-1.59 1.265c-.692.004-1.384.001-2.075.001-1.297 0-2.594.004-3.891-.002-.9-.004-1.559-.674-1.56-1.573V3.15H6.229v7.404c0 .872.604 1.479 1.474 1.48 7.943.001 15.885 0 23.828-.001.125 0 .252-.009.373-.035.667-.143 1.097-.683 1.098-1.382.002-2.452.001-4.903 0-7.355 0-.037-.005-.075-.008-.114h-2.818zm-10.613 41.77H34.35c.069 0 .138.002.208-.002.564-.027.982-.293 1.225-.799.246-.512.188-1.012-.15-1.466-.302-.406-.725-.557-1.223-.557-9.898.003-19.795.002-29.693.002-.056 0-.113-.001-.169.003-.584.047-1 .345-1.236.872-.228.512-.14 1.001.206 1.434.295.369.695.515 1.165.515 4.96-.003 9.919-.002 14.879-.002zm9.437-29.737H10.17c.023.051.04.091.059.129.425.85.851 1.698 1.272 2.55.048.097.102.136.214.136 5.249-.003 10.498-.003 15.747-.001.099 0 .152-.026.198-.119.425-.859.855-1.716 1.284-2.573.019-.037.034-.077.054-.121z"/></svg>