<svg xmlns="http://www.w3.org/2000/svg" width="46" height="48" viewBox="0 0 46 48"><path d="M31.436 0c1.383 0 2.711.26 3.983.781 1.328.531 2.5 1.305 3.518 2.323a10.506 10.506 0 0 1 2.323 3.502c.509 1.25.763 2.578.763 3.983s-.254 2.733-.763 3.983a10.536 10.536 0 0 1-2.323 3.502L19.386 37.625a6.53 6.53 0 0 1-2.124 1.41c-.797.31-1.593.465-2.39.465s-1.593-.155-2.39-.465a6.54 6.54 0 0 1-2.124-1.41 6.15 6.15 0 0 1-1.394-2.108 6.21 6.21 0 0 1-.465-2.39c0-.852.155-1.654.465-2.406a6.386 6.386 0 0 1 1.394-2.108l18.041-18.025a2.06 2.06 0 0 1 1.51-.631c.576 0 1.074.21 1.495.631s.631.919.631 1.495c0 .586-.21 1.09-.631 1.51L13.363 31.618c-.409.409-.613.912-.613 1.51 0 .586.204 1.084.613 1.495.443.421.946.631 1.51.631s1.068-.21 1.51-.631l19.551-19.551c1.228-1.228 1.842-2.722 1.842-4.482s-.614-3.254-1.842-4.482c-1.262-1.24-2.761-1.859-4.498-1.859-1.748 0-3.242.62-4.482 1.859L7.353 25.61a10.372 10.372 0 0 0-2.323 3.518 10.457 10.457 0 0 0-.781 3.999c0 1.372.26 2.705.781 3.999a10.405 10.405 0 0 0 2.323 3.502c1.052 1.04 2.224 1.82 3.518 2.341a10.614 10.614 0 0 0 7.998 0c1.294-.521 2.466-1.301 3.518-2.341L41.905 21.11a2.06 2.06 0 0 1 1.51-.631c.576 0 1.074.21 1.495.631s.631.919.631 1.495c0 .586-.21 1.09-.631 1.51L25.392 43.633a14.701 14.701 0 0 1-4.93 3.269 14.514 14.514 0 0 1-5.593 1.096c-1.947 0-3.811-.365-5.593-1.096a14.716 14.716 0 0 1-4.93-3.269 14.677 14.677 0 0 1-3.254-4.912 14.676 14.676 0 0 1-1.096-5.593c0-1.947.365-3.811 1.096-5.593a14.934 14.934 0 0 1 3.254-4.93h.016L23.947 3.103A10.415 10.415 0 0 1 27.449.78a10.602 10.602 0 0 1 3.983-.781v-.002z"/></svg>