<svg xmlns="http://www.w3.org/2000/svg" width="48" height="48" viewBox="0 0 48 48"><path d="M24 0q4.892 0 9.332 1.901t7.653 5.114 5.114 7.653T48 24t-1.901 9.332-5.114 7.653-7.653 5.114T24 48t-9.332-1.901-7.653-5.114-5.114-7.653T0 24t1.901-9.332 5.114-7.653 7.653-5.114T24 0zm0 4.364q-3.989 0-7.628 1.56t-6.264 4.185-4.185 6.264-1.56 7.628 1.56 7.628 4.185 6.264 6.264 4.185T24 43.638t7.628-1.56 6.264-4.185 4.185-6.264 1.56-7.628-1.56-7.628-4.185-6.264-6.264-4.185T24 4.364zm0 4.363q.903 0 1.543.639t.639 1.543v12.187l5.915 5.898q.631.631.631 1.551t-.631 1.551-1.551.631-1.551-.631l-6.545-6.545q-.631-.631-.631-1.551V10.909q0-.903.639-1.543t1.543-.639z"/></svg>