<svg xmlns="http://www.w3.org/2000/svg" width="48" height="48" viewBox="0 0 48 48"><path d="M30.587 32.588l-4.588 4.588V24.001c0-1.1-.9-2-2-2s-2 .9-2 2v13.175l-4.588-4.588c-.775-.775-2.05-.775-2.825 0s-.775 2.05 0 2.825l8 8 .075.075.013.013.013.013.013.013.013.013.013.013c.15.125.3.212.463.287h.026c.212.088.45.15.7.163h.178c.25-.013.488-.062.7-.163s.013 0 .013 0h.013c.15-.062.287-.15.425-.263s.013-.013.013-.013l.013-.013.013-.013.013-.013.013-.013c.037-.025.062-.062.1-.1l7.988-7.988a2.007 2.007 0 0 0 0-2.825c-.75-.8-2.025-.8-2.8-.013z"/><path d="M36 16h-1.05C32.4 8.85 25.625 3.975 17.975 3.975c-9.925 0-18 8.075-18 18 0 4.412 1.612 8.65 4.537 11.95.737.825 2 .9 2.825.163s.9-2 .163-2.825a13.978 13.978 0 0 1-3.525-9.287c0-7.725 6.275-14 14-14 6.35 0 11.938 4.325 13.562 10.537A1.995 1.995 0 0 0 33.474 20h2.525c4.412 0 8 3.587 8 8 0 2.625-1.237 5.012-3.4 6.55a2.002 2.002 0 0 0-.475 2.788 2 2 0 0 0 1.637.838c.4 0 .8-.125 1.15-.375a12.052 12.052 0 0 0 5.087-9.812c.013-6.6-5.375-11.987-12-11.987z"/></svg>