<svg xmlns="http://www.w3.org/2000/svg" width="48" height="48" viewBox="0 0 48 48"><path d="M36 16h-1.05a18.273 18.273 0 0 0-5.888-8.175A17.776 17.776 0 0 0 17.987 4c-9.925 0-18 8.075-18 18 0 4.4 1.612 8.65 4.525 11.938.737.825 2 .9 2.825.175.825-.737.9-2 .175-2.825a13.978 13.978 0 0 1-3.525-9.287c0-7.725 6.275-14 14-14 6.35 0 11.925 4.325 13.562 10.513a2.007 2.007 0 0 0 1.937 1.487h2.513c4.412 0 8 3.587 8 8 0 2.912-1.6 5.6-4.187 7.025a2.01 2.01 0 0 0-.788 2.713 1.998 1.998 0 0 0 1.75 1.037c.325 0 .662-.075.962-.25 3.85-2.125 6.25-6.163 6.25-10.525 0-6.613-5.375-12-11.987-12z"/><path d="M25.425 22.588l-.075-.075h-.013l-.013-.013s-.013 0-.013-.013h-.013l-.013-.013a1.676 1.676 0 0 0-.512-.313h-.039a1.903 1.903 0 0 0-.6-.137h-.28c-.2.013-.4.062-.587.137s-.013 0-.013 0h-.013c-.2.075-.375.188-.55.337s-.013.013-.013.013l-.013.013-.013.013c-.025.013-.038.038-.062.062l-8 8c-.775.775-.775 2.05 0 2.825s2.05.775 2.825 0l4.588-4.588v13.163c0 1.1.9 2 2 2s2-.9 2-2V28.824l4.588 4.588a1.996 1.996 0 0 0 2.824 0 2.007 2.007 0 0 0 0-2.825l-8-8z"/></svg>