<svg xmlns="http://www.w3.org/2000/svg" width="48" height="48" viewBox="0 0 48 48"><path d="M40.927 24.819h-2.881v-4.060c0-1.113-0.851-1.965-1.965-1.965h-33.986c-1.113 0-1.965 0.851-1.965 1.965v8.251c0 6.090 2.881 11.591 7.4 15.061h-5.501c-1.113 0-1.965 0.851-1.965 1.965s0.851 1.965 1.965 1.965h33.593c1.113 0 1.965-0.851 1.965-1.965s-0.851-1.965-1.965-1.965h-5.042c1.768-1.375 3.34-3.078 4.518-5.042h5.763c3.929 0 7.072-3.209 7.072-7.072 0.065-3.929-3.078-7.138-7.007-7.138zM19.055 44.005c-8.317 0-15.061-6.745-15.061-15.061v-6.286h30.057v6.286c0.065 8.317-6.679 15.061-14.996 15.061zM40.927 35.1h-3.929c0.655-1.899 0.982-3.929 0.982-6.090v-0.262h2.881c1.768 0 3.143 1.441 3.143 3.143 0.065 1.768-1.31 3.209-3.078 3.209zM21.020 10.216v-8.251c0-1.113-0.851-1.965-1.965-1.965s-1.965 0.851-1.965 1.965v8.251c0 1.113 0.851 1.965 1.965 1.965s1.965-0.851 1.965-1.965zM29.533 13.097v-8.317c0-1.113-0.851-1.965-1.965-1.965s-1.965 0.851-1.965 1.965v8.317c0 1.113 0.851 1.965 1.965 1.965s1.965-0.917 1.965-1.965zM12.507 13.097v-8.317c0-1.113-0.851-1.965-1.965-1.965s-1.965 0.851-1.965 1.965v8.317c0 1.113 0.851 1.965 1.965 1.965s1.965-0.917 1.965-1.965z"></path></svg>