<svg xmlns="http://www.w3.org/2000/svg" width="48" height="48" viewBox="0 0 48 48"><path d="M.039 22.425c.059-.295.096-.595.178-.883.53-1.841 2.172-3.066 4.126-3.084.552-.005 1.104.002 1.655-.006.062-.001.165-.046.18-.095.336-1.038.755-2.04 1.264-3.021-.425-.423-.847-.846-1.27-1.266-.563-.559-.96-1.215-1.144-1.987-.354-1.488-.031-2.82 1.004-3.947a43.362 43.362 0 0 1 2.087-2.093c1.612-1.529 4.186-1.51 5.806.03.438.417.86.849 1.283 1.281.082.084.144.095.251.039a17.199 17.199 0 0 1 2.832-1.171c.111-.034.153-.084.151-.204a74.667 74.667 0 0 1 0-1.833c.03-2.022 1.644-3.819 3.653-4.071.215-.027.432-.04.648-.042.841-.005 1.681-.005 2.521-.002 2.205.009 3.967 1.515 4.264 3.697.087.633.041 1.286.048 1.929.006.468.009.449.444.624.851.344 1.692.708 2.534 1.074.108.046.168.048.252-.038.377-.385.759-.765 1.142-1.144 1.758-1.745 4.38-1.743 6.136.007.582.579 1.163 1.159 1.742 1.742 1.736 1.746 1.737 4.377.003 6.125-.38.383-.759.764-1.145 1.141-.081.08-.103.139-.045.25.476.909.867 1.852 1.173 2.832.041.128.105.153.226.153.683.001 1.368-.014 2.049.025 1.894.108 3.597 1.713 3.832 3.594.03.234.044.471.045.707.005.834.005 1.668.002 2.502-.008 2.147-1.429 3.858-3.54 4.25a4.555 4.555 0 0 1-.784.06c-.584.009-1.169.003-1.77.003-.045.129-.083.259-.135.384-.361.864-.722 1.73-1.092 2.589-.05.116-.048.178.044.267.39.381.774.767 1.158 1.155 1.701 1.716 1.708 4.345.015 6.067-.603.613-1.212 1.221-1.825 1.825-1.722 1.697-4.346 1.691-6.065-.012-.425-.42-.844-.844-1.255-1.257-.608.27-1.194.543-1.793.792-.381.159-.774.29-1.166.417-.137.043-.183.103-.183.246.002.67.015 1.341-.021 2.008-.104 1.872-1.62 3.541-3.471 3.839-.297.048-.6.072-.901.072-.965.002-1.933.029-2.895-.032-1.835-.114-3.456-1.59-3.759-3.408-.092-.552-.068-1.123-.087-1.688-.01-.276-.006-.552 0-.828.003-.108-.027-.159-.138-.195a17.811 17.811 0 0 1-2.868-1.188c-.096-.05-.147-.033-.217.039-.383.389-.768.774-1.155 1.158-1.747 1.737-4.377 1.739-6.122.002A581.007 581.007 0 0 1 6.185 40.1c-1.734-1.745-1.733-4.379.002-6.123.38-.383.759-.765 1.144-1.14.084-.083.096-.144.041-.251a17.546 17.546 0 0 1-1.173-2.832c-.041-.129-.101-.156-.222-.155-.552.006-1.104.005-1.655.002C2.101 29.59.313 27.98.068 25.772c-.006-.051-.022-.101-.033-.151.002-1.065.002-2.128.002-3.192zm26.286 19.746c0-.48-.002-.958 0-1.438.002-.868.466-1.473 1.311-1.681a15.742 15.742 0 0 0 4.452-1.848c.717-.436 1.486-.334 2.085.261.688.685 1.376 1.376 2.063 2.063.477.477 1.083.475 1.564-.005.572-.572 1.143-1.142 1.713-1.715.483-.485.483-1.059.002-1.542l-2.005-2.007c-.686-.686-.773-1.411-.272-2.242a15.4 15.4 0 0 0 1.776-4.293c.228-.925.812-1.383 1.767-1.383.959 0 1.918.002 2.877-.002.645-.002 1.057-.414 1.061-1.062.005-.828.003-1.656 0-2.482-.003-.666-.42-1.077-1.088-1.077-.972-.002-1.944 0-2.916 0-.873-.002-1.485-.479-1.691-1.329a15.346 15.346 0 0 0-1.81-4.383c-.47-.774-.378-1.527.259-2.166.681-.684 1.367-1.365 2.047-2.049.474-.476.475-1.056.005-1.529-.575-.577-1.152-1.152-1.728-1.728-.48-.48-1.08-.477-1.565.006-.693.691-1.381 1.386-2.078 2.074-.584.576-1.354.675-2.055.249a15.714 15.714 0 0 0-4.471-1.854c-.831-.202-1.299-.817-1.3-1.671-.002-.966 0-1.931 0-2.896 0-.717-.405-1.119-1.127-1.119h-2.385c-.711.002-1.113.401-1.113 1.11-.002.966.003 1.93-.002 2.896-.003.867-.477 1.482-1.314 1.684a15.603 15.603 0 0 0-4.437 1.835c-.74.449-1.5.348-2.117-.267-.688-.687-1.374-1.376-2.063-2.063-.456-.454-1.069-.457-1.522-.006-.582.579-1.163 1.161-1.742 1.742-.481.483-.478 1.06.003 1.543.683.684 1.367 1.365 2.048 2.049.623.624.721 1.383.267 2.133a15.69 15.69 0 0 0-1.835 4.437c-.202.825-.816 1.299-1.671 1.301-.978.002-1.957 0-2.935 0-.655 0-1.074.417-1.074 1.068-.002.814 0 1.629 0 2.444 0 .714.394 1.111 1.107 1.111.966.002 1.931-.003 2.897.002.87.003 1.473.473 1.68 1.316a15.67 15.67 0 0 0 1.839 4.435c.445.734.349 1.496-.254 2.102-.69.695-1.384 1.385-2.076 2.078-.473.474-.473 1.058-.002 1.53.57.572 1.143 1.143 1.714 1.713.49.489 1.091.492 1.578.006.669-.667 1.338-1.338 2.007-2.007.668-.668 1.405-.756 2.211-.267a15.2 15.2 0 0 0 4.29 1.779c.948.233 1.399.813 1.401 1.794 0 .959-.003 1.919.001 2.877.003.622.423 1.036 1.043 1.036.847.002 1.695.003 2.542 0 .612-.002 1.035-.429 1.038-1.045.002-.506 0-1.013 0-1.518z"/><path d="M34.838 24.03c.002 5.961-4.851 10.818-10.811 10.822-5.986.005-10.843-4.849-10.837-10.831.008-5.975 4.861-10.821 10.836-10.817 5.955.005 10.811 4.866 10.812 10.826zm-18.396-.006c-.003 4.168 3.394 7.57 7.567 7.577 4.161.006 7.559-3.387 7.566-7.554.007-4.182-3.378-7.579-7.553-7.581-4.182 0-7.578 3.384-7.581 7.557z"/></svg>