<svg xmlns="http://www.w3.org/2000/svg" width="48" height="48" viewBox="0 0 48 48"><path d="M48 8.4c-1.92-6-13.44-8.4-24-8.4s-22.32 2.4-24 8.16v31.2c0 7.2 15.12 8.64 24 8.64s24-1.68 24-8.4v-31.2zM43.2 25.68v4.080c-1.92 2.4-14.4 3.84-19.2 3.84-3.84 0-16.8-0.72-19.2-3.84v-4.080c4.8 2.4 13.44 3.12 19.2 3.12 5.52 0 14.4-0.72 19.2-3.12zM43.2 15.6v4.8c-1.68 2.4-12.96 3.6-19.2 3.6s-17.52-1.44-19.2-3.84v-4.8c5.28 3.12 13.44 3.84 19.2 3.84s13.92-0.96 19.2-3.6zM24 4.8c12 0 18.72 3.12 19.2 4.8 0 1.2-6.72 4.8-19.2 4.8h-2.4c-11.040-0.48-16.8-3.6-16.8-4.8 0.48-1.68 7.2-4.8 19.2-4.8zM43.2 39.36c-0.96 1.2-7.2 3.84-19.2 3.84s-18.24-2.4-19.2-3.84v-4.080c5.28 2.4 13.68 3.12 19.2 3.12s14.4-0.72 19.2-3.12v4.080z"></path></svg>
