<svg xmlns="http://www.w3.org/2000/svg" width="48" height="48" viewBox="0 0 48 48"><path d="M36.6 3q3.478 0 5.939 2.461T45 11.4t-2.461 5.939T36.6 19.8h-4.2v8.4h4.2q3.478 0 5.939 2.461T45 36.6t-2.461 5.939T36.6 45t-5.939-2.461T28.2 36.6v-4.2h-8.4v4.2q0 3.478-2.461 5.939T11.4 45t-5.939-2.461T3 36.6t2.461-5.939T11.4 28.2h4.2v-8.4h-4.2q-3.478 0-5.939-2.461T3 11.4t2.461-5.939T11.4 3t5.939 2.461T19.8 11.4v4.2h8.4v-4.2q0-3.478 2.461-5.939T36.6 3zm-21 33.6v-4.2h-4.2q-1.739 0-2.969 1.23t-1.23 2.969 1.23 2.969 2.969 1.23 2.969-1.23 1.23-2.969zM11.4 7.2q-1.739 0-2.969 1.23t-1.23 2.969 1.23 2.969 2.969 1.23h4.2v-4.2q0-1.739-1.23-2.969t-2.969-1.23zm16.8 21v-8.4h-8.4v8.4h8.4zm8.4 4.2h-4.2v4.2q0 1.739 1.23 2.969t2.969 1.23 2.969-1.23 1.23-2.969-1.23-2.969-2.969-1.23zm0-25.2q-1.739 0-2.969 1.23t-1.23 2.969v4.2h4.2q1.739 0 2.969-1.23T40.8 11.4t-1.23-2.969-2.969-1.23z"/></svg>