<svg xmlns="http://www.w3.org/2000/svg" width="48" height="48" viewBox="0 0 48 48"><path d="M36.13 29.389a2.87 2.87 0 0 1-2.309-1.161c-.164-.218-3.693-4.791-9.893-4.791-6.188 0-9.581 4.561-9.722 4.756a2.88 2.88 0 0 1-4 .65 2.861 2.861 0 0 1-.675-3.982c.207-.292 5.175-7.164 14.397-7.164 9.189 0 14.301 6.836 14.515 7.127a2.871 2.871 0 0 1-2.314 4.566z"/><path d="M45.131 22.637a2.867 2.867 0 0 1-2.315-1.17c-.309-.415-7.005-9.207-18.943-9.207S5.476 21.059 5.207 21.433a2.872 2.872 0 0 1-4 .667 2.866 2.866 0 0 1-.681-3.99C.86 17.636 8.893 6.519 23.874 6.519c14.947 0 23.227 11.081 23.573 11.553a2.872 2.872 0 0 1-2.315 4.565zM29.832 35.436c0 3.333-2.701 6.044-6.031 6.044a6.05 6.05 0 0 1-6.044-6.044c0-3.331 2.711-6.033 6.044-6.033a6.033 6.033 0 0 1 6.031 6.033z"/></svg>