<svg xmlns="http://www.w3.org/2000/svg" width="48" height="48" viewBox="0 0 48 48"><path d="M24 2q4.094 0 7.922.492t7.023 1.438 5.125 2.516T46 10.001v28q0 1.984-1.93 3.555t-5.125 2.516-7.023 1.438-7.922.492-7.922-.492-7.023-1.438-5.125-2.516T2 38.001v-28q0-1.984 1.93-3.555T9.055 3.93t7.023-1.438T24 2zm18 35.969V28.86q-3.062 1.547-7.891 2.344T24 32.001t-10.109-.797T6 28.86v9.141q.094.344.836.828t2.273 1.047 3.563 1.031 5.016.781 6.313.313 6.313-.313 5.016-.789 3.563-1.039 2.273-1.047.836-.844zm0-14V14.86q-3.062 1.547-7.891 2.344T24 18.001t-10.109-.797T6 14.86v9.141q.094.344.836.828t2.273 1.047 3.563 1.031 5.016.781 6.313.313 6.313-.313 5.008-.781 3.555-1.031 2.281-1.055.844-.852zM24 6q-3.297 0-6.266.313t-4.984.773-3.555 1.016T6.89 9.149t-.891.852q.125.359.891.852T9.195 11.9t3.555 1.016 4.984.773 6.266.313 6.266-.313 4.984-.773 3.555-1.016 2.305-1.047.891-.852q-.125-.359-.891-.852t-2.305-1.047-3.555-1.016-4.984-.773T24 6z"/></svg>