<svg xmlns="http://www.w3.org/2000/svg" width="36" height="48" viewBox="0 0 36 48"><path d="M35.508 45.95l-3.23-5.035c-.247-.378-.67-.615-1.126-.615h-8.54l6.168-12.12c.34.066.69.105 1.04.105 2.815 0 5.112-2.298 5.112-5.115s-2.295-5.11-5.112-5.11c-.936 0-1.805.254-2.55.69l-8.295-8.296 1.68-5.07c.16-.48.03-1.005-.32-1.365L16.695.39c-.358-.356-.88-.48-1.36-.32L.92 4.835c-.945.312-1.23 1.503-.53 2.21l2.806 2.817c-1.305 2.146-1.032 4.99.82 6.84 1.778 1.73 4.528 2.184 6.826.804l2.835 2.835c.7.7 1.9.416 2.21-.53l2.16-6.516 7.35 7.35c-.422.744-.678 1.605-.678 2.53 0 1.502.66 2.852 1.69 3.788L19.622 40.3H15.53v-.944c0-.735-.59-1.332-1.328-1.332s-1.334.594-1.334 1.33v.946H9.722c-.453 0-.88.225-1.125.615l-3.23 5.033c-.563.892.067 2.055 1.126 2.055h27.885c1.065 0 1.7-1.162 1.133-2.05zm-29.6-31.14c-.804-.805-1.02-1.95-.71-2.96l3.658 3.656c-1.002.33-2.145.105-2.947-.7zm8.125 2.105L3.81 6.682l11.595-3.825 2.456 2.475-3.822 11.58zm18.234 6.255c0 1.35-1.095 2.445-2.445 2.445s-2.445-1.095-2.445-2.445c0-1.35 1.095-2.445 2.445-2.445s2.445 1.095 2.445 2.445zM8.94 45.336l1.52-2.37h19.966l1.52 2.37H8.94z"/></svg>