<svg xmlns="http://www.w3.org/2000/svg" width="29" height="48" viewBox="0 0 29 48"><path d="M29.231 3.734v40.515c-.024.076-.056.15-.072.227-.355 1.699-1.365 2.809-3.012 3.342-.234.076-.479.122-.718.182H3.797c-.193-.052-.387-.102-.579-.155-1.336-.371-2.32-1.158-2.871-2.448C.089 44.793 0 44.157 0 43.504L.001 4.546c0-.175.001-.351.016-.526.135-1.597.888-2.8 2.314-3.55A4.06 4.06 0 0 1 4.253 0c6.91.007 13.821.004 20.731.007.224 0 .453.014.672.057 1.758.344 2.897 1.38 3.421 3.092.058.191.103.386.153.578zM3.261 20.156v.163c0 1.216.003 2.432 0 3.648-.006 2.816-.018 5.633-.021 8.449-.004 3.699-.001 7.399 0 11.098 0 .111.006.223.018.333.049.47.324.779.788.875.133.027.272.036.408.036 6.769.002 13.539.002 20.308.001.051 0 .103.001.154-.002.584-.03.937-.314 1.039-.843a1.86 1.86 0 0 0 .029-.358c.002-7.754.002-15.508.002-23.263 0-.045-.004-.09-.006-.138H3.26zM3.24 8.423h22.739c.003-.045.007-.082.007-.12 0-1.297.001-2.594-.001-3.891a2.43 2.43 0 0 0-.02-.282c-.056-.462-.326-.761-.781-.849a2.332 2.332 0 0 0-.434-.034c-6.546-.002-13.091-.002-19.637-.001-.274 0-.548-.005-.822.003-.58.018-.93.309-1.025.85a2.04 2.04 0 0 0-.025.358c-.002 1.276-.001 2.551-.001 3.827v.139zm.022 8.45h22.696v-5.145H3.262v5.145z"/><path d="M10.025 33.631c-.012-2.538 2.013-4.579 4.485-4.624 2.522-.046 4.619 1.961 4.682 4.471.063 2.505-1.907 4.636-4.444 4.704-2.603.069-4.667-1.932-4.723-4.551zm2.724-.041c-.029.968.796 1.843 1.77 1.875 1.048.034 1.918-.767 1.949-1.797a1.87 1.87 0 0 0-1.812-1.924c-1.021-.034-1.875.793-1.906 1.846z"/></svg>