<svg xmlns="http://www.w3.org/2000/svg" width="48" height="48" viewBox="0 0 48 48"><path d="M18.351 5.617C18.15 2.692 20.618.024 23.679 0c2.999-.024 5.586 2.632 5.357 5.617h.231c3.091.002 6.181-.003 9.273.005 1.578.003 2.888.95 3.319 2.423.12.409.167.853.168 1.282.009 11.661.009 23.321 0 34.982 0 .416-.045.849-.171 1.242-.421 1.319-1.353 2.093-2.7 2.366a4.345 4.345 0 0 1-.859.078c-9.609.005-19.217.014-28.825-.007-1.671-.003-2.97-1.084-3.37-2.616a4.188 4.188 0 0 1-.136-1.084c.019-11.739.012-23.478.019-35.218a3.36 3.36 0 0 1 2.579-3.319 4.669 4.669 0 0 1 1.053-.123c2.828-.011 5.657-.006 8.484-.007h.25zm-6.03 3.05c-.008 0-.051-.006-.095-.006H9.879c-.747 0-.857.11-.857.855l.002 8.564.008 26.103c0 .654.085.739.738.739H38.3c.092 0 .184.002.276-.009.263-.031.373-.142.398-.405.014-.158.015-.315.015-.473l.003-34.35c0-.152.005-.303 0-.454-.015-.445-.128-.558-.572-.559-1.072-.005-2.143-.005-3.216-.005-.05 0-.099.007-.141.012.068.339.159.665.194.995.282 2.692-1.783 5.013-4.482 5.018-4.716.009-9.43.009-14.146 0a4.482 4.482 0 0 1-4.485-4.575c.009-.48.119-.959.182-1.446zm9.912-.004H18.29c-1.17 0-2.341-.005-3.511.002-.091 0-.223.042-.265.108-.528.828-.612 1.69-.156 2.58.459.894 1.178 1.404 2.199 1.405 4.761.006 9.522.005 14.283-.001.24 0 .484-.048.718-.105 1.204-.293 2.382-2.085 1.431-3.729-.108-.188-.222-.267-.445-.267-2.282.009-4.565.008-6.846.008-.068 0-.137-.006-.267-.012.195-.252.352-.466.521-.672.136-.168.297-.318.421-.495.786-1.108.912-2.296.327-3.52-.573-1.2-1.578-1.803-2.892-1.866-2.108-.101-3.773 1.797-3.438 3.882.138.861.582 1.536 1.213 2.108.199.18.4.357.649.577z"/><path d="M25.354 32.964h-9.885c-.359.009-.696-.033-.849-.425-.172-.444-.175-.883.149-1.262.091-.107.267-.149.411-.199.076-.027.169-.008.255-.008h19.671c.08 0 .157 0 .237.002.438.012.682.194.764.618.039.208.041.435.002.643-.085.446-.34.631-.791.631h-9.963v-.002zm-1.929-9.427c2.657 0 5.313 0 7.97.002.124 0 .249.008.373.023.267.032.441.189.542.432.136.333.13.668-.015.996-.105.239-.279.398-.55.419-.124.011-.249.02-.373.02l-15.801.005c-.039 0-.08-.002-.119 0-.375.014-.692-.07-.845-.466-.174-.449-.101-.981.183-1.257.143-.138.315-.172.507-.172 1.683.003 3.366.002 5.05.002h3.078v.001zm-3.087-2.086h-5.07c-.894 0-1.788-.001-2.684.002-.346.002-.672-.054-.838-.398a1.168 1.168 0 0 1 .045-1.15c.11-.186.294-.28.503-.314.123-.02.249-.027.373-.027l15.229.003c.099 0 .198.002.295.008.423.032.65.198.722.616.042.244.028.513-.029.756-.081.348-.316.512-.657.512-2.63.003-5.261.001-7.89.001v-.006zm2.117 5.83h7c.505 0 .72.121.869.491.167.412.078.938-.203 1.218-.151.151-.336.189-.541.189-2.334-.003-4.666-.002-7-.002-2.373 0-4.746-.003-7.119.003-.385.002-.708-.081-.856-.482-.164-.436-.141-.853.174-1.219.144-.168.345-.197.556-.197 1.242.002 2.486 0 3.727 0h3.392zm-1.617 7.58h5.422c.495 0 .705.129.845.519.159.441.063.992-.24 1.221a.81.81 0 0 1-.416.141c-.36.021-.723.011-1.084.011-3.294 0-6.587-.002-9.88.003-.376 0-.717-.042-.878-.444-.177-.443-.141-.863.16-1.244.133-.168.321-.209.53-.207 1.846.003 3.694.002 5.541.002v-.002zm4.837-29.413a1.97 1.97 0 0 1-1.974 1.984c-1.102.002-2.005-.895-2.001-1.987a2 2 0 0 1 1.983-1.989 1.978 1.978 0 0 1 1.99 1.992zm-3.054 0c0 .604.468 1.077 1.068 1.08s1.095-.486 1.095-1.083c0-.592-.503-1.088-1.098-1.084s-1.064.483-1.065 1.087z"/></svg>