<svg xmlns="http://www.w3.org/2000/svg" width="27" height="48" viewBox="0 0 27 48"><path d="M15.527 0c.188.032.378.05.561.096.826.213 1.38.848 1.488 1.698.021.171.036.344.036.516.001.769-.003 1.541-.008 2.31-.001.171.002.18.167.219.996.232 1.97.534 2.896.97 1.316.62 2.477 1.446 3.395 2.586a6.516 6.516 0 0 1 1.441 3.533c.023.24.037.481.039.721.005.918.003 1.835 0 2.753a2.34 2.34 0 0 1-.226 1.045c-.348.704-.936 1.07-1.704 1.102-1.565.069-3.131.06-4.695.003a1.957 1.957 0 0 1-1.893-1.734c-.062-.519-.048-1.049-.035-1.572.009-.366-.084-.559-.427-.692-.587-.225-1.173-.457-1.795-.567-1.272-.223-2.478-.043-3.597.62a2.174 2.174 0 0 0-.78.762c-.372.627-.313 1.368.175 2.007.434.566.979 1 1.609 1.329 1.604.836 3.246 1.592 4.884 2.352 1.322.614 2.625 1.259 3.848 2.057 1.229.801 2.341 1.731 3.261 2.881a10.296 10.296 0 0 1 2.108 4.563c.082.434.116.876.197 1.311.048.257.055.512.068.771.032.693-.053 1.374-.171 2.055-.212 1.215-.558 2.385-1.113 3.488-.892 1.773-2.202 3.166-3.858 4.245a14.143 14.143 0 0 1-3.597 1.667c-.188.057-.186.062-.186.253 0 .818 0 1.633-.002 2.451-.002.498-.114.961-.433 1.36a2.038 2.038 0 0 1-.591.498c-.18.105-.363.206-.547.3a.411.411 0 0 1-.186.041c-1.381.003-2.763.003-4.144-.002a.677.677 0 0 1-.265-.072c-.485-.216-.888-.53-1.163-.992a2.614 2.614 0 0 1-.346-1.276c-.006-.219.016-.438.016-.657.003-.576.002-1.151.006-1.726 0-.084-.042-.101-.107-.117a15.714 15.714 0 0 1-2.647-.938c-2.001-.921-3.709-2.23-5.16-3.882-.558-.636-1.087-1.294-1.53-2.019a3.745 3.745 0 0 1-.45-.999c-.167-.642-.021-1.211.444-1.677.266-.267.561-.505.852-.745a619.31 619.31 0 0 1 2.792-2.298c.381-.312.813-.519 1.313-.543.676-.032 1.218.252 1.639.759.252.303.468.637.7.957.864 1.191 1.942 2.124 3.284 2.743.834.386 1.704.615 2.627.603.777-.011 1.534-.141 2.236-.487.864-.428 1.391-1.117 1.527-2.084a2.56 2.56 0 0 0-.061-1.059c-.11-.393-.335-.706-.646-.97-1.131-.958-2.402-1.689-3.735-2.322a260.653 260.653 0 0 1-4.018-1.941c-1.542-.767-2.982-1.694-4.275-2.837-1.861-1.645-3.031-3.692-3.466-6.134-.537-3.009.09-5.761 1.968-8.194 1.116-1.447 2.548-2.507 4.207-3.256.789-.357 1.597-.666 2.4-.992.081-.033.104-.074.104-.157-.003-.78-.003-1.562 0-2.343.002-.366.051-.724.181-1.068.267-.704.801-1.074 1.52-1.208.159-.03.319-.045.479-.066h3.39zm-2.676 2.936v.124c0 .792.002 1.584-.002 2.374 0 .191-.005.381-.021.572-.057.647-.369 1.116-.975 1.373a2.725 2.725 0 0 1-.313.114c-.402.111-.806.213-1.207.324-1.373.38-2.631.987-3.716 1.918-1.618 1.388-2.517 3.144-2.632 5.279-.071 1.299.198 2.538.76 3.711.614 1.281 1.527 2.306 2.684 3.126 1.503 1.067 3.102 1.963 4.77 2.742 1.23.574 2.469 1.134 3.648 1.812.958.55 1.895 1.134 2.733 1.86 1.992 1.725 2.445 4.581 1.034 6.805-1.099 1.733-2.746 2.617-4.749 2.883-.814.108-1.629.063-2.441-.06a9.74 9.74 0 0 1-3.708-1.36c-1.23-.764-2.245-1.757-3.123-2.9l-.228-.295-2.166 1.801c.029.041.051.076.077.111.258.329.506.665.775.983 2.22 2.607 5.046 4.079 8.436 4.483.288.035.375.126.375.417v3.887h1.876v-.146c.002-.839 0-1.677.005-2.515 0-.157.009-.316.03-.473.079-.573.369-1.001.904-1.237a2.73 2.73 0 0 1 .582-.189 10.334 10.334 0 0 0 3.238-1.233c1.538-.903 2.703-2.142 3.405-3.795.401-.942.614-1.927.702-2.944a8.464 8.464 0 0 0-.208-2.828c-.423-1.665-1.353-3-2.67-4.08-.821-.674-1.728-1.216-2.655-1.726-1.809-.995-3.664-1.892-5.544-2.745-.765-.348-1.533-.695-2.245-1.145-.893-.564-1.668-1.253-2.236-2.152-.621-.983-.893-2.053-.735-3.212.16-1.176.72-2.142 1.609-2.919.731-.637 1.581-1.059 2.508-1.32a9.577 9.577 0 0 1 4.114-.231 6.6 6.6 0 0 1 2.794 1.102c1.07.747 1.611 1.761 1.533 3.082-.006.107-.002.215-.002.327h2.798c.003-.032.006-.056.006-.08 0-.633.005-1.266-.001-1.9a4.157 4.157 0 0 0-.162-1.107c-.264-.926-.826-1.641-1.573-2.225-1.015-.793-2.174-1.285-3.417-1.582-.807-.192-1.623-.351-2.434-.522-.302-.065-.37-.144-.37-.453V2.927h-1.865z"/></svg>