<svg xmlns="http://www.w3.org/2000/svg" width="48" height="48" viewBox="0 0 48 48"><path d="M-.044 13.576c.033-.217.053-.436.102-.649a2.936 2.936 0 0 1 2.794-2.266c.907-.02 1.657.315 2.292.949 6.183 6.184 12.367 12.367 18.551 18.554.058.059.1.135.151.203l.086.009c.052-.074.094-.158.157-.221 6.166-6.177 12.334-12.352 18.502-18.529.455-.454.978-.772 1.613-.909 1.798-.384 3.525.959 3.592 2.793.033.893-.271 1.644-.903 2.273-1.065 1.061-2.126 2.126-3.188 3.188-5.88 5.88-11.761 11.76-17.639 17.641-.491.492-1.054.828-1.752.91-.927.11-1.76-.103-2.459-.75-.062-.058-.121-.118-.181-.178C14.759 29.679 7.845 22.763.927 15.851c-.488-.487-.818-1.045-.918-1.732-.021-.146-.035-.294-.053-.441v-.102z"/></svg>