<svg xmlns="http://www.w3.org/2000/svg" width="48" height="48" viewBox="0 0 48 48"><path d="M24 1.999q.828 0 1.415.587T26.002 4v23.172l6.578-6.594Q33.158 20 34.002 20q.859 0 1.429.57t.57 1.429q0 .845-.578 1.422l-10 10q-.578.578-1.422.578t-1.422-.578l-10-10q-.578-.609-.578-1.422 0-.828.587-1.415t1.414-.587q.845 0 1.422.578l6.577 6.594V3.997q0-.828.587-1.415t1.415-.586zM43.999 30q.828 0 1.415.586t.587 1.415v8q0 2.501-1.734 4.234-1.766 1.766-4.22 1.766H8q-2.452 0-4.25-1.751-1.751-1.797-1.751-4.249v-7.999q0-.828.587-1.415T4 30t1.415.586.586 1.415v8q0 .828.587 1.415t1.414.587h32.047q.813 0 1.383-.587t.57-1.414v-8q0-.828.587-1.415T44.004 30z"/></svg>