<svg xmlns="http://www.w3.org/2000/svg" width="48" height="48" viewBox="0 0 48 48"><path d="M45.6 0h-7.2c-0.72 0-1.2 0.24-1.68 0.72l-8.88 8.88h-8.88c-1.2-4.080-4.8-7.2-9.36-7.2-5.28 0-9.6 4.32-9.6 9.6 0 6.72 6.72 11.52 13.2 8.88l8.4 11.040v11.28h-7.2c-1.44 0-2.4 0.96-2.4 2.4s0.96 2.4 2.4 2.4h19.2c1.44 0 2.4-0.96 2.4-2.4s-0.96-2.4-2.4-2.4h-7.2v-11.28l13.92-18.48c1.2-1.68 0-3.84-1.92-3.84h-3.84l4.8-4.8h6.24c1.44 0 2.4-0.96 2.4-2.4s-0.96-2.4-2.4-2.4zM4.8 12c0-2.64 2.16-4.8 4.8-4.8 1.68 0 3.36 0.96 4.080 2.4h-4.080c-1.92 0-3.12 2.16-1.92 3.84l2.4 3.36c-3.12 0.24-5.28-2.16-5.28-4.8zM24 27.12c-1.92-2.4-8.88-11.76-9.6-12.72h19.2l-9.6 12.72z"></path></svg>