<svg xmlns="http://www.w3.org/2000/svg" width="48" height="48" viewBox="0 0 48 48"><path d="M0 10.512c.031-.229.051-.46.094-.687.4-2.154 1.576-3.741 3.512-4.758.914-.48 1.9-.699 2.933-.7 3.876-.001 7.752-.001 11.628 0a2.184 2.184 0 0 1 2.203 2.077c.071 1.119-.824 2.168-1.938 2.269a4.075 4.075 0 0 1-.383.018l-11.448.001c-.902 0-1.568.407-1.999 1.195a1.975 1.975 0 0 0-.236.932l-.001.132c0 10.128.001 20.255-.002 30.383 0 .694.24 1.273.761 1.729.39.341.849.517 1.369.529l.132.001c10.128 0 20.255-.001 30.383.001.791 0 1.418-.31 1.875-.953.272-.383.385-.817.384-1.288-.003-3.06-.001-6.12-.001-9.18v-2.364c.002-1.102.729-1.981 1.811-2.191 1.19-.232 2.397.655 2.532 1.86.012.111.021.223.021.335.001 3.86.003 7.72 0 11.58a6.539 6.539 0 0 1-6.039 6.543c-.035.002-.069.014-.104.021H6.143c-.031-.007-.061-.018-.092-.02a6.258 6.258 0 0 1-2.87-.914C1.484 46.015.449 44.506.093 42.539c-.041-.227-.063-.458-.094-.686V10.509z"/><path d="M48 11.136c-.027.12-.048.242-.081.36-.11.394-.324.725-.613 1.014-2.527 2.524-5.052 5.051-7.578 7.576-3.609 3.609-7.219 7.217-10.825 10.829a2.576 2.576 0 0 1-1.174.685c-3.957 1.075-7.913 2.156-11.87 3.234-1.273.347-2.519-.449-2.747-1.753a2.08 2.08 0 0 1 .048-.915l3.268-11.984c.11-.403.32-.744.615-1.039 2.202-2.199 4.401-4.4 6.602-6.601 3.934-3.934 7.869-7.868 11.8-11.804.389-.39.833-.654 1.385-.721.011-.001.022-.011.033-.017h.744c.031.006.062.015.093.019.491.06.989.088 1.473.185 2.727.548 4.941 1.933 6.626 4.143 1.207 1.583 1.91 3.375 2.131 5.355.026.23.046.46.069.69v.744zM29.646 24.027c.039-.055.064-.102.101-.138l8.385-8.38 5.365-5.359c.053-.053.092-.098.071-.185-.043-.178-.064-.362-.104-.541-.576-2.581-2.801-4.63-5.41-4.989a.204.204 0 0 0-.198.066c-4.587 4.593-9.176 9.184-13.765 13.776-.029.029-.056.06-.086.092 2.579 1.181 4.449 3.052 5.641 5.658zm-3.539 3.491c0-.036.003-.06 0-.083a6.151 6.151 0 0 0-.516-1.764c-1.006-2.106-2.662-3.361-4.957-3.78-.115-.021-.155.011-.186.124-.587 2.169-1.179 4.337-1.77 6.506l-.299 1.103 7.727-2.106z"/></svg>