<svg xmlns="http://www.w3.org/2000/svg" width="48" height="48" viewBox="0 0 48 48"><path d="M24 17.455c-3.614 0-6.545 2.932-6.545 6.545s2.932 6.545 6.545 6.545c3.614 0 6.545-2.932 6.545-6.545S27.613 17.455 24 17.455zm0 8.727c-1.2 0-2.182-.982-2.182-2.182S22.8 21.818 24 21.818s2.182.982 2.182 2.182S25.2 26.182 24 26.182zm17.455-8.727c-3.614 0-6.545 2.932-6.545 6.545s2.932 6.545 6.545 6.545S48 27.613 48 24a6.547 6.547 0 0 0-6.545-6.545zm0 8.727c-1.2 0-2.182-.982-2.182-2.182s.982-2.182 2.182-2.182 2.182.982 2.182 2.182-.982 2.182-2.182 2.182zm-34.91-8.727C2.931 17.455 0 20.387 0 24s2.932 6.545 6.545 6.545S13.09 27.613 13.09 24a6.547 6.547 0 0 0-6.545-6.545zm0 8.727c-1.2 0-2.182-.982-2.182-2.182s.982-2.182 2.182-2.182S8.727 22.8 8.727 24s-.982 2.182-2.182 2.182z"/></svg>