<svg xmlns="http://www.w3.org/2000/svg" width="48" height="48" viewBox="0 0 48 48"><path d="M24 48c13.255 0 24-10.745 24-24S37.255 0 24 0 0 10.745 0 24s10.745 24 24 24zm0-43.5c10.77 0 19.5 8.73 19.5 19.5S34.77 43.5 24 43.5 4.5 34.77 4.5 24 13.23 4.5 24 4.5zM12 15a3 3 0 1 1 6 0 3 3 0 0 1-6 0zm18 0a3 3 0 1 1 6 0 3 3 0 0 1-6 0zm4.036 15h3.04c.433 3.399-1.521 6.775-4.873 7.995-3.886 1.415-8.198-.596-9.613-4.482a4.505 4.505 0 0 0-5.768-2.689A4.507 4.507 0 0 0 13.963 36h-3.04c-.433-3.399 1.521-6.775 4.873-7.995 3.886-1.415 8.199.596 9.613 4.482a4.505 4.505 0 0 0 5.768 2.689A4.506 4.506 0 0 0 34.036 30z"/></svg>