<svg xmlns="http://www.w3.org/2000/svg" width="48" height="48" viewBox="0 0 48 48"><path d="M24 48c13.255 0 24-10.745 24-24S37.255 0 24 0 0 10.745 0 24s10.745 24 24 24zm0-43.5c10.77 0 19.5 8.73 19.5 19.5S34.77 43.5 24 43.5 4.5 34.77 4.5 24 13.23 4.5 24 4.5zm0 23.567c5.435 0 10.605-1.444 15-3.981C38.317 32.45 31.822 39 24 39S9.683 32.444 9 24.08c4.395 2.536 9.565 3.987 15 3.987zM12 16.5c0-2.485 1.343-4.5 3-4.5s3 2.015 3 4.5-1.343 4.5-3 4.5-3-2.015-3-4.5zm18 0c0-2.485 1.343-4.5 3-4.5s3 2.015 3 4.5-1.343 4.5-3 4.5-3-2.015-3-4.5z"/></svg>