<svg xmlns="http://www.w3.org/2000/svg" width="48" height="48" viewBox="0 0 48 48"><path d="M24 48c13.255 0 24-10.745 24-24S37.255 0 24 0 0 10.745 0 24s10.745 24 24 24zm0-43.5c10.77 0 19.5 8.73 19.5 19.5S34.77 43.5 24 43.5 4.5 34.77 4.5 24 13.23 4.5 24 4.5z"/><path d="M18 19.5a1.5 1.5 0 1 1-3.001-.001A1.5 1.5 0 0 1 18 19.5z"/><path d="M16.5 15a4.5 4.5 0 1 1 0 9 4.5 4.5 0 0 1 0-9zm0-3C12.364 12 9 15.364 9 19.5s3.364 7.5 7.5 7.5 7.5-3.364 7.5-7.5-3.364-7.5-7.5-7.5zM33 19.5a1.5 1.5 0 1 1-3.001-.001A1.5 1.5 0 0 1 33 19.5z"/><path d="M31.5 15a4.5 4.5 0 1 1 0 9 4.5 4.5 0 0 1 0-9zm0-3c-4.136 0-7.5 3.364-7.5 7.5s3.364 7.5 7.5 7.5 7.5-3.364 7.5-7.5-3.364-7.5-7.5-7.5zM18 33h12v3H18v-3z"/></svg>