<svg xmlns="http://www.w3.org/2000/svg" width="48" height="48" viewBox="0 0 48 48"><path d="M24 48c13.255 0 24-10.745 24-24S37.255 0 24 0 0 10.745 0 24s10.745 24 24 24zm0-43.5c10.77 0 19.5 8.73 19.5 19.5S34.77 43.5 24 43.5 4.5 34.77 4.5 24 13.23 4.5 24 4.5zm1.441 28.829c6.574-1.299 11.677-4.291 13.521-8.278-1.015 7.873-7.571 13.948-15.509 13.948-5.589 0-10.493-3.013-13.261-7.544 3.3 2.581 9.119 3.085 15.248 1.874zM30 16.5c0-2.485 1.343-4.5 3-4.5s3 2.015 3 4.5-1.343 4.5-3 4.5-3-2.015-3-4.5zm-13.5.914c-1.959 0-3.625.734-4.243 1.758-.166-.275-.257-1.508-.257-1.816 0-1.456 2.015-2.637 4.5-2.637S21 15.9 21 17.356c0 .308-.091 1.541-.257 1.816-.618-1.024-2.284-1.758-4.243-1.758z"/></svg>