<svg xmlns="http://www.w3.org/2000/svg" width="48" height="48" viewBox="0 0 48 48"><path d="M24 48c13.255 0 24-10.745 24-24S37.255 0 24 0 0 10.745 0 24s10.745 24 24 24zm0-43.5c10.77 0 19.5 8.73 19.5 19.5S34.77 43.5 24 43.5 4.5 34.77 4.5 24 13.23 4.5 24 4.5zM37.5 12c.825 0 1.5.675 1.5 1.5V18c0 1.65-1.35 3-3 3h-6c-1.65 0-3-1.35-3-3h-6c0 1.65-1.35 3-3 3h-6c-1.65 0-3-1.35-3-3v-4.5c0-.825.675-1.5 1.5-1.5h9c.825 0 1.5.675 1.5 1.5V15h6v-1.5c0-.825.675-1.5 1.5-1.5h9zM24 36c4.369 0 8.192-2.335 10.291-5.826l2.573 1.544C34.241 36.081 29.462 39 24 39c-2.271 0-4.424-.506-6.353-1.41l1.554-2.591A11.942 11.942 0 0 0 24 36z"/></svg>