<svg xmlns="http://www.w3.org/2000/svg" width="48" height="48" viewBox="0 0 48 48"><path d="M24 48c13.255 0 24-10.745 24-24S37.255 0 24 0 0 10.745 0 24s10.745 24 24 24zm0-43.5c10.77 0 19.5 8.73 19.5 19.5S34.77 43.5 24 43.5 4.5 34.77 4.5 24 13.23 4.5 24 4.5z"/><path d="M30 31.5c0 4.142-2.686 7.5-6 7.5s-6-3.358-6-7.5c0-4.142 2.686-7.5 6-7.5s6 3.358 6 7.5zM19.5 15.938c-.384 0-.768-.146-1.061-.439-.906-.906-2.972-.906-3.879 0a1.5 1.5 0 1 1-2.121-2.121c2.087-2.087 6.034-2.087 8.121 0a1.5 1.5 0 0 1-1.061 2.56zm15 0c-.384 0-.768-.146-1.061-.439-.906-.906-2.973-.906-3.879 0a1.5 1.5 0 1 1-2.121-2.121c2.087-2.087 6.034-2.087 8.121 0a1.5 1.5 0 0 1-1.061 2.56z"/></svg>