<svg xmlns="http://www.w3.org/2000/svg" width="48" height="48" viewBox="0 0 48 48"><path d="M24 48c13.255 0 24-10.745 24-24S37.255 0 24 0 0 10.745 0 24s10.745 24 24 24zm0-43.5c10.77 0 19.5 8.73 19.5 19.5S34.77 43.5 24 43.5 4.5 34.77 4.5 24 13.23 4.5 24 4.5z"/><path d="M37.5 18h-6a1.5 1.5 0 0 1 0-3h6a1.5 1.5 0 0 1 0 3zm-21 0h-6a1.5 1.5 0 0 1 0-3h6a1.5 1.5 0 0 1 0 3zm12 22.125c-.384 0-.768-.146-1.061-.439C27.224 39.471 26.06 39 24 39s-3.225.471-3.439.686a1.5 1.5 0 1 1-2.121-2.121c1.412-1.412 4.359-1.564 5.561-1.564s4.149.152 5.561 1.564a1.5 1.5 0 0 1-1.061 2.56zM34.5 27a1.5 1.5 0 0 1-1.5-1.5v-3a1.5 1.5 0 0 1 3 0v3a1.5 1.5 0 0 1-1.5 1.5zm0 9a1.5 1.5 0 0 1-1.5-1.5v-3a1.5 1.5 0 0 1 3 0v3a1.5 1.5 0 0 1-1.5 1.5zm-21-9a1.5 1.5 0 0 1-1.5-1.5v-3a1.5 1.5 0 0 1 3 0v3a1.5 1.5 0 0 1-1.5 1.5zm0 9a1.5 1.5 0 0 1-1.5-1.5v-3a1.5 1.5 0 0 1 3 0v3a1.5 1.5 0 0 1-1.5 1.5z"/></svg>