<svg xmlns="http://www.w3.org/2000/svg" width="48" height="48" viewBox="0 0 48 48"><path d="M17.171 13.283a18.112 18.112 0 0 0-3.307-1.239 1.5 1.5 0 0 0-.728 2.91c.826.209 1.806.568 2.669 1.001a3 3 0 1 0 5.19 1.881c-.095-2.224-2.119-3.701-3.825-4.553z"/><path d="M24 0C10.745 0 0 10.745 0 24s10.745 24 24 24 24-10.745 24-24S37.255 0 24 0zM11.086 38.609c.502.25 1.067.391 1.664.391h22.5c.597 0 1.162-.141 1.664-.391C33.474 41.652 28.953 43.5 24 43.5s-9.475-1.848-12.914-4.891zM12 35.25v-4.5a.76.76 0 0 1 .75-.75H18v6h-5.25a.76.76 0 0 1-.75-.75zm9 .75v-6h6v6h-6zm9 0v-6h5.25a.76.76 0 0 1 .75.75v4.5a.76.76 0 0 1-.75.75H30zm8.609.914c.25-.502.391-1.067.391-1.664v-4.5A3.754 3.754 0 0 0 35.25 27h-22.5A3.754 3.754 0 0 0 9 30.75v4.5c0 .597.141 1.162.391 1.664A19.425 19.425 0 0 1 4.5 24C4.5 13.23 13.23 4.5 24 4.5S43.5 13.23 43.5 24c0 4.953-1.848 9.475-4.891 12.914z"/><path d="M34.136 12.045c-.068.017-1.678.424-3.307 1.239-1.705.853-3.729 2.329-3.825 4.553a3 3 0 1 0 5.19-1.881 13.792 13.792 0 0 1 2.669-1.001 1.5 1.5 0 1 0-.728-2.91z"/></svg>