<svg xmlns="http://www.w3.org/2000/svg" width="48" height="48" viewBox="0 0 48 48"><path d="M24 48c13.255 0 24-10.745 24-24S37.255 0 24 0 0 10.745 0 24s10.745 24 24 24zm0-43.5c10.77 0 19.5 8.73 19.5 19.5S34.77 43.5 24 43.5 4.5 34.77 4.5 24 13.23 4.5 24 4.5zM12 15a3 3 0 1 1 6 0 3 3 0 0 1-6 0zm18 0a3 3 0 1 1 6 0 3 3 0 0 1-6 0z"/><path d="M31.682 25.318a4.5 4.5 0 1 0-6.191 6.528C29.547 35.526 39 31.76 39 27c-2.906 1.875-5.177.459-7.318-1.682z"/><path d="M16.318 25.318a4.5 4.5 0 1 1 6.191 6.528C18.453 35.526 9 31.76 9 27c2.906 1.875 5.177.459 7.318-1.682z"/></svg>