<svg xmlns="http://www.w3.org/2000/svg" width="51" height="48" viewBox="0 0 51 48"><path d="M0 41.472V6.57c.036-.068.079-.133.106-.205.257-.672.741-1.082 1.44-1.228.687-.143 1.377-.266 2.066-.399 2.057-.399 4.114-.799 6.171-1.198 2.156-.418 4.312-.836 6.468-1.253 2.026-.392 4.052-.781 6.077-1.173 1.544-.299 3.086-.605 4.631-.898.434-.082.858-.239 1.31-.213.67.039 1.196.322 1.532.915.183.324.235.681.235 1.049 0 .877.002 1.754.003 2.631v.172h.197c3.728 0 7.456 0 11.184.001 2.139 0 4.279-.003 6.418.01.35.002.708.046 1.046.134 1.46.38 2.586 1.811 2.583 3.422-.013 6.694-.005 13.387-.005 20.081 0 3.99.014 7.979-.012 11.969-.009 1.389-.707 2.412-1.929 3.064-.584.311-1.227.389-1.882.389H30.051c-.004.052-.008.088-.009.123-.007.753-.011 1.506-.021 2.259-.002.137-.011.277-.039.41-.179.851-1.062 1.472-1.936 1.355-.363-.049-.722-.126-1.082-.195-2.246-.434-4.492-.871-6.738-1.306-2.111-.409-4.222-.818-6.333-1.226-2.066-.399-4.133-.798-6.199-1.196-2.008-.387-4.017-.77-6.023-1.162-.754-.148-1.31-.551-1.576-1.3-.017-.048-.062-.086-.095-.128zM3.64 8.38v31.233c7.594 1.469 15.181 2.936 22.779 4.406V3.978c-7.6 1.469-15.188 2.936-22.779 4.403zm44.233-.012H30.084v3.347h.171c1.639 0 3.278 0 4.917.001.608 0 .78.171.781.777.002 1.157.002 2.314.001 3.471 0 .124-.001.248-.009.372-.022.31-.162.47-.467.522-.126.021-.256.023-.384.023-1.611.002-3.223.002-4.834.002h-.175v1.306h.173c1.662 0 3.324 0 4.986.002.512 0 .703.169.708.676.012 1.193.009 2.387.011 3.581 0 .128-.005.257-.017.385-.026.279-.179.449-.453.491-.14.021-.283.027-.425.027-1.602.003-3.204.003-4.807.004h-.175v1.312h.175c1.639 0 3.278.001 4.917.001.069 0 .138-.001.207.003.358.021.545.209.564.565.005.087.007.174.007.262 0 1.162.001 2.323 0 3.485 0 .096-.001.193-.009.289-.027.33-.189.502-.519.534-.164.016-.33.013-.495.013-1.561.001-3.122.001-4.683.001h-.168v1.32h.179c1.621.001 3.241.001 4.862.002.096 0 .193-.002.289.005.317.021.496.193.53.508.007.068.007.138.007.206.001 1.244.001 2.488-.001 3.732 0 .1-.012.202-.033.3-.041.185-.152.317-.343.353-.143.027-.291.044-.436.044-1.63.003-3.26.001-4.889.001h-.169v3.951h17.795V8.371z"/><path d="M14.067 20.065c.058-.101.102-.175.143-.252.684-1.277 1.372-2.553 2.048-3.834.186-.352.456-.538.848-.594 1.017-.144 2.032-.305 3.048-.457.099-.015.202-.02.302-.009.251.025.388.213.324.456-.033.127-.089.251-.154.365-1.439 2.532-2.878 5.063-4.326 7.59-.15.263-.147.481.001.742 1.528 2.692 3.048 5.388 4.566 8.086.091.161.171.34.2.52.048.296-.13.449-.429.404-.503-.077-1.006-.157-1.509-.235-.616-.096-1.232-.198-1.849-.283-.375-.052-.623-.246-.795-.579-.522-1.01-1.054-2.015-1.583-3.022-.26-.495-.522-.989-.784-1.484-.023-.044-.05-.087-.085-.146-.055.091-.105.17-.152.252-.66 1.16-1.32 2.32-1.98 3.479-.041.072-.085.142-.125.214-.14.254-.354.343-.635.297-.779-.126-1.558-.25-2.336-.376-.054-.009-.108-.022-.16-.041-.249-.089-.331-.262-.237-.51.037-.098.085-.193.135-.286 1.132-2.104 2.262-4.209 3.4-6.309.137-.252.14-.469.005-.723-1.03-1.935-2.051-3.874-3.072-5.813-.066-.125-.127-.255-.171-.389-.077-.234-.011-.376.226-.447.214-.064.437-.103.658-.138.625-.1 1.251-.191 1.877-.287.325-.05.457.008.621.299.391.69.778 1.383 1.166 2.075.22.392.44.784.661 1.175.045.08.093.157.153.257zm27.904-1.876h3.457c.032 0 .064 0 .096.001.442.01.643.188.646.625.009 1.313.008 2.625-.001 3.938-.003.382-.186.555-.568.588-.11.01-.22.009-.33.009-2.217.002-4.435.003-6.652.003-.106 0-.212-.001-.316-.011-.367-.035-.539-.216-.563-.587-.005-.082-.007-.165-.007-.248-.001-1.143-.001-2.286 0-3.429 0-.115.001-.23.013-.344.036-.344.204-.508.549-.537.105-.009.211-.008.316-.008 1.12-.001 2.24 0 3.36 0zm-.024-1.307h-3.305c-.119 0-.239-.001-.358-.011-.339-.03-.514-.206-.543-.545-.009-.105-.012-.211-.012-.316-.001-1.143-.001-2.286 0-3.429 0-.096.004-.193.011-.289.026-.354.2-.533.553-.567.1-.009.202-.008.303-.008h6.776c.083 0 .166 0 .248.008.345.032.521.212.549.556.003.037.004.073.004.11v3.774c0 .046-.002.092-.004.138-.018.357-.187.535-.544.569-.073.007-.147.01-.22.01-1.152.001-2.305 0-3.457 0v.002zm-.007 14.257h3.456c.623 0 .772.143.774.77.004 1.225.001 2.451.001 3.676 0 .028-.001.055-.002.083-.017.404-.16.562-.56.609-.077.009-.156.011-.233.011-2.276 0-4.553 0-6.829-.003-.146 0-.293-.017-.436-.046-.189-.038-.307-.166-.342-.354-.026-.143-.038-.291-.039-.437-.003-1.166-.002-2.331 0-3.497 0-.123.006-.249.03-.369.056-.284.229-.429.517-.438.238-.008.477-.006.716-.006.982-.001 1.964 0 2.947 0v.002zm.025-6.472h3.442c.064 0 .129-.001.193.003.364.02.563.208.568.573.011.808.01 1.615.011 2.423.001.5.003 1.001-.007 1.501-.009.46-.191.643-.651.646-1.216.007-2.432.005-3.649.005-1.129.001-2.258.001-3.387 0-.565 0-.747-.171-.75-.737-.006-1.235-.002-2.469-.002-3.704 0-.023.002-.046.003-.069.023-.453.211-.639.664-.64.918-.003 1.836-.001 2.754-.002h.812v.001z"/></svg>