<svg xmlns="http://www.w3.org/2000/svg" width="48" height="48" viewBox="0 0 48 48"><path d="M23.997 10.296c3.106.027 6.058.741 8.908 1.923 2.793 1.157 5.34 2.736 7.747 4.551a45.533 45.533 0 0 1 6.956 6.519c.069.079.137.16.2.244.263.352.257.665-.032 1.002-.247.291-.502.575-.759.857-2.806 3.096-5.92 5.831-9.496 8.013-2.38 1.453-4.867 2.679-7.564 3.439-1.548.437-3.124.7-4.729.822-1.254.094-2.493 0-3.736-.142-3.705-.425-7.079-1.79-10.26-3.666-4.174-2.462-7.793-5.589-10.944-9.261-.118-.138-.283-.252-.288-.474s.054-.398.201-.572c3.569-4.209 7.737-7.683 12.627-10.263 2.415-1.275 4.962-2.183 7.657-2.655.389-.068.779-.132 1.172-.165.779-.067 1.56-.114 2.34-.169zM43.524 24c-.017-.018-.05-.058-.086-.095-1.975-2.035-4.117-3.876-6.462-5.475-2.396-1.635-4.94-2.973-7.73-3.808-2.928-.876-5.886-1.056-8.884-.41-2.371.511-4.587 1.415-6.7 2.591-3.073 1.71-5.805 3.867-8.313 6.321-.295.289-.594.574-.896.865.06.069.093.108.129.145 1.984 2.046 4.137 3.892 6.496 5.495 2.322 1.578 4.784 2.876 7.474 3.711 3.098.963 6.228 1.139 9.401.407 2.481-.573 4.785-1.575 6.975-2.854 2.829-1.65 5.359-3.686 7.703-5.963.306-.297.591-.617.891-.931z"/><path d="M33.294 19c-.014-.282-.035-.566-.041-.848-.008-.39.299-.59.638-.394.667.381 1.323.783 1.98 1.183.234.143.286.375.277.634a11.54 11.54 0 0 1-.423 2.721c-1.236 4.41-4.752 7.734-9.243 8.664-6.981 1.448-13.053-3.181-14.34-9.325-.15-.717-.189-1.458-.279-2.189-.029-.226.061-.391.259-.51.654-.392 1.306-.788 1.959-1.182.164-.099.33-.133.499-.019.167.112.206.279.188.468a9.286 9.286 0 0 0 6.486 9.736c5.258 1.65 10.869-1.719 11.871-7.136.109-.593.138-1.2.206-1.8a.445.445 0 0 1-.036-.005z"/></svg>