<svg xmlns="http://www.w3.org/2000/svg" width="48" height="48" viewBox="0 0 48 48"><path d="M40.301.041c.274.032.549.059.822.098 3.073.447 5.544 2.583 6.447 5.565.292.963.435 1.946.373 2.952a7.163 7.163 0 0 1-1.478 3.968c-.301.396-.634.772-.99 1.119-2.123 2.07-4.256 4.128-6.387 6.19-.033.032-.071.058-.137.111.242.231.467.444.689.659.162.158.319.321.481.48.532.523.58 1.268.118 1.854-.044.056-.091.11-.141.16-1.443 1.445-2.885 2.891-4.329 4.335-.298.298-.649.487-1.081.489a1.426 1.426 0 0 1-1.018-.425c-.378-.363-.745-.738-1.116-1.107-.032-.032-.065-.062-.105-.1-.045.042-.084.078-.122.116-3.602 3.555-7.206 7.109-10.806 10.667a1629.79 1629.79 0 0 0-4.57 4.539c-.836.833-1.811 1.416-2.97 1.671-.452.099-.91.145-1.372.144-.356-.001-.713-.008-1.069.007-.602.026-1.139.245-1.637.579-1.594 1.069-3.188 2.138-4.789 3.196-.345.228-.717.414-1.077.619a.154.154 0 0 1-.069.026c-.309.008-.626.043-.896-.157-.198-.147-.404-.288-.579-.459-.612-.598-1.212-1.207-1.816-1.813-.232-.233-.451-.481-.56-.796-.1-.29-.109-.583.03-.875.282-.589.657-1.12 1.016-1.66.902-1.358 1.803-2.716 2.713-4.069a3.39 3.39 0 0 0 .605-2.048c-.019-.62-.024-1.241.061-1.858.153-1.105.606-2.076 1.311-2.932.157-.191.325-.373.5-.548 4.969-4.976 9.939-9.951 14.91-14.925.103-.103.215-.198.331-.304-.032-.034-.061-.067-.093-.099-.324-.322-.653-.64-.97-.969a2.66 2.66 0 0 1-.365-.462c-.283-.468-.279-.948.008-1.414a2.25 2.25 0 0 1 .317-.404c1.404-1.413 2.811-2.823 4.222-4.229.132-.132.286-.248.446-.344.44-.261.895-.265 1.337-.011.172.099.332.228.477.365.298.283.583.58.871.872.032.032.052.076.082.121.058-.055.088-.082.116-.112 2.014-2.095 4.031-4.187 6.041-6.285C35.277 1.292 36.714.496 38.411.177c.3-.056.606-.077.91-.115.05-.006.1-.015.15-.022h.83zM3.917 44.628c.922-.616 1.83-1.224 2.741-1.829.719-.477 1.433-.963 2.164-1.421a4.278 4.278 0 0 1 2.036-.657c.636-.038 1.271-.083 1.907-.117.86-.046 1.573-.384 2.185-.995 2.033-2.029 4.079-4.045 6.122-6.063 3.081-3.044 6.165-6.086 9.247-9.129l.074-.078-6.819-6.792c-.136.151-.257.299-.392.434-4.923 4.932-9.847 9.864-14.774 14.792-.719.719-1.073 1.566-1.043 2.587.017.56.011 1.126-.045 1.683-.098.987-.489 1.871-1.04 2.691-.945 1.409-1.882 2.824-2.822 4.237-.022.034-.042.069-.066.108l.523.55zm33.042-26.865c.06-.055.095-.084.127-.116.583-.561 1.167-1.121 1.748-1.685 1.559-1.512 3.121-3.022 4.674-4.54.584-.571 1.018-1.243 1.247-2.036.258-.894.189-1.78-.049-2.666-.708-2.634-3.173-3.887-5.463-3.603-1.161.144-2.142.657-2.952 1.503-1.451 1.513-2.906 3.023-4.359 4.534-.581.604-1.161 1.21-1.719 1.792l6.746 6.817zm.072 4.351L25.854 10.975l-2.324 2.35 11.182 11.131 2.319-2.341z"/></svg>