<svg xmlns="http://www.w3.org/2000/svg" width="48" height="48" viewBox="0 0 48 48"><path d="M37.091 13.091c1.2 0 2.182-.982 2.182-2.182V2.182c0-1.2-.982-2.182-2.182-2.182h-6.545c-7.214 0-13.091 5.877-13.091 13.091v4.364h-4.364c-1.2 0-2.182.982-2.182 2.182v8.727c0 1.2.982 2.182 2.182 2.182h4.364v15.273c0 1.2.982 2.182 2.182 2.182h8.727c1.2 0 2.182-.982 2.182-2.182V30.546h4.364c.995 0 1.868-.682 2.114-1.65l2.182-8.727a2.183 2.183 0 0 0-2.113-2.713h-6.545v-4.364h6.545zm-8.727 8.727h5.932l-1.091 4.364h-4.841c-1.2 0-2.182.982-2.182 2.182v15.273h-4.364V28.364c0-1.2-.982-2.182-2.182-2.182h-4.364v-4.364h4.364c1.2 0 2.182-.982 2.182-2.182v-6.545c0-4.814 3.914-8.727 8.727-8.727h4.364v4.364h-4.364a4.377 4.377 0 0 0-4.364 4.364v6.545c0 1.2.982 2.182 2.182 2.182z"/></svg>