<svg xmlns="http://www.w3.org/2000/svg" width="48" height="48" viewBox="0 0 48 48"><path d="M48 14.981v29.672c-.106.21-.196.431-.323.629-.224.349-.592.503-.958.652H1.292C.3 45.597-.002 44.882-.001 43.871c.018-13.303.012-26.607.012-39.91 0-.111-.002-.223.001-.334.011-.365.102-.72.373-.961.269-.238.602-.404.906-.601h6.458c.111.043.225.079.331.13.686.328.978.881.977 1.634-.006 5.881-.003 11.762-.003 17.643v.387c.133-.09.21-.14.285-.193l6.122-4.35c1.534-1.09 3.07-2.179 4.601-3.273.423-.302.881-.432 1.391-.31.768.184 1.225.794 1.227 1.637.004 2.05.001 4.1.001 6.15v.346c.137-.095.219-.151.3-.209 3.56-2.53 7.121-5.057 10.677-7.591.571-.407 1.169-.521 1.8-.192.621.324.862.872.858 1.564-.011 1.92-.004 3.84-.004 5.76v.343c.112-.082.186-.131.254-.188l6.318-5.24c.821-.681 1.633-1.372 2.466-2.038.962-.77 2.231-.364 2.596.812.01.033.034.061.052.092zm-3.226 27.755V18.713c-.103.08-.176.133-.244.19-2.885 2.391-5.771 4.782-8.654 7.177-.315.262-.655.453-1.071.476-.957.051-1.683-.67-1.686-1.693-.006-2.032-.002-4.064-.002-6.095v-.388c-.136.095-.216.149-.296.206-3.56 2.53-7.122 5.057-10.68 7.591-.571.407-1.169.524-1.8.193-.62-.325-.861-.872-.858-1.565.011-2.022.004-4.045.004-6.068v-.355c-.125.086-.207.14-.286.196-3.568 2.535-7.137 5.069-10.703 7.607-.562.4-1.154.512-1.776.191s-.872-.864-.871-1.557c.006-6.337.004-12.673.005-19.01v-.538H3.232v37.466h41.542z"/><path d="M19.461 34.662v-3.7c.001-.885.451-1.338 1.331-1.338H26.3c.846 0 1.311.461 1.311 1.303v7.427c0 .85-.454 1.305-1.304 1.306-1.845.002-3.69.002-5.535 0-.866-.001-1.309-.45-1.31-1.326v-3.672zm5.825 2.693v-5.423h-3.501v5.423h3.501zm15.952-2.692v3.644c-.001.919-.429 1.352-1.337 1.353h-5.48c-.886-.001-1.33-.447-1.33-1.335v-7.371c0-.878.456-1.329 1.341-1.329h5.508c.832 0 1.296.456 1.298 1.284.003 1.252.001 2.503.001 3.755zm-2.319-2.735h-3.498v5.426h3.498v-5.426zm-33.081 2.7c0-1.233-.001-2.466.001-3.699.001-.852.453-1.304 1.302-1.305h5.535c.843 0 1.304.463 1.304 1.309v7.427c0 .847-.455 1.299-1.308 1.3-1.845.002-3.69.002-5.535 0-.857-.001-1.297-.444-1.298-1.304-.002-1.242 0-2.485 0-3.727zm2.311 2.727h3.509v-5.424H8.149v5.424z"/></svg>