<svg xmlns="http://www.w3.org/2000/svg" width="48" height="48" viewBox="0 0 48 48"><path d="M47.161 22.281L27.519 7.004c-.655-.518-1.555-.6-2.305-.232s-1.228 1.132-1.228 1.964V39.29c0 .832.477 1.596 1.228 1.964.3.15.627.218.955.218.477 0 .955-.15 1.337-.464l19.642-15.277c.532-.409.846-1.05.846-1.719s-.3-1.323-.832-1.732zM28.365 34.817V13.184l13.899 10.817-13.899 10.817z"/><path d="M23.154 22.281L3.512 7.004c-.655-.518-1.541-.614-2.292-.246S-.008 7.89-.008 8.722v30.554c0 .832.477 1.596 1.228 1.964.3.15.627.218.955.218.477 0 .955-.15 1.337-.464l19.642-15.277c.532-.409.846-1.05.846-1.719s-.314-1.309-.846-1.719zM4.358 34.817V13.184l13.899 10.817L4.358 34.818z"/></svg>