<svg xmlns="http://www.w3.org/2000/svg" width="48" height="48" viewBox="0 0 48 48"><path d="M32.677.088a15.13 15.13 0 0 0-10.754 4.454L7.258 19.207a2.18 2.18 0 0 0-.638 1.534v17.571L.741 44.191a2.18 2.18 0 0 0 0 3.069c.421.421.978.638 1.534.638s1.113-.217 1.534-.638l5.879-5.879h17.571c.584 0 1.127-.231 1.534-.638l14.638-14.692a15.097 15.097 0 0 0 4.454-10.754C47.899 6.905 41.069.089 32.677.089zm-6.314 36.947H14.047l4.345-4.345h12.302l-4.332 4.345zm13.999-14.053l-5.35 5.363H22.724l11.501-11.501c.842-.842.842-2.227 0-3.069s-2.227-.842-3.069 0L10.965 33.966V21.65L24.992 7.61a10.794 10.794 0 0 1 7.685-3.177c5.988 0 10.876 4.875 10.876 10.876 0 2.892-1.141 5.621-3.191 7.672z"/></svg>