<svg xmlns="http://www.w3.org/2000/svg" width="35" height="48" viewBox="0 0 35 48"><path d="M17.647 0c-9.741 0-17.647 7.906-17.647 17.647 0 9.035 6.776 16.447 15.529 17.506v2.965h-3.529c-1.2 0-2.118 0.918-2.118 2.118s0.918 2.118 2.118 2.118h3.529v3.529c0 1.2 0.918 2.118 2.118 2.118s2.118-0.918 2.118-2.118v-3.529h3.529c1.2 0 2.118-0.918 2.118-2.118s-0.918-2.118-2.118-2.118h-3.529v-2.965c8.753-1.059 15.529-8.471 15.529-17.506 0-9.741-7.906-17.647-17.647-17.647zM17.647 4.235c7.412 0 13.412 6 13.412 13.412s-6 13.412-13.412 13.412-13.412-6-13.412-13.412 6-13.412 13.412-13.412z"></path></svg>