<svg xmlns="http://www.w3.org/2000/svg" width="48" height="48" viewBox="0 0 48 48"><path d="M6.57 0h22.918c.066.026.129.06.198.074.994.203 1.837.67 2.553 1.395 3.55 3.595 7.107 7.183 10.662 10.776.121.123.244.246.354.381.706.864 1.101 1.854 1.101 2.972.006 9.625.002 19.252.009 28.878 0 .464-.086.899-.242 1.326a3.359 3.359 0 0 1-3.151 2.2c-11.306 0-22.611 0-33.918-.003-.249 0-.504-.029-.748-.083-1.593-.355-2.674-1.713-2.674-3.342 0-13.739 0-27.479.003-41.217 0-.19.021-.386.062-.573C3.991 1.437 4.798.552 6.112.135c.151-.048.304-.09.457-.134zm.45 23.998h-.002c0 6.44 0 12.879.002 19.319 0 .166.008.333.029.498.054.447.306.695.755.739.178.018.36.018.54.018 10.427.002 20.852 0 31.278 0 .147 0 .294.003.44 0 .547-.015.877-.336.906-.883.005-.087.003-.174.003-.259V18.291c0-.875-.27-1.146-1.148-1.146l-7.639-.001c-.567 0-1.134.009-1.7-.026-1.491-.088-2.826-1.302-3.024-2.785-.082-.618-.071-1.249-.072-1.875-.008-2.667-.003-5.332-.006-7.999-.002-.738-.293-1.023-1.035-1.026H8.169c-.106 0-.213-.003-.319.001a.814.814 0 0 0-.798.726 3.948 3.948 0 0 0-.027.498c-.002 6.446-.002 12.893-.002 19.338zM30.785 5.149v3.609c0 1.313-.002 2.626.003 3.939.003.723.303 1.017 1.027 1.019h7.098c.094 0 .191-.012.328-.021l-8.457-8.544z"/></svg>