<svg xmlns="http://www.w3.org/2000/svg" width="48" height="48" viewBox="0 0 48 48"><path d="M13.091.002q1.806 0 3.886.452t4.005 1.091l3.852 1.278 4.005 1.091 3.886.452q1.841 0 3.631-.221t3.052-.545 2.258-.648 1.491-.545l.478-.221v30.543q-.17.085-.512.231t-1.44.529-2.292.664-3.009.52-3.655.239q-1.806 0-3.886-.452t-4.005-1.091l-3.852-1.278L16.979 31l-3.886-.452q-3.256 0-6.545.733v14.538q0 .903-.64 1.543t-1.543.64-1.543-.64-.64-1.543V2.186q.17-.085.512-.231t1.44-.529T6.426.762t3.009-.52T13.09.003zm0 4.363q-3.341 0-6.545.869v21.595q3.272-.648 6.545-.648 2.42 0 4.84.555t5.506 1.577q.393.136 1.474.502t1.585.529 1.474.443 1.628.409 1.509.239 1.62.111q3.341 0 6.545-.869V8.082Q36 8.73 32.727 8.73q-2.42 0-4.84-.555t-5.506-1.577q-.393-.136-1.474-.502t-1.585-.529-1.474-.443-1.628-.409-1.509-.239-1.62-.111z"/></svg>