<svg xmlns="http://www.w3.org/2000/svg" width="48" height="48" viewBox="0 0 48 48"><path d="M4.2 0C1.904 0 0 1.904 0 4.2v39.6C0 46.096 1.904 48 4.2 48h39.6c2.296 0 4.2-1.904 4.2-4.2V11.4a1.8 1.8 0 0 0-.525-1.275l-9.6-9.6A1.8 1.8 0 0 0 36.6 0H4.2zm0 3.6H9v15a1.8 1.8 0 0 0 1.8 1.8h24a1.8 1.8 0 0 0 1.8-1.8V4.35l7.8 7.8V43.8c0 .364-.236.6-.6.6H4.2c-.364 0-.6-.236-.6-.6V4.2c0-.364.236-.6.6-.6zm8.4 0H33v13.2H12.6V3.6zm11.4 21c-4.286 0-7.8 3.514-7.8 7.8s3.514 7.8 7.8 7.8 7.8-3.514 7.8-7.8-3.514-7.8-7.8-7.8zm0 3.6c2.341 0 4.2 1.859 4.2 4.2s-1.859 4.2-4.2 4.2-4.2-1.859-4.2-4.2 1.859-4.2 4.2-4.2z"/></svg>