<svg xmlns="http://www.w3.org/2000/svg" width="57" height="48" viewBox="0 0 57 48"><path d="M56.168 11.412c-.415-.415-.968-.83-1.522-1.037V7.401c0-2.144-1.729-3.873-3.804-3.873H27.049L23.937.761A3.194 3.194 0 0 0 21.862 0H6.577C4.502 0 2.773 1.729 2.773 3.873v6.501c-.553.208-1.107.622-1.522 1.037-.83.899-1.314 2.075-1.245 3.251l1.176 29.049c.069 2.421 2.075 4.288 4.496 4.288h45.994c2.421 0 4.426-1.867 4.496-4.288l1.176-29.049c.138-1.245-.346-2.421-1.176-3.251zM6.577 3.389h15.147l3.527 3.112c.346.277.692.415 1.176.415h24.415c.208 0 .346.208.346.415v2.628H6.231V3.803c0-.208.138-.415.346-.415zm46.202 40.184c0 .553-.484.968-1.037.968H5.679c-.553 0-1.037-.415-1.037-.968L3.466 14.524c0-.346.138-.622.277-.761.208-.208.484-.346.761-.346h48.415c.277 0 .553.138.761.346.138.138.277.346.277.761l-1.176 29.049z"/></svg>