<svg xmlns="http://www.w3.org/2000/svg" width="57" height="48" viewBox="0 0 57 48"><path d="M52.128 48H5.232c-.069-.016-.138-.037-.208-.046-2.084-.258-3.73-2.028-3.83-4.131-.065-1.365-.12-2.731-.176-4.097C.857 35.78.697 31.834.539 27.888c-.152-3.778-.3-7.557-.452-11.335-.019-.478-.057-.955-.086-1.432v-1.104c.016-.061.036-.121.047-.183.29-1.529 1.119-2.66 2.511-3.361.172-.086.222-.175.222-.359-.005-2.135-.019-4.269.005-6.404C2.805 2.017 4.067.488 5.708.103L6.145 0h16.08c.037.013.074.033.112.039a3.205 3.205 0 0 1 1.704.814c.923.828 1.856 1.644 2.776 2.476.161.146.32.2.534.2 7.752-.005 15.503-.005 23.255-.003.279 0 .563.005.836.055 1.877.344 3.17 1.885 3.191 3.798.01.912.008 1.824-.002 2.736-.002.186.055.271.224.358 1.257.648 2.156 1.609 2.419 3.034.098.533.056 1.097.038 1.646-.059 1.783-.135 3.565-.207 5.347l-.318 7.768c-.087 2.15-.17 4.3-.257 6.45-.121 2.981-.255 5.962-.362 8.943-.071 1.952-1.324 3.604-3.201 4.148-.274.08-.557.128-.836.191zM41.735 13.419c.043.135.071.225.101.315.663 1.984 1.328 3.968 1.989 5.952.311.934-.214 1.658-1.2 1.659-2.232.002-4.464.001-6.696 0-1-.001-1.524-.726-1.209-1.672l1.975-5.932c.032-.095.059-.192.1-.323h-.274l-31.895.002c-.739 0-1.186.455-1.161 1.19.029.871.07 1.742.105 2.614l.319 7.816.256 6.402c.106 2.629.213 5.259.321 7.888.058 1.423.116 2.845.18 4.268.02.449.299.787.733.897.153.038.316.047.474.047 15.232.002 30.463.002 45.695.001.08 0 .16.002.24-.002.561-.032.953-.424.977-.983.073-1.718.146-3.436.216-5.155.178-4.364.354-8.728.53-13.091l.43-10.622c.034-.833-.385-1.271-1.22-1.271H41.734zm9.444-3.471v-2.45c0-.497-.088-.584-.588-.584-8.016 0-16.031-.002-24.047.004-.52 0-.974-.131-1.366-.479-1.084-.96-2.172-1.915-3.254-2.877a.621.621 0 0 0-.447-.175c-4.904.005-9.808.004-14.711.004-.428 0-.53.104-.53.542v6.015h44.943zm-11.884 3.491l-.077-.012-1.822 5.568h3.739l-1.84-5.556z"/><path d="M41.588 27.167c-.376 0-.752.003-1.128-.001-.663-.007-1.176-.496-1.194-1.13a1.144 1.144 0 0 1 1.124-1.193c.799-.026 1.6-.025 2.399-.001.681.021 1.151.547 1.131 1.207-.019.63-.535 1.11-1.205 1.116-.376.004-.752.001-1.128.001zm.001 4.657c-.384 0-.768.004-1.152-.001a1.167 1.167 0 0 1-1.171-1.127c-.018-.632.45-1.168 1.099-1.189a37.67 37.67 0 0 1 2.447-.002c.666.021 1.128.551 1.108 1.203-.019.622-.529 1.107-1.18 1.115-.384.005-.768.001-1.152.001zm-3.501 4.658c.384 0 .768-.004 1.152.001.656.008 1.162.485 1.184 1.11.022.657-.428 1.185-1.098 1.21-.815.031-1.632.029-2.447 0a1.143 1.143 0 0 1-1.108-1.185c.022-.642.528-1.127 1.19-1.136.376-.005.752-.001 1.128-.001zm.007-4.658c.384 0 .768-.004 1.152.001.654.008 1.158.489 1.177 1.116.019.656-.438 1.181-1.106 1.202-.815.026-1.632.026-2.447-.002a1.143 1.143 0 0 1-1.101-1.189 1.168 1.168 0 0 1 1.173-1.127c.384-.006.768-.001 1.152-.001zm.008-6.991c-.376 0-.752.005-1.128-.001-.694-.012-1.208-.513-1.205-1.165.003-.654.524-1.153 1.214-1.157.744-.004 1.488-.003 2.231 0 .699.003 1.206.49 1.209 1.154.003.668-.492 1.155-1.195 1.168-.376.007-.752.001-1.128.001zm.008 2.334c.384 0 .768-.004 1.152.001.649.009 1.149.499 1.161 1.13.012.645-.448 1.166-1.098 1.185-.815.023-1.632.022-2.447 0a1.143 1.143 0 0 1-1.109-1.181 1.167 1.167 0 0 1 1.165-1.133c.392-.006.784-.001 1.176-.001zm3.478 11.649c.376 0 .752-.005 1.128.001.713.012 1.214.507 1.205 1.184-.009.654-.525 1.135-1.228 1.138-.736.003-1.472.003-2.207 0-.694-.003-1.213-.495-1.22-1.149-.006-.659.5-1.16 1.195-1.172.376-.007.752-.001 1.128-.001zm-.014-2.335c-.384 0-.768.005-1.152-.001a1.163 1.163 0 0 1-1.157-1.14c-.011-.623.458-1.154 1.09-1.173a41.546 41.546 0 0 1 2.471 0c.647.019 1.109.548 1.094 1.191a1.156 1.156 0 0 1-1.147 1.122c-.4.007-.8.001-1.2.001zm-3.473 6.768c-.56 0-1.119.008-1.679-.007a.513.513 0 0 1-.328-.143c-.329-.351-.416-.769-.237-1.22.183-.46.541-.72 1.031-.733a47.7 47.7 0 0 1 2.422-.001c.49.012.851.273 1.032.731.172.437.104.855-.22 1.202a.575.575 0 0 1-.366.161c-.551.017-1.103.007-1.655.007z"/></svg>