<svg xmlns="http://www.w3.org/2000/svg" width="56" height="48" viewBox="0 0 56 48"><path d="M10.219 38.942H8.671c-.852 0-1.548.697-1.548 1.548s.697 1.548 1.548 1.548h1.548c.852 0 1.548-.697 1.548-1.548s-.697-1.548-1.548-1.548zm7.433 0h-1.548c-.852 0-1.548.697-1.548 1.548s.697 1.548 1.548 1.548h1.548c.852 0 1.548-.697 1.548-1.548s-.697-1.548-1.548-1.548zm7.432 0h-1.548c-.852 0-1.548.697-1.548 1.548s.697 1.548 1.548 1.548h1.548c.852 0 1.548-.697 1.548-1.548s-.697-1.548-1.548-1.548zm7.432 0h-1.548c-.852 0-1.548.697-1.548 1.548s.697 1.548 1.548 1.548h1.548c.852 0 1.548-.697 1.548-1.548s-.697-1.548-1.548-1.548zM19.045 6.735c-.31-.387-.697-.542-1.161-.542h-4.103c-.852 0-1.548.697-1.548 1.548v10.916c0 .852.697 1.548 1.548 1.548h13.084c1.316 0 2.013-1.548 1.239-2.555L19.046 6.734zM15.252 17.11V9.291h1.858l6.426 7.819h-8.284z"/><path d="M55.742 8.594c0-.232-.077-.542-.155-.774l-2.942-5.497c-.465-.852-1.703-1.161-2.555-.31L34.684 19.587v-2.942c0-.387-.155-.697-.387-1.006L21.91.542C21.6.155 21.213 0 20.749 0H7.51c-.852 0-1.548.697-1.548 1.548v31.587C2.556 33.832.001 36.929.001 40.49c0 4.181 3.406 7.51 7.51 7.51h26.09c4.181 0 7.51-3.406 7.51-7.51 0-3.716-2.787-6.89-6.348-7.432l17.806-20.361v15.484c0 .774-.619 1.316-1.316 1.316a1.305 1.305 0 0 1-1.316-1.316v-2.71c0-.852-.697-1.548-1.548-1.548s-1.548.697-1.548 1.548v2.71a4.411 4.411 0 0 0 4.413 4.413 4.411 4.411 0 0 0 4.413-4.413l.077-19.587zM9.058 3.097h10.916l11.535 14.09v15.716H9.057V3.097zM38.09 40.49a4.411 4.411 0 0 1-4.413 4.413H7.509a4.411 4.411 0 0 1-4.413-4.413 4.411 4.411 0 0 1 4.413-4.413h26.09c2.477-.077 4.49 1.935 4.49 4.413zm-3.406-12.077V24.31L50.942 5.807l1.394 2.555-17.652 20.052z"/></svg>