<svg xmlns="http://www.w3.org/2000/svg" width="28" height="48" viewBox="0 0 28 48"><path d="M19.747 48H8.023c-.028-.014-.055-.033-.084-.041-.78-.217-1.251-.797-1.202-1.603.034-.562.098-1.142.274-1.672.763-2.31 2.415-3.705 4.695-4.418.203-.064.412-.109.613-.161.006-.045.013-.068.013-.092.001-4.236 0-8.472.004-12.709 0-.142-.06-.176-.186-.219-.678-.235-1.378-.432-2.019-.746-1.77-.868-3.145-2.212-4.329-3.763-1.574-2.062-2.685-4.368-3.545-6.802-.894-2.528-1.475-5.13-1.832-7.785a48.138 48.138 0 0 1-.424-6.393C.001.832.454.249 1.189.044c.037-.01.072-.03.108-.046h25.177c.247.123.511.221.738.375.317.216.448.569.56.922v1.778c-.012.086-.032.172-.035.259a45.889 45.889 0 0 1-.539 5.684c-.465 2.941-1.206 5.806-2.369 8.552-.986 2.328-2.225 4.504-3.977 6.352-1.43 1.509-3.082 2.668-5.144 3.145-.211.049-.275.126-.275.345.008 4.123.006 8.246.006 12.369v.262c.107.029.19.054.274.075a7.278 7.278 0 0 1 2.538 1.157c1.751 1.27 2.753 2.955 2.791 5.153.012.717-.453 1.315-1.14 1.516-.053.015-.103.037-.155.055zM3.084 3.127c0 .117-.009.22.001.321.087.828.166 1.656.271 2.482.345 2.726.882 5.413 1.688 8.043.656 2.14 1.471 4.213 2.692 6.104.762 1.181 1.653 2.247 2.846 3.018 1.523.984 3.163 1.324 4.925.775 1.248-.389 2.248-1.17 3.136-2.105 1.373-1.446 2.366-3.141 3.163-4.953 1.898-4.316 2.716-8.866 2.899-13.55.002-.044-.013-.089-.019-.13h-6.768c.017.064.028.109.042.154.296.929.594 1.858.887 2.788.178.563.083 1.069-.311 1.521-.915 1.05-1.823 2.107-2.74 3.156-.103.118-.127.218-.081.364.096.305.176.615.261.923.395 1.433.796 2.865 1.181 4.301.128.476.026.926-.281 1.313-.393.495-.922.684-1.536.579-.697-.12-1.074-.598-1.257-1.242-.551-1.946-1.081-3.898-1.642-5.841-.188-.649-.053-1.188.371-1.693.849-1.012 1.684-2.036 2.531-3.05.095-.114.107-.208.062-.344a156.3 156.3 0 0 1-.88-2.689c-.06-.19-.133-.26-.342-.259-3.62.007-7.239.005-10.859.006-.078 0-.156.007-.241.011zm14.389 41.69c-1.005-1.409-2.363-1.919-3.971-1.802-1.31.095-2.387.666-3.181 1.802h7.151z"/></svg>