<svg version="1.1" xmlns="http://www.w3.org/2000/svg" width="48" height="48" viewBox="0 0 48 48"><path d="M21.6 33.6c-4.080 0-7.2-3.12-7.2-7.2 0-1.44-0.96-2.4-2.4-2.4s-2.4 0.96-2.4 2.4c0 6.72 5.28 12 12 12 1.44 0 2.4-0.96 2.4-2.4s-0.96-2.4-2.4-2.4z"></path><path d="M47.28 7.92c-6.48-7.2-16.080-8.4-23.28-3.6v-1.92c0-1.44-0.96-2.4-2.4-2.4s-2.4 0.96-2.4 2.4v2.4c-10.8 1.44-19.2 10.56-19.2 21.6 0 12 9.6 21.6 21.6 21.6s21.6-9.6 21.6-21.6c0-3.6-0.96-7.2-2.4-10.32 2.4-1.2 4.8-2.88 6.48-4.8 0.96-0.96 0.96-2.4 0-3.36zM21.6 43.2c-9.6 0-16.8-7.2-16.8-16.8 0-8.4 6.24-15.36 14.4-16.8 0 3.12 8.64 9.12 16.8 7.92 1.44 2.4 2.4 5.76 2.4 8.88 0 9.6-7.2 16.8-16.8 16.8zM24.96 9.6c5.52-4.8 12-4.080 16.8 0-4.8 4.32-12 4.32-16.8 0z"></path></svg>