<svg xmlns="http://www.w3.org/2000/svg" width="67" height="48" viewBox="0 0 67 48"><path d="M33.694 0a2.249 2.249 0 0 0-2.225 2.271V18.03h-2.74c-3.055-2.754-7.07-4.496-11.497-4.496-9.491 0-17.233 7.742-17.233 17.233S7.741 48 17.232 48c4.426 0 8.442-1.741 11.497-4.496h9.975C41.759 46.258 45.774 48 50.201 48c9.491 0 17.233-7.742 17.233-17.233s-7.742-17.233-17.233-17.233c-4.426 0-8.442 1.741-11.497 4.496h-2.74V2.295A2.248 2.248 0 0 0 33.693.001zM17.233 18.029c3.576 0 6.77 1.456 9.085 3.817a2.245 2.245 0 0 0 1.616.679h11.567a2.247 2.247 0 0 0 1.616-.679 12.641 12.641 0 0 1 9.085-3.817c7.061 0 12.738 5.676 12.738 12.738s-5.676 12.738-12.738 12.738c-3.576 0-6.77-1.456-9.085-3.817a2.243 2.243 0 0 0-1.616-.679H27.934a2.247 2.247 0 0 0-1.616.679 12.64 12.64 0 0 1-9.085 3.817c-7.061 0-12.738-5.676-12.738-12.738s5.676-12.738 12.738-12.738zm-.023 5.948a2.249 2.249 0 0 0-2.225 2.271v2.272h-2.248a2.252 2.252 0 1 0 0 4.496h2.248v2.248a2.249 2.249 0 0 0 4.496.064v-2.312h2.248a2.249 2.249 0 0 0 .064-4.496h-2.312v-2.248a2.248 2.248 0 0 0-2.271-2.294zm36.737.046a2.997 2.997 0 1 0 0 5.995 2.997 2.997 0 0 0 0-5.995zm-7.492 7.493a2.997 2.997 0 1 0 0 5.995 2.997 2.997 0 0 0 0-5.995z"/></svg>