<svg xmlns="http://www.w3.org/2000/svg" width="48" height="48" viewBox="0 0 48 48"><path d="M0 19.632v-5.424c.041-.186.077-.373.123-.557.485-1.941 2.157-3.241 4.194-3.245 2.815-.006 5.629-.002 8.444-.002h.309c-.044-.091-.068-.147-.097-.199-.743-1.321-.99-2.743-.816-4.235.33-2.836 2.401-5.135 5.195-5.792.309-.073.624-.119.936-.178h1.152c.053.014.106.035.16.041 1.682.188 3.091.913 4.236 2.156.052.057.089.129.121.177.062-.031.071-.033.076-.038l.131-.139A6.542 6.542 0 0 1 27.436.218c.369-.094.749-.146 1.124-.217h1.152c.053.014.105.036.158.042 1.851.221 3.374 1.053 4.535 2.505 1.743 2.18 1.979 5.185.632 7.635-.033.06-.061.123-.11.221h.311c2.871.001 5.741-.014 8.612.008 1.831.014 3.432 1.254 3.961 3.009.078.258.127.525.189.788v5.424c-.015.06-.035.12-.045.181-.239 1.49-1.038 2.57-2.393 3.227-.206.1-.262.209-.262.427.006 5.756.005 11.512.005 17.267 0 1.007.008 2.015-.002 3.022a4.27 4.27 0 0 1-3.276 4.128c-.168.041-.338.077-.507.116H6.48c-.367-.101-.747-.17-1.099-.309-1.653-.649-2.686-2.219-2.686-4.057-.001-6.71-.002-13.419.006-20.129 0-.248-.063-.368-.293-.481-1.212-.597-1.969-1.571-2.3-2.878-.043-.169-.072-.342-.108-.514zm42.126 3.838H29.981v21.283h10.887c.08 0 .16 0 .24-.005.43-.027.786-.294.897-.708.065-.243.116-.5.116-.75.006-6.503.005-13.006.005-19.509v-.309zm-36.18-.004v20.118c0 .783.38 1.168 1.157 1.168h10.728c.084 0 .168-.007.248-.011V23.465H5.946zm20.768.003h-5.351v21.262h5.351V23.469zm-8.691-3.262V13.64H4.413c-.771 0-1.165.394-1.166 1.166v4.222c0 .792.386 1.179 1.174 1.179h13.602zm11.953 0H43.61c.741 0 1.141-.398 1.142-1.139.002-1.431.002-2.863 0-4.294-.001-.735-.407-1.134-1.15-1.134H29.976v6.567zm-7.602-9.818v-.247c0-1.104.001-2.208-.001-3.312 0-.16.002-.321-.018-.479C22.107 4.384 20.322 3 18.39 3.274a3.552 3.552 0 0 0-3.003 4.077c.285 1.811 1.703 3.038 3.536 3.051 1.072.007 2.144.002 3.216.001.07 0 .14-.008.235-.014zm3.252-.003c.066.008.096.016.127.016 1.152 0 2.305.03 3.455-.008 2.288-.076 3.863-2.156 3.353-4.39-.406-1.782-2.018-2.927-3.85-2.736-1.726.18-3.069 1.691-3.085 3.478-.006.728-.001 1.456-.001 2.184v1.456zm-4.258 3.266v6.539h5.342v-6.539h-5.342z"/></svg>