<svg xmlns="http://www.w3.org/2000/svg" width="48" height="48" viewBox="0 0 48 48"><path d="M24 0q.614 0 .92.017 3.17.119 6.162 1.048t5.531 2.497 4.662 3.776 3.597 4.798 2.301 5.634T48 24t-.827 6.23-2.301 5.634-3.597 4.798-4.662 3.776-5.531 2.497-6.162 1.048Q24.613 48 24 48t-.92-.017q-3.17-.119-6.162-1.048t-5.531-2.497-4.662-3.776-3.597-4.798T.827 30.23 0 24t.827-6.23 2.301-5.634 3.597-4.798 4.662-3.776 5.531-2.497T23.08.017Q23.387 0 24 0zM13.176 26.182H4.483q.682 6.085 4.688 10.687t9.852 6.136q-2.216-3.358-3.861-7.611t-1.986-9.213zm17.284 0H17.54q.17 2.182.707 4.364t1.202 3.861 1.534 3.315 1.568 2.693T24 42.443q.75-.972 1.449-2.037t1.568-2.702 1.534-3.315 1.202-3.852.707-4.355zM19.023 4.994q-5.847 1.534-9.852 6.136T4.483 21.818h8.693q.597-8.898 5.847-16.824zm24.494 21.188h-8.676q-.631 8.915-5.864 16.824 5.847-1.534 9.852-6.136t4.688-10.687zM24 5.557q-.75.972-1.44 2.037t-1.568 2.702-1.543 3.315-1.202 3.852-.707 4.355h12.92q-.17-2.182-.707-4.364t-1.202-3.861-1.534-3.315-1.568-2.693T24 5.557zm4.977-.563q5.233 7.909 5.864 16.824h8.676q-.682-6.085-4.688-10.688t-9.852-6.136z"/></svg>