<svg xmlns="http://www.w3.org/2000/svg" width="48" height="48" viewBox="0 0 48 48"><path d="M0 3.198l.123-.309c.284-.724.994-1.278 1.685-1.249 1.018.042 1.809.774 1.845 1.743.003.072.003.145.003.219v39.136h.294c13.987-.002 27.975-.003 41.964-.007.37 0 .724.048 1.056.22.668.349 1.119 1.071 1.017 1.767-.11.759-.561 1.287-1.289 1.552a1.527 1.527 0 0 1-.502.087c-14.79.005-29.579.005-44.367 0-.73 0-1.273-.352-1.59-1.023-.087-.184-.159-.377-.238-.566V3.198z"/><path d="M25.057 29.899l15.577-15.153h-.286c-1.544 0-3.087.001-4.63-.001-.891-.002-1.639-.569-1.855-1.395-.288-1.1.573-2.205 1.747-2.235.398-.01.795-.002 1.193-.002l8.206-.003c.969 0 1.755.652 1.91 1.577.014.084.018.171.018.256.002 3.145.003 6.293 0 9.438a1.847 1.847 0 0 1-1.437 1.815c-1.036.237-2.115-.569-2.181-1.629a6.586 6.586 0 0 1-.011-.398c-.002-1.563-.002-3.126-.002-4.689v-.26l-.207.197c-5.543 5.388-11.087 10.775-16.628 16.163-.46.448-.99.702-1.647.618-.475-.06-.852-.301-1.183-.634-1.611-1.611-3.225-3.22-4.837-4.83-.051-.051-.104-.099-.167-.157l-1.435 1.236c-2.951 2.541-5.901 5.082-8.85 7.626-.513.443-1.089.579-1.739.396-.642-.181-1.083-.579-1.239-1.241-.165-.7-.03-1.336.521-1.831.621-.558 1.26-1.095 1.892-1.639 3.155-2.721 6.309-5.441 9.462-8.163.377-.325.77-.613 1.284-.657.627-.053 1.146.175 1.588.619 1.595 1.599 3.197 3.192 4.794 4.788.051.051.088.114.144.188z"/></svg>