<svg xmlns="http://www.w3.org/2000/svg" width="48" height="48" viewBox="0 0 48 48"><path d="M40 28h-8.438l.887-8h7.55c1.1 0 2-.9 2-2s-.9-2-2-2h-7.1l1.088-9.775a2.007 2.007 0 0 0-1.763-2.213 2.007 2.007 0 0 0-2.213 1.763L28.873 16h-7.975l1.088-9.775a2.007 2.007 0 0 0-1.763-2.213 2.006 2.006 0 0 0-2.212 1.763L16.873 16H7.998c-1.1 0-2 .9-2 2s.9 2 2 2h8.438l-.887 8h-7.55c-1.1 0-2 .9-2 2s.9 2 2 2h7.1l-1.087 9.775A2.006 2.006 0 0 0 15.999 44c1 0 1.875-.763 1.988-1.775L19.125 32H27.1l-1.088 9.775a2.007 2.007 0 0 0 1.987 2.226c1 0 1.875-.763 1.987-1.775l1.138-10.225h8.875c1.1 0 2-.9 2-2s-.9-2-2-2zm-20.438 0l.887-8h7.975l-.887 8h-7.975z"/></svg>