<svg xmlns="http://www.w3.org/2000/svg" width="48" height="48" viewBox="0 0 48 48"><path d="M21.552 48c-.334-.071-.674-.122-1.002-.216-2.41-.691-4-2.876-3.965-5.432.038-2.725 1.835-4.892 4.502-5.409a6.09 6.09 0 0 1 1.097-.088c1.312-.01 2.624-.005 3.935-.004 2.442.002 4.351 1.291 5.272 3.556.012.029.026.057.046.101a6.495 6.495 0 0 0 1.869-.568c2.001-.963 3.322-2.482 3.767-4.691.077-.381.1-.778.101-1.168.006-5.487.019-10.974 0-16.461-.014-4.124-1.449-7.677-4.452-10.536-2.018-1.922-4.43-3.077-7.209-3.372-3.416-.363-6.485.561-9.152 2.717-2.834 2.292-4.477 5.291-5.031 8.881a15.96 15.96 0 0 0-.177 2.412c-.015 5.839-.007 11.678-.014 17.517 0 .19-.037.416-.144.558a.677.677 0 0 1-.485.243c-2.609-.076-5.024-.729-7.045-2.476C1.457 31.828.308 29.64.043 26.993c-.007-.07-.028-.14-.043-.209v-1.392c.014-.061.032-.121.043-.182.107-.58.157-1.178.328-1.738 1.066-3.5 3.391-5.762 6.866-6.854.245-.077.32-.178.336-.417.031-.462.08-.924.15-1.381.598-3.907 2.259-7.287 5.073-10.071 2.598-2.57 5.711-4.132 9.347-4.614.378-.05.758-.089 1.138-.133h1.776c.157.019.313.041.47.055 3.163.293 6.016 1.399 8.498 3.375 4.129 3.288 6.315 7.618 6.73 12.86.014.179.07.257.244.314.5.165 1.004.326 1.482.544 4.351 1.989 6.692 6.698 5.503 11.29-.96 3.708-3.408 6.052-7.05 7.171-.143.044-.247.074-.281.261-.33 1.867-1.151 3.497-2.431 4.889-1.756 1.909-3.94 3.012-6.502 3.375-.172.024-.252.088-.315.253-.686 1.788-1.958 2.938-3.805 3.445-.267.073-.544.113-.816.168h-5.232zM7.493 31.811V20.386c-1.872.732-3.786 2.786-3.855 5.545-.072 2.86 1.783 5.049 3.855 5.88zm33.326-11.402v11.354c1.745-.335 3.697-3.047 3.824-5.233.195-3.352-2.123-5.479-3.824-6.121zM24.157 44.364c.672 0 1.344.002 2.016-.002a2.29 2.29 0 0 0 .476-.039c.979-.215 1.561-1.08 1.452-2.144-.102-.995-.859-1.694-1.867-1.7a378.495 378.495 0 0 0-4.127 0c-1.111.006-1.892.819-1.892 1.951s.781 1.928 1.903 1.934c.68.004 1.36.001 2.04.001z"/></svg>