<svg xmlns="http://www.w3.org/2000/svg" width="48" height="48" viewBox="0 0 48 48"><path d="M35.646 3.41q3.362 0 6.201 1.657t4.496 4.496T48 15.764q0 2.413-.925 4.689t-2.694 4.046L24 44.88 3.619 24.499Q1.85 22.73.925 20.453T0 15.764q0-3.362 1.657-6.201t4.496-4.496 6.201-1.657q2.429 0 4.689.917t4.046 2.702l2.912 2.911 2.912-2.911q1.769-1.769 4.046-2.694t4.689-.925zm0 4.118q-1.609 0-3.121.611t-2.702 1.802L24 15.764l-5.823-5.823q-1.19-1.19-2.702-1.802t-3.121-.611q-2.252 0-4.142 1.102T5.22 11.622t-1.102 4.142q0 1.609.611 3.121t1.802 2.702L24 39.056l17.469-17.469q1.19-1.19 1.802-2.702t.611-3.121q0-2.252-1.102-4.142T39.788 8.63t-4.142-1.102z"/></svg>