<svg xmlns="http://www.w3.org/2000/svg" width="48" height="48" viewBox="0 0 48 48"><path d="M24.618 2.967c.124.038.251.074.375.116.342.114.648.282.918.53 5.91 5.402 11.823 10.8 17.733 16.201a343.236 343.236 0 0 1 3.426 3.185c1.161 1.089 1.243 2.682.2 3.888-.407.47-.828.926-1.263 1.369-.894.913-1.976 1.125-3.158.641-.121-.05-.242-.102-.39-.165v.247c0 4.267-.003 8.535.002 12.804.002 1.059-.383 1.933-1.221 2.584a3.084 3.084 0 0 1-1.93.66c-3.422.002-6.845.002-10.266.002a.99.99 0 0 1-1.014-.91 3.705 3.705 0 0 1-.018-.435l.006-8.977c0-.819-.233-1.05-1.05-1.05-1.85 0-3.699-.002-5.55.002-.138 0-.277.008-.414.03-.402.066-.588.267-.626.672-.014.144-.015.29-.015.435.002 2.973.005 5.946.003 8.919a2.9 2.9 0 0 1-.063.588c-.09.441-.588.736-.962.735-3.454-.012-6.911.015-10.365-.018-1.698-.017-2.763-1.164-3.024-2.451a4.57 4.57 0 0 1-.083-.905c-.006-4.341-.005-8.68-.005-13.021v-.265c-.057.042-.087.062-.114.084-1.136.97-2.768.904-3.815-.167a38.04 38.04 0 0 1-1.261-1.371 2.62 2.62 0 0 1-.637-1.425c-.006-.043-.024-.087-.036-.13v-.476c.009-.018.022-.034.026-.054.084-.832.528-1.451 1.136-1.995 2.406-2.155 4.8-4.322 7.197-6.486 4.53-4.089 9.06-8.18 13.587-12.27.553-.5 1.13-.954 1.881-1.119h.794zm-.237 8.545l-.197.174c-5.209 4.749-10.417 9.5-15.628 14.246a.534.534 0 0 0-.188.432c.005 5.1.006 10.2.008 15.302 0 .066 0 .132.006.198.043.465.249.656.716.668.053.002.105.002.159.002h8.676v-.274c.001-2.57-.005-5.141.005-7.71.006-1.905 1.326-3.328 3.174-3.358a251.46 251.46 0 0 1 6.323.003c.795.008 1.494.315 2.076.858.724.675 1.034 1.526 1.032 2.504-.002 2.57.002 5.141.002 7.71v.267h8.565c.774 0 .939-.165.939-.944-.002-4.922-.005-9.845 0-14.766a.786.786 0 0 0-.265-.624c-4.616-4.398-9.227-8.8-13.839-13.201l-1.562-1.486zm-.065-6.101c-.126.088-.238.154-.335.24-.675.603-1.345 1.21-2.018 1.818L5.868 21.993l-3.132 2.829c-.26.234-.26.287-.022.544.361.395.723.789 1.091 1.178.163.174.237.172.42.023.04-.033.079-.069.119-.105l15.89-14.489c1.011-.921 2.019-1.845 3.033-2.761.433-.391.937-.589 1.53-.451.393.091.698.332.983.604l17.886 17.084.101.096c.197.177.276.174.463-.021.133-.138.263-.279.393-.42.242-.262.486-.522.72-.792.225-.261.221-.325-.013-.576a4.475 4.475 0 0 0-.272-.261L26.849 7.678c-.729-.672-1.456-1.344-2.187-2.013-.099-.091-.218-.162-.345-.255z"/><path d="M24.215 26.021c-.912 0-1.824.015-2.735-.003-1.502-.032-2.602-1.008-2.744-2.486-.066-.686-.058-1.39.014-2.076.145-1.392 1.297-2.389 2.7-2.398 1.368-.009 2.734-.005 4.102-.003.528 0 1.057-.008 1.585.009 1.24.042 2.232.846 2.534 2.048.045.178.085.364.085.546.003.66.032 1.325-.03 1.978A2.64 2.64 0 0 1 27.225 26c-1.002.041-2.007.007-3.012.007v.014zm.016-2.474c.891 0 1.782.002 2.675 0 .313 0 .399-.085.402-.402.005-.415.006-.832-.002-1.248-.005-.287-.102-.378-.387-.378-1.79-.002-3.579-.002-5.369 0-.285 0-.376.095-.38.383-.003.41-.003.819 0 1.228.002.339.08.416.425.417.877.002 1.756 0 2.634 0z"/></svg>