<svg xmlns="http://www.w3.org/2000/svg" width="38" height="48" viewBox="0 0 38 48"><path d="M35.976 43.2h-2.409c-0.057-8.362-3.128-15.676-7.691-19.2 4.611-3.562 7.71-10.734 7.71-19.2h2.4c1.323 0 2.4-1.077 2.4-2.4s-1.087-2.4-2.409-2.4h-33.6c-1.323 0-2.4 1.077-2.4 2.4s1.077 2.4 2.4 2.4h2.4c0 8.466 3.090 15.638 7.71 19.2-4.573 3.524-7.635 10.838-7.691 19.2h-2.419c-1.323 0-2.4 1.077-2.4 2.4s1.077 2.4 2.4 2.4h33.6c1.323 0 2.4-1.077 2.4-2.4s-1.077-2.4-2.4-2.4zM9.576 4.8h19.2c0 9.024-4.318 16.658-9.458 16.8h-0.283c-5.14-0.142-9.458-7.776-9.458-16.8zM19.035 26.4h0.283c5.093 0.142 9.373 7.871 9.449 16.8h-19.181c0.076-8.929 4.356-16.658 9.449-16.8z"></path></svg>