<svg xmlns="http://www.w3.org/2000/svg" width="62" height="48" viewBox="0 0 62 48"><path d="M61.538 14.496v26.736c-.014.053-.036.105-.041.159a7.343 7.343 0 0 1-5.532 6.383c-.392.099-.796.152-1.194.226H6.723c-.235-.038-.472-.069-.706-.115-3.51-.686-6.008-3.696-6.011-7.276-.007-8.527-.003-17.054-.002-25.581 0-.864.156-1.701.456-2.511 1.086-2.926 3.784-4.804 6.931-4.808 5.535-.006 11.071-.002 16.606-.002h.345v-.294c0-1.312-.004-2.624.001-3.936A3.496 3.496 0 0 1 26.924.114c.161-.044.324-.077.486-.115h6.528c.029.012.057.031.087.036 1.83.328 2.969 1.679 2.972 3.532.002 1.279 0 2.559.001 3.838v.301h.366c5.558 0 11.115-.002 16.673.003a8.7 8.7 0 0 1 1.291.08c2.885.438 5.257 2.601 5.972 5.438.105.416.161.844.239 1.266zm-37.272-3.869c-.091-.004-.169-.011-.247-.011-5.544-.001-11.088-.001-16.632.002-.271 0-.546.017-.811.066-2.231.412-3.732 2.224-3.733 4.507-.002 8.44-.001 16.88.002 25.319 0 .279.015.562.065.835.411 2.243 2.207 3.737 4.497 3.737 15.552.002 31.103.001 46.655-.003.326 0 .659-.02.977-.086 2.146-.447 3.58-2.246 3.581-4.483.002-8.44.001-16.88 0-25.319 0-.216.002-.434-.028-.647-.33-2.322-2.18-3.929-4.531-3.93-5.624-.003-11.248-.001-16.872 0-.084 0-.169.007-.249.011v3.696c.121.006.224.009.326.015a1.413 1.413 0 0 1 1.255 1.928c-.22.582-.737.912-1.438.912h-12.96c-.064 0-.128.001-.192-.003-.783-.053-1.356-.669-1.344-1.443.012-.769.583-1.354 1.362-1.395l.315-.017v-3.693zm9.738 3.625c.004-.088.01-.151.01-.214V3.579c0-.468-.2-.662-.678-.662h-5.445c-.519 0-.705.187-.705.708v10.627h6.819z"/><path d="M21.439 30.929c.455.35.92.665 1.335 1.035 1.735 1.546 2.621 3.509 2.781 5.812.041.595-.371 1.054-.963 1.1-.626.049-1.102-.324-1.167-.945-.099-.947-.316-1.856-.772-2.7-.679-1.257-1.691-2.151-2.982-2.739a.38.38 0 0 0-.285.009c-1.966.93-3.929.943-5.898.005a.398.398 0 0 0-.307.002c-2.136 1.112-3.34 2.863-3.578 5.265-.064.64-.556 1.1-1.162 1.059-.576-.039-1.021-.572-.977-1.184.163-2.235 1.06-4.129 2.691-5.662.4-.376.858-.689 1.31-1.047-1.426-1.681-1.921-3.631-1.461-5.814.343-1.628 1.207-2.927 2.547-3.905 2.674-1.95 6.348-1.627 8.674.714 2.129 2.142 2.744 6.133.213 8.996zm-4.957-8.847c-2.476.006-4.468 2.016-4.466 4.506a4.47 4.47 0 0 0 4.477 4.465 4.49 4.49 0 0 0 4.474-4.501c-.008-2.457-2.034-4.476-4.485-4.47zm26.293 3.091c-3.471 0-6.941.001-10.412-.002-.167 0-.34-.001-.5-.039-.517-.125-.839-.599-.805-1.156a1.07 1.07 0 0 1 .916-.993c.118-.018.239-.023.358-.023 6.965-.001 13.931-.001 20.896.001.166 0 .339.011.498.055.542.15.809.572.758 1.169a1.067 1.067 0 0 1-.961.974c-.127.013-.255.013-.383.013l-10.364.001zm-.015 6.428c-3.471 0-6.942.001-10.413-.002a2.02 2.02 0 0 1-.499-.043c-.51-.132-.821-.593-.792-1.141a1.07 1.07 0 0 1 .907-1.001c.094-.016.191-.024.286-.024 7.014-.001 14.028-.002 21.042 0 .759 0 1.242.498 1.193 1.216-.035.51-.44.931-.951.985-.095.01-.192.012-.287.012l-10.485.001v-.001zm-3.997 5.672c-2.159 0-4.318.001-6.477-.001-.643 0-1.054-.286-1.197-.822a1.089 1.089 0 0 1 .91-1.374c.087-.012.175-.019.263-.019h13.002c.589 0 1.019.316 1.167.844a1.078 1.078 0 0 1-.88 1.349 2.906 2.906 0 0 1-.407.021l-6.381.001zM30.769 8.265c-.896 0-1.619-.72-1.619-1.612 0-.888.729-1.614 1.62-1.614s1.62.727 1.619 1.615a1.614 1.614 0 0 1-1.62 1.611z"/></svg>