<svg xmlns="http://www.w3.org/2000/svg" width="48" height="48" viewBox="0 0 48 48"><path d="M15.6 21.6c3.315 0 6-2.685 6-6s-2.685-6-6-6-6 2.685-6 6 2.685 6 6 6zm0-7.2c.66 0 1.2.54 1.2 1.2s-.54 1.2-1.2 1.2-1.2-.54-1.2-1.2.54-1.2 1.2-1.2z"/><path d="M48 31.2v-24C48 3.225 44.775 0 40.8 0H7.2A7.202 7.202 0 0 0 0 7.2v33.6c0 3.96 3.21 7.185 7.17 7.2H40.8c3.975 0 7.2-3.225 7.2-7.2v-9.6zM4.8 7.2c0-1.32 1.08-2.4 2.4-2.4h33.6c1.32 0 2.4 1.08 2.4 2.4v18.21l-7.905-7.905c-.93-.93-2.46-.93-3.39 0L6.36 43.05A2.397 2.397 0 0 1 4.8 40.8V7.2zm36 36H12.99L33.6 22.59l9.6 9.6v8.61c0 1.32-1.08 2.4-2.4 2.4z"/></svg>