<svg xmlns="http://www.w3.org/2000/svg" width="48" height="48" viewBox="0 0 48 48"><path d="M23.915.013C36.766-.221 48.366 10.54 47.991 24.635a23.946 23.946 0 0 1-24.237 23.354C10.536 47.87-.015 37.142-.001 23.999.012 10.34 11.177-.081 23.913.013zm.07 3.446C12.801 3.44 3.503 12.529 3.468 23.902s9.166 20.613 20.482 20.622c11.337.009 20.569-9.2 20.569-20.519 0-11.341-9.199-20.547-20.535-20.547z"/><path d="M20.02 27.794c0-2.484.002-4.967 0-7.45-.002-1.166.83-2.028 2-2.039a235.21 235.21 0 0 1 3.94 0c.963.008 1.752.609 1.941 1.461.039.177.053.363.053.544.006 4.953.009 9.908.011 14.861 0 1.134-.828 1.996-1.989 2.022-1.32.027-2.64.021-3.96.002-.888-.012-1.683-.591-1.9-1.352a2.417 2.417 0 0 1-.078-.657c-.006-2.463-.003-4.927-.003-7.392h-.014zm5.489 6.964V20.734h-3.026v14.024h3.026zM24 9.129c2.174.006 3.959 1.784 3.959 3.938a3.973 3.973 0 0 1-3.978 3.975 3.958 3.958 0 0 1-3.942-3.964 3.963 3.963 0 0 1 3.963-3.947zm-.023 5.488a1.53 1.53 0 0 0 1.554-1.491 1.542 1.542 0 0 0-1.511-1.58 1.529 1.529 0 0 0-1.559 1.506 1.516 1.516 0 0 0 1.515 1.564z"/></svg>