<svg xmlns="http://www.w3.org/2000/svg" width="48" height="48" viewBox="0 0 48 48"><path d="M34.909 0H13.091C5.877 0 0 5.877 0 13.091v21.818C0 42.123 5.877 48 13.091 48h21.818C42.123 48 48 42.123 48 34.909V13.091C48 5.877 42.123 0 34.909 0zm8.727 34.909c0 4.814-3.914 8.727-8.727 8.727H13.091c-4.814 0-8.727-3.914-8.727-8.727V13.091c0-4.814 3.914-8.727 8.727-8.727h21.818c4.814 0 8.727 3.914 8.727 8.727v21.818z"/><path d="M34.882 22.309c0-.027 0-.041-.014-.068a10.855 10.855 0 0 0-3.068-6.055 10.849 10.849 0 0 0-7.719-3.191c-6.014 0-10.909 4.895-10.909 10.909s4.895 10.909 10.909 10.909c6.014 0 10.909-4.895 10.909-10.909 0-.545-.041-1.091-.109-1.582v-.014zM24.095 30.45c-3.614 0-6.545-2.932-6.545-6.545s2.932-6.545 6.545-6.545c.341 0 .668.027.995.082 2.782.423 5.032 2.659 5.468 5.441v.014c0 .027 0 .041.014.068a6.547 6.547 0 0 1-6.477 7.486zM36 9.818A2.19 2.19 0 0 0 33.818 12 2.19 2.19 0 0 0 36 14.182 2.19 2.19 0 0 0 38.182 12 2.19 2.19 0 0 0 36 9.818z"/></svg>