<svg xmlns="http://www.w3.org/2000/svg" width="48" height="48" viewBox="0 0 48 48"><path d="M44.541 4.683c-.097-.083-.16-.135-.255-.214v.276c0 13.119.003 26.236-.003 39.355-.002 1.947-1.457 3.452-3.042 3.777a5.429 5.429 0 0 1-1.093.113c-10.885.005-21.773-.006-32.658.012-1.959.003-3.583-1.398-3.909-3.007a6.274 6.274 0 0 1-.117-1.23c-.006-11.719-.003-23.439-.003-35.16 0-1.549-.011-3.099.005-4.649.015-1.656.808-2.841 2.263-3.589C6.275.085 6.875.004 7.486.006h4.609c9.343 0 18.686.001 28.029-.002.756 0 1.476.124 2.139.498.897.506 1.524 1.248 1.819 2.232.189.626.302 1.273.458 1.953zm-3.716 19.326V4.235c0-.099.003-.198-.005-.296-.021-.289-.15-.429-.437-.464a3.095 3.095 0 0 0-.373-.017c-9.709-.003-19.42-.005-29.13-.006-1.103 0-2.207-.003-3.309-.002-.453.002-.662.214-.666.666v.099l.005 39.471c0 .091-.003.184.002.276.016.401.174.558.572.569.058.002.119 0 .177 0H40.08c.63 0 .745-.116.745-.747V24.009z"/><path d="M32.826 29.017c0-.302-.002-.615 0-.93.003-.389.114-.504.505-.51.315-.005.63-.007.945.005.286.009.401.131.405.42.006.341.002.681.002.999.352.114.696.189 1.006.334s.612.334.874.555c.423.355.615.841.63 1.392.007.276.004.552-.002.828-.005.306-.144.445-.448.448-.42.003-.84.003-1.26 0-.286-.003-.42-.129-.442-.416a1.961 1.961 0 0 1-.002-.334c.023-.226-.075-.384-.267-.482-.678-.348-1.361-.336-2.007.051-.54.322-.587.96-.112 1.377.243.215.523.399.811.547.6.309 1.22.581 1.826.878.756.372 1.414.862 1.822 1.621.996 1.849.026 4.133-2.01 4.751l-.42.126c0 .345.003.679-.002 1.014-.005.324-.12.439-.441.444s-.643.005-.965 0c-.324-.005-.447-.132-.45-.462-.003-.257-.014-.513.003-.768.011-.165-.048-.227-.203-.264a4.465 4.465 0 0 1-2.428-1.515 5.67 5.67 0 0 1-.414-.573c-.132-.207-.111-.366.073-.525.342-.295.69-.587 1.045-.868.227-.18.399-.133.59.094.234.282.453.587.732.818.633.525 1.367.718 2.172.462.573-.181.898-.73.794-1.285a.959.959 0 0 0-.458-.661c-.482-.291-.972-.57-1.467-.839-.415-.225-.846-.418-1.261-.643a4.295 4.295 0 0 1-1.255-1.001c-1.287-1.521-.809-3.735 1.011-4.656.336-.171.702-.285 1.068-.43zm-7.861-7.659h11.028c.111 0 .224 0 .334.003.525.016.782.222.887.736.071.348.048.693-.132 1.012-.144.254-.352.399-.655.389-.144-.005-.29-.002-.434-.002l-22.117-.001h-.058c-.407.014-.79-.036-.962-.479-.195-.509-.191-1.004.174-1.446.146-.177.352-.213.57-.213.827.002 1.655-.001 2.481-.001h8.881zm-2.107-6.396h-9.099c-.547-.008-.789-.156-.938-.579-.183-.521-.075-1.134.271-1.403.108-.082.256-.117.391-.158.066-.02.144-.005.216-.005l18.141.002h.118c.55.003.801.147.959.555.181.471.075 1.088-.239 1.381-.189.177-.423.197-.661.197-1.017.003-2.035.003-3.052.003h-6.107v.006zm-3.486-4.504H10.57c-.942-.002-1.428-.856-.962-1.689.154-.276.401-.405.705-.438.103-.012.21-.009.315-.009l17.367.003c.02 0 .039.002.059 0 .428-.024.779.082.953.527.19.486.107 1.13-.22 1.418-.11.098-.276.132-.417.191-.028.012-.064.005-.098.005h-8.9v-.005zm2.343 6.6h7.938c.804.002 1.239.535 1.062 1.329a1.671 1.671 0 0 1-.261.561c-.144.212-.378.256-.629.256-2.646-.003-5.292-.003-7.938-.003-2.692 0-5.384-.003-8.076.003-.426.001-.789-.078-.963-.518-.193-.492-.186-.974.176-1.384.108-.123.309-.204.479-.227.297-.037.603-.018.904-.018h7.308v-.001zm-1.831 8.597c2.047 0 4.095.005 6.142-.003.428-.002.778.084.956.525.195.486.117 1.133-.218 1.415a.91.91 0 0 1-.496.189c-.477.027-.957.014-1.437.014-3.675 0-7.35-.003-11.025.005-.444.002-.819-.078-.982-.541-.178-.503-.138-.983.226-1.401.144-.166.341-.199.553-.199 2.094.003 4.187.002 6.281.002v-.003z"/></svg>