<svg xmlns="http://www.w3.org/2000/svg" width="47" height="48" viewBox="0 0 47 48"><path d="M6.914 18.8c-3.415-3.15-3.629-8.471-.479-11.886s8.471-3.629 11.886-.479 3.629 8.471.479 11.886-8.471 3.629-11.886.479zm18.784 23.058a2.108 2.108 0 0 0 .124 2.967c.86.793 2.182.736 2.967-.115l7.133-7.733 3.091 2.852-4.291 4.651c-.77.834-.721 2.17.133 2.957.86.793 2.178.74 2.958-.106l4.291-4.651 1.556 1.435a2.096 2.096 0 0 0 2.961-.129 2.09 2.09 0 0 0-.11-2.962L23.187 19.509c3.31-5.065 2.579-11.926-2.017-16.165-5.122-4.725-13.104-4.403-17.829.719s-4.403 13.104.719 17.829c4.595 4.239 11.493 4.416 16.275.708l12.494 11.525-7.133 7.733z"/></svg>