<svg xmlns="http://www.w3.org/2000/svg" width="61" height="48" viewBox="0 0 61 48"><path d="M57.216 48H3.888c-.044-.015-.088-.036-.133-.043A4.351 4.351 0 0 1 .108 44.62c-.038-.169-.072-.339-.108-.509V12.623c.089-.346.15-.702.271-1.037C.907 9.835 2.523 8.73 4.439 8.73c7.871-.002 15.741-.001 23.612-.001h.318v-.318c0-2.072-.003-4.143.001-6.215A2.174 2.174 0 0 1 30.013.064c.076-.02.151-.044.227-.065h.624c.021.011.04.028.063.034 1.181.283 1.808 1.074 1.808 2.284v6.412h5.671c6.087 0 12.175-.001 18.262.001 2.038.001 3.714 1.241 4.265 3.15.07.244.114.495.17.743v31.488c-.015.044-.037.087-.043.132a4.37 4.37 0 0 1-3.336 3.647c-.169.039-.339.073-.509.109zM4.382 13.105v30.513h52.34V13.105H4.382z"/><path d="M30.532 39.27H18.654c-.611 0-1.021-.285-1.154-.806a1.459 1.459 0 0 1-.035-.356c-.003-.672-.004-1.344-.001-2.016.003-.729.455-1.185 1.183-1.185h23.804c.757 0 1.188.436 1.191 1.193.003.664.003 1.328 0 1.992-.003.733-.449 1.178-1.183 1.179l-11.926.001zm-19.622-.001c-.352 0-.703.004-1.055-.001-.667-.008-1.117-.451-1.122-1.112a151.8 151.8 0 0 1 0-2.134c.005-.637.438-1.096 1.076-1.112a42.695 42.695 0 0 1 2.206.001c.637.017 1.07.474 1.079 1.114.01.711.01 1.423 0 2.134-.009.66-.466 1.102-1.129 1.11-.352.004-.703.001-1.055.001zm41.461-2.176c0 .368.006.736-.001 1.103-.012.607-.459 1.062-1.065 1.07-.735.01-1.471.009-2.206.001-.62-.007-1.075-.45-1.087-1.075a52.333 52.333 0 0 1 0-2.206c.013-.613.451-1.057 1.068-1.073.743-.02 1.487-.021 2.23 0 .639.019 1.055.481 1.061 1.126.004.352.001.703.001 1.055h-.001zM30.565 17.46c.36 0 .72-.007 1.079.002.637.016 1.083.463 1.089 1.097.007.719.007 1.439 0 2.158-.006.607-.413 1.065-1.019 1.088-.774.029-1.551.03-2.325 0-.606-.023-1.012-.483-1.018-1.09a103.49 103.49 0 0 1 0-2.158c.007-.633.455-1.08 1.091-1.095.367-.009.735-.002 1.103-.002zM10.907 28.359c0 .36.006.719-.001 1.079-.013.656-.447 1.093-1.105 1.101-.719.009-1.439.009-2.158-.001-.615-.009-1.06-.406-1.085-1.019a29.426 29.426 0 0 1-.001-2.301c.022-.597.435-1.005 1.03-1.025a33.897 33.897 0 0 1 2.277-.001c.625.021 1.03.466 1.042 1.089.007.359.001.719.002 1.079zm15.274 2.181c-.36 0-.719.007-1.079-.001-.649-.015-1.091-.463-1.098-1.115a94.877 94.877 0 0 1 .001-2.134c.007-.619.419-1.075 1.038-1.098a33.245 33.245 0 0 1 2.277-.002c.631.021 1.043.48 1.047 1.111a151.8 151.8 0 0 1 0 2.134c-.005.636-.447 1.085-1.083 1.102-.367.009-.735.002-1.103.002zm8.73 0c-.36 0-.719.007-1.079-.001-.652-.015-1.092-.463-1.096-1.114a151.8 151.8 0 0 1 0-2.134c.005-.609.406-1.071 1.011-1.095.774-.031 1.551-.03 2.325-.002.607.022 1.018.478 1.026 1.084.01.727.011 1.455-.001 2.182-.01.621-.46 1.063-1.083 1.079-.367.009-.735.002-1.103.002zm-15.274-2.182c0 .368.005.735-.002 1.103-.012.612-.446 1.064-1.057 1.075-.743.014-1.487.013-2.23 0-.613-.011-1.056-.446-1.071-1.065a49.162 49.162 0 0 1-.001-2.206c.013-.61.429-1.052 1.037-1.073a33.245 33.245 0 0 1 2.277-.002c.632.021 1.037.476 1.045 1.113.004.352.001.703 0 1.055zm32.724 2.183c-.352 0-.703.006-1.055-.001-.66-.013-1.099-.445-1.107-1.099a86.243 86.243 0 0 1 0-2.158c.008-.625.414-1.07 1.039-1.091a33.897 33.897 0 0 1 2.277 0c.594.02 1.01.427 1.032 1.023.029.766.031 1.535-.001 2.301-.025.623-.475 1.013-1.107 1.024-.359.007-.719.001-1.079.001zM37.102 19.616c0-.36-.005-.719.001-1.079.012-.609.449-1.062 1.06-1.073a63.76 63.76 0 0 1 2.23 0c.61.01 1.056.454 1.069 1.067.015.735.014 1.471 0 2.206-.011.596-.422 1.046-1.016 1.068-.774.029-1.551.03-2.325.001-.609-.023-1.01-.48-1.019-1.087-.005-.368-.001-.735-.001-1.103zm8.73.025c0-.36-.005-.719.001-1.079.01-.643.442-1.09 1.082-1.1a72.142 72.142 0 0 1 2.182 0c.631.009 1.076.434 1.093 1.067.02.735.019 1.471.001 2.206-.015.624-.438 1.056-1.061 1.076-.742.023-1.487.023-2.229.002-.647-.019-1.058-.468-1.067-1.116-.005-.352-.001-.703-.001-1.055zM13.09 17.459c.36 0 .719-.006 1.079.001.657.014 1.095.451 1.101 1.105.007.711.006 1.423 0 2.134-.006.639-.41 1.087-1.046 1.109a33.85 33.85 0 0 1-2.253.001c-.624-.02-1.043-.455-1.058-1.079a46.684 46.684 0 0 1 0-2.182c.015-.655.464-1.078 1.122-1.089.352-.006.703-.001 1.055-.001zm28.378 10.905c0-.368-.006-.735.002-1.103.012-.584.407-1.039.99-1.063.79-.031 1.582-.031 2.372 0 .579.022.982.47.995 1.062.016.735.017 1.471 0 2.206-.015.628-.464 1.063-1.089 1.072-.727.01-1.455.011-2.182 0-.641-.009-1.078-.457-1.087-1.095-.006-.36-.001-.719-.001-1.079zm-17.466-8.732c0 .368.005.735-.002 1.103-.011.583-.406 1.043-.987 1.066-.79.032-1.583.033-2.372.002-.582-.023-.988-.473-.999-1.058a57.939 57.939 0 0 1-.001-2.206c.012-.624.462-1.067 1.085-1.076a75.577 75.577 0 0 1 2.182-.001c.651.009 1.086.461 1.093 1.115.004.352.001.703 0 1.055z"/></svg>