<svg xmlns="http://www.w3.org/2000/svg" width="48" height="48" viewBox="0 0 48 48"><path d="M1.5 15.159l21.531 10.765c.309.148.632.229.969.229s.659-.081.969-.229L46.5 15.159a2.157 2.157 0 0 0 0-3.848L24.969.546a2.113 2.113 0 0 0-1.924 0L1.514 11.311C.787 11.674.33 12.428.33 13.235s.444 1.561 1.171 1.924zM24 4.878l16.713 8.357L24 21.592 7.287 13.235 24 4.878zm20.562 27.963L24 43.122 3.438 32.841c-1.063-.538-2.355-.094-2.893.969s-.094 2.355.969 2.893l21.531 10.765c.309.148.632.229.969.229s.659-.081.969-.229l21.531-10.765a2.169 2.169 0 0 0 .969-2.893 2.177 2.177 0 0 0-2.92-.969z"/><path d="M1.5 25.924l21.531 10.765c.309.148.632.229.969.229s.659-.081.969-.229L46.5 25.924a2.169 2.169 0 0 0 .969-2.893 2.169 2.169 0 0 0-2.893-.969L24.001 32.356 3.439 22.075c-1.063-.538-2.355-.094-2.893.969a2.137 2.137 0 0 0 .955 2.88z"/></svg>