<svg xmlns="http://www.w3.org/2000/svg" width="48" height="48" viewBox="0 0 48 48"><path d="M10.63 24.002c.028-.188.05-.38.088-.566.104-.496.335-.931.678-1.306.065-.071.132-.139.199-.207 6.92-6.92 13.84-13.839 20.759-20.761.493-.495 1.062-.834 1.762-.928 1.991-.27 3.259 1.283 3.389 2.555.103 1.026-.206 1.885-.931 2.61-6.174 6.163-12.346 12.33-18.52 18.495-.067.067-.149.12-.27.217.115.085.191.128.25.188l18.545 18.542c.645.643.972 1.41.949 2.326-.035 1.461-1.246 2.73-2.707 2.825-.08.005-.158.021-.236.033h-.102c-.139-.017-.279-.032-.419-.053-.679-.099-1.234-.421-1.717-.904-6.913-6.919-13.832-13.835-20.748-20.751a6.9 6.9 0 0 1-.189-.194 2.723 2.723 0 0 1-.68-1.285c-.043-.208-.068-.42-.102-.631v-.203z"/></svg>