<svg xmlns="http://www.w3.org/2000/svg" width="48" height="48" viewBox="0 0 48 48"><path d="M0 25.097v-2.184c.017-.065.041-.13.049-.196.114-.947.221-1.896.338-2.843.114-.919.541-1.63 1.396-2.046a2.78 2.78 0 0 1 1.022-.276c.092-.007.129-.042.157-.127a25.736 25.736 0 0 1 1.384-3.366c1.802-3.611 4.386-6.514 7.824-8.645a24.458 24.458 0 0 1 5.228-2.417c.111-.037.156-.082.166-.208.096-1.147.751-1.99 1.802-2.295.347-.101.71-.156 1.07-.206 1.106-.156 2.213-.313 3.335-.286.513.012 1.028-.001 1.537.049.988.097 1.974.218 2.957.35 1.238.167 2.134 1.166 2.185 2.413.004.099.043.134.131.168.785.293 1.58.562 2.347.896 4.115 1.792 7.373 4.584 9.744 8.402a23.1 23.1 0 0 1 2.334 4.97c.073.223.17.344.411.321.041-.004.084.014.126.021 1.004.179 1.827.949 2.014 1.92.118.613.207 1.232.285 1.851.07.556.131 1.115.154 1.674.026.641.006 1.284.006 1.927 0 .051 0 .103-.006.154-.075.629-.149 1.258-.228 1.886-.06.475-.098.956-.195 1.424-.24 1.149-1.134 1.916-2.311 2.014-.119.01-.183.045-.225.17a25.058 25.058 0 0 1-1.539 3.662c-1.607 3.097-3.811 5.673-6.68 7.67-1.921 1.337-4.01 2.333-6.228 3.066-.101.033-.138.078-.142.187-.041 1.114-.791 2.064-1.876 2.327-.531.128-1.076.2-1.618.274-.831.113-1.664.216-2.506.2-.407-.008-.814.002-1.22-.003a4.632 4.632 0 0 1-.485-.035c-.931-.108-1.861-.221-2.792-.328-1.376-.157-2.265-1.048-2.388-2.408-.011-.126-.047-.18-.17-.22a25.15 25.15 0 0 1-3.914-1.664c-2.926-1.555-5.379-3.654-7.309-6.353-1.392-1.947-2.425-4.075-3.184-6.34-.049-.146-.114-.194-.263-.206-1.107-.086-2.027-.83-2.251-1.917-.185-.894-.27-1.809-.396-2.716-.033-.237-.052-.475-.078-.713zm32.748-6.166c-.013-.027-.026-.059-.043-.087a10.066 10.066 0 0 0-3.542-3.522.209.209 0 0 0-.162-.013 2.673 2.673 0 0 1-2.002.063 9.11 9.11 0 0 0-2.651-.503 9.259 9.259 0 0 0-3.381.518 2.608 2.608 0 0 1-1.941-.076.217.217 0 0 0-.173.012 9.842 9.842 0 0 0-3.519 3.505c-.027.046-.039.126-.019.173.288.664.301 1.331.062 2.014a8.988 8.988 0 0 0-.5 2.638 9.116 9.116 0 0 0 .512 3.368 2.63 2.63 0 0 1-.07 1.965.232.232 0 0 0 .014.184 9.834 9.834 0 0 0 3.519 3.505c.051.03.132.038.189.022.289-.079.574-.171.861-.254a.406.406 0 0 1 .188-.02c.313.067.63.125.935.221.737.233 1.486.402 2.257.465a8.996 8.996 0 0 0 3.704-.476c.679-.235 1.341-.227 2.002.057.046.02.121.017.163-.008a10.004 10.004 0 0 0 3.558-3.539.167.167 0 0 0 .009-.138c-.313-.663-.318-1.333-.078-2.021a9.045 9.045 0 0 0 .505-2.87c.016-1.107-.184-2.179-.543-3.224a2.424 2.424 0 0 1 .101-1.861l.043-.101zM17.55 6.274c-3.157 1.159-5.814 2.996-7.977 5.543a18.493 18.493 0 0 0-3.312 5.725h.101c1.982.001 3.964 0 5.947.004.09 0 .126-.04.165-.108a13.16 13.16 0 0 1 4.964-4.956c.085-.048.117-.099.116-.199-.004-1.952-.004-3.905-.004-5.857v-.152zm0 35.471v-.178c.001-1.948 0-3.896.005-5.844 0-.105-.036-.157-.123-.207a13.125 13.125 0 0 1-4.939-4.927c-.056-.098-.115-.136-.23-.135-1.944.005-3.887.006-5.831.008h-.189c2.107 5.442 5.865 9.181 11.308 11.284zm12.919-35.47v.17c-.002 1.936-.003 3.871-.009 5.807 0 .125.042.19.148.25a13.046 13.046 0 0 1 4.918 4.915c.053.093.108.129.218.129 1.953-.005 3.906-.004 5.859-.005h.155c-.994-2.715-2.511-5.071-4.574-7.075-1.931-1.876-4.168-3.261-6.714-4.191zM41.774 30.47c-.072-.004-.109-.008-.146-.008-1.97-.002-3.94-.004-5.909-.009-.094 0-.136.039-.177.111a13.141 13.141 0 0 1-4.966 4.955c-.087.05-.116.103-.116.202.005 1.953.007 3.905.009 5.858v.165c5.443-2.104 9.199-5.842 11.306-11.274zm-29.611-3.18a12.388 12.388 0 0 1-.455-3.292c0-1.109.156-2.198.444-3.278H3.449a20.264 20.264 0 0 0-.008 6.571h8.722zm8.552 8.564v5.793l-.001 2.787c0 .071-.006.127.095.143.885.14 1.774.228 2.669.252a20.202 20.202 0 0 0 3.1-.156c.24-.031.479-.069.715-.104v-8.723c-2.195.61-4.38.6-6.58.008zm6.568-23.71V3.44a20.237 20.237 0 0 0-6.562-.008v8.721c2.191-.607 4.372-.6 6.562-.01zm17.289 8.588H35.86c.295 1.078.451 2.166.45 3.276 0 1.108-.159 2.195-.444 3.272h8.697c.37-2.182.367-4.36.009-6.548z"/></svg>