<svg xmlns="http://www.w3.org/2000/svg" width="48" height="48" viewBox="0 0 48 48"><path d="M45.522 18.732a2.175 2.175 0 0 0-1.969-1.249H26.458l1.874-14.936a2.19 2.19 0 0 0-1.29-2.268 2.199 2.199 0 0 0-2.539.597L2.777 26.947c-.543.652-.652 1.548-.299 2.308s1.127 1.263 1.969 1.263h17.095l-1.874 14.936a2.19 2.19 0 0 0 1.29 2.268c.285.122.57.177.869.177.625 0 1.249-.272 1.67-.788L45.223 21.04a2.166 2.166 0 0 0 .299-2.308zM24.896 38.638l1.249-10.021c.081-.625-.109-1.236-.53-1.711s-1.005-.733-1.629-.733H9.09l14.013-16.81-1.249 10.021a2.14 2.14 0 0 0 .53 1.711 2.18 2.18 0 0 0 1.629.733h14.909l-14.027 16.81z"/></svg>