<svg xmlns="http://www.w3.org/2000/svg" width="48" height="48" viewBox="0 0 48 48"><path d="M34.909 0q2.574 0 4.969.972t4.287 2.864 2.864 4.287.972 4.969q0 2.557-.98 4.969t-2.855 4.287l-6.545 6.545q-.188.188-.563.528-1.824 1.619-4.074 2.463t-4.619.844q-2.983 0-5.642-1.278-1.994-.938-3.614-2.557t-2.557-3.614q1.278-1.278 3.085-1.278.631 0 1.278.188 1.108 1.79 2.898 2.898 2.097 1.278 4.551 1.278 1.705 0 3.307-.648t2.864-1.909l6.545-6.545q1.261-1.261 1.909-2.864t.648-3.307-.648-3.307-1.909-2.864-2.864-1.909-3.307-.648-3.307.648-2.864 1.909l-4.585 4.585q-2.182-.597-4.517-.597-.375 0-1.057.034.341-.375.528-.563l6.545-6.545Q27.527 1.96 29.939.98T34.908 0zM19.636 15.273q2.983 0 5.642 1.278 1.994.938 3.614 2.557t2.557 3.614Q30.171 24 28.364 24q-.631 0-1.278-.188-1.108-1.79-2.898-2.898-2.097-1.278-4.551-1.278-1.705 0-3.307.648t-2.864 1.909l-6.545 6.545q-1.261 1.261-1.909 2.864t-.648 3.307.648 3.307 1.909 2.864 2.864 1.909 3.307.648 3.307-.648 2.864-1.909l4.585-4.585q2.182.597 4.517.597.375 0 1.057-.034-.341.375-.528.563l-6.545 6.545q-1.892 1.892-4.287 2.864t-4.969.972q-2.557 0-4.969-.98t-4.287-2.855Q1.945 42.275.973 39.88t-.972-4.969.972-4.969 2.864-4.287l6.545-6.545q.188-.188.563-.528 1.824-1.619 4.074-2.463t4.619-.844z"/></svg>