<svg xmlns="http://www.w3.org/2000/svg" width="48" height="48" viewBox="0 0 48 48"><path d="M24 0C12.975 0 4 8.975 4 20c0 3.538 1.025 7.213 3.062 10.925 1.575 2.888 3.763 5.813 6.488 8.7 4.6 4.862 9.15 7.913 9.337 8.038a2.003 2.003 0 0 0 2.224 0c.188-.125 4.738-3.175 9.338-8.038 2.737-2.888 4.912-5.813 6.487-8.7 2.025-3.713 3.062-7.4 3.062-10.925 0-11.025-8.975-20-20-20zm0 43.537C20.2 40.724 8 30.825 8 20c0-8.825 7.175-16 16-16s16 7.175 16 16c0 10.825-12.212 20.725-16 23.537z"/><path d="M24 12c-4.412 0-8 3.587-8 8s3.587 8 8 8c4.412 0 8-3.587 8-8s-3.587-8-8-8zm0 12c-2.2 0-4-1.8-4-4s1.8-4 4-4 4 1.8 4 4-1.8 4-4 4z"/></svg>