<svg xmlns="http://www.w3.org/2000/svg" width="48" height="48" viewBox="0 0 48 48"><path d="M46.001 24q0 .828-.587 1.415T44 26.002H20.828l6.594 6.578q.578.578.578 1.422 0 .859-.57 1.429t-1.43.57q-.845 0-1.422-.578l-10-10Q14 24.845 14 24.001t.578-1.422l10-10q.609-.578 1.422-.578.828 0 1.415.587t.587 1.414q0 .845-.578 1.422l-6.594 6.577h23.172q.828 0 1.414.587t.587 1.415zM18 43.999q0 .828-.587 1.415t-1.414.587h-8q-2.5 0-4.234-1.734-1.766-1.766-1.766-4.22V8q0-2.452 1.75-4.25 1.797-1.751 4.25-1.751h8q.828 0 1.414.587T18 4t-.587 1.415-1.414.586h-8q-.828 0-1.414.587t-.587 1.414v32.047q0 .813.587 1.383t1.414.57h8q.828 0 1.414.587T18 44.004z"/></svg>