<svg xmlns="http://www.w3.org/2000/svg" width="48" height="48" viewBox="0 0 48 48"><path d="M19.636-.001q3.989 0 7.627 1.559t6.264 4.184 4.184 6.264 1.559 7.627q0 3.427-1.116 6.562t-3.179 5.693l12.392 12.376q.63.63.63 1.551 0 .938-.622 1.559t-1.559.622q-.921 0-1.551-.63L31.889 34.974q-2.558 2.062-5.693 3.179t-6.562 1.116q-3.989 0-7.627-1.559t-6.264-4.184-4.184-6.264T0 19.635t1.559-7.627 4.184-6.264 6.264-4.184T19.634.001zm0 4.364q-3.103 0-5.932 1.211T8.829 8.83t-3.256 4.875-1.211 5.932 1.211 5.932 3.256 4.875 4.875 3.256 5.932 1.211 5.932-1.211 4.875-3.256 3.256-4.875 1.211-5.932-1.211-5.932-3.256-4.875-4.875-3.256-5.932-1.211z"/></svg>