<svg xmlns="http://www.w3.org/2000/svg" width="48" height="48" viewBox="0 0 48 48"><path d="M34.182 0c-1.236 0-2.182 0.945-2.182 2.182s0.945 2.182 2.182 2.182h6.4l-8.727 8.727c-3.345-2.909-7.564-4.364-12.218-4.364-10.909 0-19.636 8.727-19.636 19.636s8.727 19.636 19.636 19.636 19.636-8.727 19.636-19.636c0-4.655-1.6-8.873-4.364-12.218l8.727-8.727v6.4c0 1.236 0.945 2.182 2.182 2.182s2.182-0.945 2.182-2.182v-11.636c0-1.236-0.945-2.182-2.182-2.182h-11.636zM19.636 13.091c8.436 0 15.273 6.836 15.273 15.273s-6.836 15.273-15.273 15.273-15.273-6.836-15.273-15.273 6.836-15.273 15.273-15.273z"></path></svg>