<svg xmlns="http://www.w3.org/2000/svg" width="48" height="48" viewBox="0 0 48 48"><path d="M47 2.275a2.009 2.009 0 0 0-2-.013L31.937 9.737l-15.013-7.5a1.954 1.954 0 0 0-.887-.225h-.038c-.375 0-.725.1-1.025.275L1.011 10.262A2.016 2.016 0 0 0-.002 12v32a1.97 1.97 0 0 0 1 1.725 2.009 2.009 0 0 0 2 .013l13.075-7.475 15 7.5c.262.137.563.225.875.225h.113c.35-.013.675-.112.95-.275l13.975-7.988a1.986 1.986 0 0 0 1.013-1.738V4c0-.713-.375-1.375-1-1.725zM18 7.238l12 6v27.525l-12-6V7.238zM4 13.163L14 7.45v27.388L4 40.551V13.163zm40 21.675l-10 5.713V13.163L44 7.45v27.388z"/></svg>