<svg xmlns="http://www.w3.org/2000/svg" width="48" height="48" viewBox="0 0 48 48"><path d="M28.364 26.165q.903 0 1.551.648l13.722 13.722V30.529q0-.903.639-1.543t1.543-.639 1.543.639.639 1.543v15.273q0 .903-.648 1.551t-1.551.648H30.529q-.903 0-1.543-.639t-.639-1.543.639-1.543 1.543-.639h10.006L26.813 29.915q-.631-.665-.631-1.551 0-.903.639-1.551t1.543-.648zM2.182 0h15.273q.903 0 1.543.639t.639 1.543-.639 1.543-1.543.639H7.449l13.722 13.705q.648.648.648 1.551t-.648 1.543-1.551.639q-.869 0-1.551-.631L4.364 7.449v10.006q0 .903-.639 1.543t-1.543.639-1.543-.639T0 17.455V2.182Q0 1.279.639.639T2.182 0z"/></svg>