<svg xmlns="http://www.w3.org/2000/svg" width="47" height="48" viewBox="0 0 47 48"><path d="M0 25.561l.223-1.004c.783-3.588 2.977-5.876 6.468-6.9 1.926-.564 3.88-1.032 5.829-1.513 3.412-.843 6.51-2.333 9.333-4.42 3.678-2.718 6.877-5.919 9.677-9.526.449-.579.849-1.188 1.473-1.613.845-.575 1.728-.747 2.712-.423 1.162.381 2.067 1.109 2.837 2.026 1.377 1.641 2.422 3.488 3.28 5.44 1.794 4.076 3.075 8.315 3.92 12.687.447 2.307.788 4.629.919 6.976.121 2.192.14 4.384-.324 6.547-.208.971-.536 1.901-1.09 2.737-.594.894-1.388 1.49-2.479 1.622-.738.089-1.422-.1-2.067-.449a36.27 36.27 0 0 0-5.233-2.314c-2.754-.968-5.559-1.75-8.449-2.184-.975-.147-1.967-.192-2.95-.283-.047-.004-.096 0-.185 0 .053.115.091.202.132.287 1.217 2.503 2.441 5.001 3.644 7.507.843 1.76.773 3.495-.341 5.11-2.143 3.101-6.745 2.752-8.481-.641-1.022-2.001-1.979-4.035-2.963-6.055l-2.137-4.397-.13-.257c-.66.157-1.317.306-1.969.468-1.151.287-2.307.438-3.499.328-3.693-.334-6.991-3.169-7.847-6.779-.113-.477-.2-.962-.3-1.443v-1.534l-.002-.002-.001.002zm13.457 5.492c.602-.147 1.171-.275 1.737-.424 1.873-.494 3.763-.905 5.7-1.053 2.488-.189 4.955.008 7.411.413 2.533.417 4.999 1.09 7.428 1.913.072.025.147.041.26.074-3.471-7.379-5.316-15.104-5.585-23.262-.315.306-.589.564-.856.83-1.705 1.69-3.452 3.329-5.376 4.774-2.803 2.103-5.819 3.797-9.199 4.776-1.303.377-2.635.651-3.954.971-.068.017-.132.043-.206.068.883 3.648 1.758 7.27 2.639 10.92h.001zM34.778 3.417c-.128.264-.307.502-.358.766-.2 1.051-.464 2.103-.506 3.163-.06 1.528.053 3.063.085 4.595.004.175.079.232.236.277a5.332 5.332 0 0 1 1.99 1.062c1.156.977 1.977 2.203 2.599 3.565.968 2.115 1.237 4.344.977 6.638-.175 1.549-.764 2.926-1.909 4.023-.123.119-.074.211-.028.324.743 1.818 1.615 3.573 2.743 5.185.323.462.721.875 1.111 1.285.181.189.428.315.66.481.085-.157.149-.27.208-.389.389-.798.547-1.656.634-2.526.217-2.141.113-4.282-.108-6.415-.243-2.33-.685-4.625-1.222-6.902-.839-3.558-1.947-7.025-3.558-10.316-.649-1.328-1.356-2.618-2.32-3.75a5.2 5.2 0 0 0-1.236-1.07l.002.002v.002zM7.511 20.926c-2.092.687-3.444 2.03-3.933 4.172-.521 2.279.187 4.137 1.966 5.61 1.347 1.115 2.892 1.437 4.604 1.124-.883-3.648-1.754-7.26-2.635-10.907h-.002v.001zm12.733 19.457c.577 1.168 1.115 2.322 1.713 3.444.353.66 1.109.907 1.786.687.934-.306 1.328-1.279.885-2.23-.351-.753-.722-1.496-1.085-2.243l-.462-.941-2.839 1.283h.002zm-3.265-6.734l1.786 3.671 2.835-1.285c-.473-.966-.932-1.905-1.4-2.837-.028-.055-.145-.106-.209-.094-.987.172-1.973.355-3.014.547l.002-.002zm17.685-17.09a46.2 46.2 0 0 0 1.673 6.864c.411-2.524-.134-4.816-1.673-6.864z"/></svg>