<svg xmlns="http://www.w3.org/2000/svg" width="48" height="48" viewBox="0 0 48 48"><path d="M24.01 26.114H4.96c-.95 0-1.755-.567-2.05-1.44-.45-1.347.528-2.75 1.946-2.792h38.138c.92 0 1.607.402 2.004 1.233.652 1.365-.36 2.97-1.873 2.99-.636.01-1.273 0-1.91 0h-17.21zm-.005-11.36H5.015c-.72 0-1.322-.245-1.76-.818-.517-.676-.61-1.428-.248-2.194.362-.764.992-1.17 1.843-1.216h.168c12.657 0 25.313 0 37.97-.004.736 0 1.345.258 1.785.848.49.663.57 1.397.225 2.145-.35.75-.962 1.16-1.79 1.226-.102.016-.2.01-.3.01H24.003zm-.01 22.715H5.005c-.8 0-1.438-.31-1.87-.987-.43-.687-.46-1.405-.08-2.12.386-.712.995-1.083 1.804-1.12.043-.004.09 0 .14 0 12.66 0 25.324 0 37.992-.005.73 0 1.326.256 1.763.835.503.663.586 1.4.238 2.154-.353.76-.973 1.17-1.816 1.23-.094.006-.187.003-.28.003H23.99z"/></svg>