<svg xmlns="http://www.w3.org/2000/svg" width="48" height="48" viewBox="0 0 48 48"><path d="M2.182 0q.92 0 1.551.631l13.722 13.722V4.347q0-.903.639-1.543t1.543-.639 1.543.639.639 1.543V19.62q0 .903-.648 1.551t-1.551.648H4.347q-.903 0-1.543-.639t-.639-1.543.639-1.543 1.543-.639h10.006L.631 3.733Q0 3.102 0 2.182q0-.938.622-1.56T2.182 0zm26.199 26.182h15.273q.903 0 1.543.639t.639 1.543-.639 1.543-1.543.639H33.648l13.705 13.722q.648.648.648 1.551t-.639 1.543-1.543.639q-.92 0-1.551-.631L30.546 33.648v10.006q0 .903-.639 1.543t-1.543.639-1.543-.639-.639-1.543V28.381q0-.903.648-1.551t1.551-.648z"/></svg>