<svg xmlns="http://www.w3.org/2000/svg" width="48" height="48" viewBox="0 0 48 48"><path d="M2.494 4.261h43.027c.062.015.123.036.184.043 1.074.125 1.949.876 2.196 1.928.071.297.093.612.093.918.005 5.769.003 11.538.002 17.307 0 3.059-.002 6.119 0 9.177 0 .65-.138 1.251-.555 1.768-.566.704-1.317.989-2.202.987-5.19-.003-10.38-.002-15.57-.003h-.242c-.005.035-.008.041-.006.047.217.968.439 1.934.648 2.904a.42.42 0 0 0 .247.318c.558.279 1.118.556 1.664.858 1.081.597 1.214 2.138.251 2.811-.408.285-.876.36-1.37.396v-.194c0 .18-.091.213-.255.212-4.362-.005-8.723.002-13.084-.011a5.236 5.236 0 0 1-1.205-.165c-.597-.147-1.011-.522-1.158-1.14-.178-.756.21-1.564.939-1.951.546-.29 1.101-.559 1.645-.85a.395.395 0 0 0 .178-.227c.152-.605.29-1.214.431-1.821.09-.387.177-.776.27-1.185h-.282c-5.196 0-10.393.002-15.591-.005a3.43 3.43 0 0 1-.858-.099c-1.153-.306-1.896-1.337-1.896-2.601 0-8.841 0-17.682.002-26.523 0-.216.015-.433.042-.648a2.525 2.525 0 0 1 1.917-2.138c.177-.042.357-.076.534-.114zm42.731 2.808H2.789V28.09h42.436V7.069zM2.793 30.91v2.698h42.425v-2.7H2.794zm23.768 5.489h-5.109l-1.053 4.527h7.212l-1.05-4.527z"/><path d="M23.685 33.204c-.27 0-.538.005-.807-.002s-.431-.156-.44-.429c-.01-.368-.012-.735 0-1.103.009-.261.162-.414.428-.418a42.463 42.463 0 0 1 1.674 0c.268.005.41.159.414.426.006.367.007.735 0 1.102-.006.263-.159.413-.422.42-.282.008-.564.002-.847.002z"/></svg>