<svg xmlns="http://www.w3.org/2000/svg" width="48" height="48" viewBox="0 0 48 48"><path d="M24 0q.844 0 1.422.578l7.063 7.078q.594.594.594 1.422t-.586 1.414-1.414.586-1.422-.594l-3.656-3.656V22h15.172l-3.656-3.656q-.594-.594-.594-1.422t.586-1.414 1.414-.586 1.422.594l7.078 7.063q.578.578.578 1.422t-.578 1.406l-7.078 7.078q-.594.594-1.422.594t-1.414-.586-.586-1.414.594-1.422l3.656-3.656H26.001v15.172l3.656-3.656q.594-.594 1.422-.594t1.414.586.586 1.414-.594 1.422l-7.063 7.078q-.578.578-1.422.578-.828 0-1.406-.578l-7.078-7.078q-.594-.594-.594-1.422t.586-1.414 1.414-.586 1.422.594L22 41.173V26.001H6.828l3.656 3.656q.594.594.594 1.422t-.586 1.414-1.414.586-1.422-.594L.578 25.422Q0 24.844 0 24t.578-1.422l7.078-7.063q.594-.594 1.422-.594t1.414.586.586 1.414-.594 1.422l-3.656 3.656H22V6.827l-3.656 3.656q-.594.594-1.422.594t-1.414-.586-.586-1.414.594-1.422L22.579.577q.578-.578 1.422-.578z"/></svg>