<svg xmlns="http://www.w3.org/2000/svg" width="48" height="48" viewBox="0 0 48 48"><path d="M2.743 42.857h42.514c1.851 0 2.743-.891 2.743-2.743V7.885c0-1.851-.891-2.743-2.743-2.743H2.743C.892 5.142 0 6.033 0 7.885v32.229c0 1.851.891 2.743 2.743 2.743zm.686-3.428V36h3.429v3.429H3.429zm0-6.858v-3.429h3.429v3.429H3.429zm0-6.857v-3.429h3.429v3.429H3.429zm0-6.857v-3.429h3.429v3.429H3.429zm0-6.857V8.571h3.429V12H3.429zm6.857 27.429V8.572h27.429v30.857H10.286zm30.857 0V36h3.429v3.429h-3.429zm0-6.858v-3.429h3.429v3.429h-3.429zm0-6.857v-3.429h3.429v3.429h-3.429zm0-6.857v-3.429h3.429v3.429h-3.429zm0-6.857V8.571h3.429V12h-3.429z"/></svg>