<svg xmlns="http://www.w3.org/2000/svg" width="48" height="48" viewBox="0 0 48 48"><path d="M47.020 17.546l-21.573-17.019c-0.959-0.719-2.157-0.719-2.876 0l-21.573 17.019c-1.678 1.198-0.719 4.075 1.438 4.075h4.794v21.573h-2.397c-1.438 0-2.397 0.959-2.397 2.397s0.959 2.397 2.397 2.397h38.352c1.438 0 2.397-0.959 2.397-2.397s-0.959-2.397-2.397-2.397h-2.397v-21.573h4.794c2.157 0 3.116-2.876 1.438-4.075zM24.008 5.321l14.622 11.506h-29.243l14.622-11.506zM26.405 21.621v21.573h-4.794v-21.573h4.794zM12.023 21.621h4.794v21.573h-4.794v-21.573zM35.993 43.194h-4.794v-21.573h4.794v21.573z"></path></svg>