<svg xmlns="http://www.w3.org/2000/svg" width="48" height="48" viewBox="0 0 48 48"><path d="M48 3.339c.001 10.307.008 20.615-.005 30.922-.003 1.813-.602 3.447-1.709 4.89-1.183 1.542-2.697 2.649-4.474 3.408-1.699.726-3.473 1.066-5.319.975-2.046-.1-3.93-.688-5.555-1.973-1.45-1.146-2.376-2.623-2.69-4.456-.272-1.591-.008-3.111.696-4.555.821-1.686 2.075-2.983 3.643-3.987a12.028 12.028 0 0 1 5.001-1.81c2.035-.263 4.004-.034 5.878.837.287.133.559.296.838.445l.119.065V11.083l-24.554 4.333v.189c0 7.64.002 15.279-.002 22.918-.001 1.879-.566 3.575-1.715 5.07-1.259 1.639-2.886 2.782-4.795 3.538a11.865 11.865 0 0 1-4.973.844c-1.886-.088-3.643-.596-5.2-1.692-1.532-1.078-2.569-2.511-2.99-4.352-.392-1.714-.15-3.361.614-4.933.86-1.77 2.192-3.107 3.857-4.126a12.002 12.002 0 0 1 4.807-1.682c2.158-.274 4.233 0 6.188 1 .209.107.41.226.638.353v-.185c0-8.183.001-16.367-.001-24.55 0-1.01.35-1.865 1.101-2.545.507-.459 1.115-.695 1.785-.81 1.631-.279 3.26-.573 4.89-.861l4.587-.808 4.877-.862 4.587-.808c1.575-.278 3.15-.559 4.726-.833.573-.1 1.145-.227 1.723-.269 1.675-.121 3.186 1.145 3.396 2.811.021.169.03.341.03.512zm-3.637 4.116V3.634l-1.031.183-4.587.808-4.89.863-4.865.858-4.751.839c-1.436.253-2.872.509-4.309.758-.109.019-.124.063-.123.158.003 1.182.002 2.364.002 3.546v.14l24.554-4.333zm-.318 28.392c.46-1.103.467-2.2-.12-3.264-.451-.818-1.148-1.372-1.984-1.758-1.161-.537-2.388-.681-3.648-.561a8.505 8.505 0 0 0-3.825 1.303c-1.003.64-1.83 1.45-2.362 2.53-.457.929-.602 1.895-.275 2.899.306.941.932 1.623 1.767 2.123 1.039.621 2.18.853 3.537.862.161-.012.483-.024.801-.062 1.472-.175 2.822-.678 4.025-1.55.91-.66 1.646-1.472 2.083-2.521zm-28.186 4.682c.422-.868.57-1.773.31-2.718-.279-1.016-.925-1.751-1.814-2.283-1.039-.622-2.18-.853-3.487-.861a8.522 8.522 0 0 0-4.452 1.327c-1.019.64-1.853 1.462-2.391 2.555-.373.756-.535 1.552-.392 2.392.176 1.03.737 1.82 1.578 2.417.965.684 2.062.99 3.227 1.048 1.879.095 3.612-.382 5.184-1.416.953-.627 1.731-1.424 2.235-2.461z"/></svg>