<svg xmlns="http://www.w3.org/2000/svg" width="48" height="48" viewBox="0 0 48 48"><path d="M0 15.023c0.038-0.193 0.076-0.386 0.115-0.579 0.208-1.033 0.656-1.945 1.4-2.697 0.696-0.703 1.554-1.084 2.527-1.206 0.392-0.049 0.789-0.072 1.184-0.075 1.418-0.009 2.836-0.012 4.254-0.002 0.452 0.003 0.844-0.118 1.221-0.369 4.584-3.068 9.173-6.131 13.761-9.193 0.393-0.262 0.795-0.508 1.242-0.675 1.972-0.737 3.632 0.432 4.191 1.933 0.151 0.404 0.233 0.822 0.235 1.254 0 0.077 0.001 0.153 0.001 0.23 0.001 13.496 0.001 26.993 0.003 40.489 0 0.41-0.008 0.818-0.1 1.219-0.308 1.331-1.169 2.131-2.447 2.513-0.508 0.152-1.032 0.189-1.55 0.043-0.213-0.060-0.425-0.142-0.62-0.248-0.381-0.207-0.76-0.421-1.121-0.661-4.569-3.045-9.135-6.094-13.699-9.147-0.304-0.203-0.621-0.302-0.987-0.299-1.565 0.008-3.13 0.008-4.695 0.003-0.849-0.003-1.661-0.179-2.412-0.587-1.118-0.606-1.825-1.55-2.231-2.739-0.162-0.475-0.239-0.963-0.239-1.466-0-3.481-0.005-6.962-0.010-10.443-0-0.095-0.013-0.19-0.020-0.285v-7.014zM26.434 3.854c-0.095 0.060-0.164 0.103-0.231 0.148-4.327 2.877-8.655 5.755-12.982 8.632-0.181 0.12-0.36 0.243-0.543 0.359-0.184 0.117-0.273 0.279-0.262 0.498 0.003 0.064 0 0.128 0 0.191 0 1.59 0.001 3.181 0.001 4.771-0 5.32 0.001 10.64-0.007 15.96-0 0.311 0.102 0.519 0.367 0.676 0.296 0.176 0.576 0.378 0.864 0.569 4.184 2.782 8.368 5.563 12.552 8.344 0.072 0.048 0.148 0.091 0.241 0.148v-40.297zM8.814 14.025h-0.21c-1.232 0.001-2.465 0.001-3.697 0.002-0.064 0-0.128-0-0.191 0.004-0.608 0.039-0.994 0.391-1.079 0.994-0.021 0.151-0.028 0.305-0.028 0.458-0.001 4.866-0.001 9.731-0.001 14.597 0 0.856-0.004 1.711 0.003 2.567 0.002 0.183 0.025 0.371 0.070 0.548 0.098 0.383 0.347 0.636 0.735 0.728 0.172 0.041 0.352 0.067 0.529 0.068 1.239 0.006 2.477 0.004 3.716 0.004 0.049 0 0.098-0.008 0.153-0.013v-19.957zM40.245 26.534c-0.063 0.061-0.117 0.113-0.17 0.166-1.45 1.45-2.901 2.899-4.349 4.35-0.273 0.274-0.588 0.465-0.968 0.549-1.032 0.229-2.058-0.493-2.187-1.541-0.075-0.612 0.113-1.133 0.547-1.567 1.459-1.459 2.918-2.918 4.376-4.377 0.053-0.053 0.104-0.108 0.165-0.171-0.064-0.065-0.116-0.119-0.17-0.173-1.45-1.45-2.899-2.901-4.35-4.349-0.259-0.259-0.446-0.554-0.534-0.913-0.19-0.779 0.143-1.585 0.831-1.998 0.684-0.411 1.562-0.329 2.155 0.203 0.071 0.064 0.138 0.133 0.206 0.201 1.428 1.427 2.855 2.855 4.281 4.283 0.049 0.050 0.088 0.109 0.145 0.181 0.078-0.074 0.133-0.124 0.185-0.176 1.459-1.459 2.919-2.916 4.376-4.377 0.309-0.31 0.674-0.497 1.106-0.561 0.899-0.132 1.839 0.511 2 1.403 0.119 0.656-0.023 1.249-0.519 1.74-1.46 1.449-2.911 2.907-4.366 4.36-0.054 0.054-0.12 0.096-0.193 0.154 0.078 0.081 0.129 0.136 0.182 0.189 1.405 1.405 2.809 2.81 4.214 4.214 0.063 0.063 0.126 0.126 0.19 0.19 0.373 0.373 0.542 0.822 0.526 1.35-0.025 0.786-0.404 1.342-1.119 1.633-0.73 0.297-1.413 0.156-1.979-0.396-0.823-0.803-1.628-1.623-2.441-2.436-0.659-0.659-1.319-1.319-1.978-1.978-0.049-0.049-0.1-0.095-0.161-0.154z"></path><path d="M7.908 30.487c-0.010 0.914-0.749 1.658-1.643 1.651-0.908-0.007-1.657-0.77-1.645-1.674 0.013-0.907 0.761-1.633 1.669-1.619 0.915 0.014 1.628 0.736 1.618 1.642z"></path></svg>