<svg xmlns="http://www.w3.org/2000/svg" width="48" height="48" viewBox="0 0 48 48"><path d="M0 14.556c.039-.087.093-.169.115-.261.346-1.362 1.033-2.481 2.287-3.189.767-.433 1.6-.624 2.477-.627 1.597-.008 3.197-.005 4.794.003.315.002.585-.08.849-.257C15.154 7.126 19.789 4.031 24.425.94c.284-.189.576-.367.876-.529.46-.249.944-.433 1.485-.375.101.01.189.003.169-.141.43.156.864.276 1.265.467 1.293.612 1.9 1.678 1.96 3.082.006.144.002.29.002.434l.003 40.446c0 .584-.054 1.157-.277 1.701-.35.853-.975 1.426-1.815 1.794a3.277 3.277 0 0 1-1.747.263c-.299-.037-.599-.156-.872-.291a10.025 10.025 0 0 1-1.12-.656 9789.395 9789.395 0 0 1-13.839-9.242 1.43 1.43 0 0 0-.831-.251c-1.539.008-3.078-.026-4.617.012-2.325.059-4.431-1.35-4.99-3.9-.016-.075-.051-.145-.076-.218V14.555zM26.488 3.853c-.075.047-.129.078-.183.113-4.542 3.021-9.082 6.043-13.626 9.06-.186.124-.255.263-.255.485.006 7.036.006 14.073 0 21.11 0 .225.072.357.258.481 4.539 3.012 9.073 6.032 13.609 9.048.057.039.117.074.195.121V3.854zM8.819 34.065V14.048h-1.77c-.723 0-1.446-.006-2.169.003-.84.01-1.274.448-1.286 1.285v17.277c0 .099-.003.198.005.296.045.639.357 1.023.932 1.128.154.029.314.035.471.036 1.203.003 2.406.002 3.609.002.071 0 .141-.006.209-.009zm31.483-12.51c.078-.117.112-.192.166-.247 1.438-1.445 2.88-2.886 4.32-4.328.425-.424.922-.678 1.534-.628.654.054 1.112.412 1.449.963.238.39.24.807.219 1.235a.182.182 0 0 1-.033.09c-.301.414-.559.867-.912 1.232-1.319 1.359-2.667 2.689-4.005 4.03-.05.049-.098.102-.153.162.057.06.105.113.154.162 1.332 1.336 2.678 2.661 3.99 4.015.357.369.621.826.927 1.245.018.026.033.06.033.09.002.497.002.995.002 1.539l-.243-.27c-.039.051-.075.093-.105.14-.613.958-1.854.962-2.548.426a4.094 4.094 0 0 1-.411-.367 5643.841 5643.841 0 0 1-4.235-4.246c-.045-.047-.078-.105-.117-.159a8.757 8.757 0 0 1-.085-.027c-.041.068-.071.149-.124.203-1.428 1.436-2.861 2.868-4.288 4.305-.423.425-.91.69-1.527.64-.694-.055-1.233-.364-1.529-1.012-.3-.659-.273-1.302.176-1.898a2.75 2.75 0 0 1 .251-.279c1.444-1.447 2.89-2.895 4.337-4.34.051-.051.114-.089.172-.132l.036-.095c-.069-.039-.151-.063-.206-.117-1.44-1.434-2.877-2.871-4.314-4.306-.404-.402-.665-.869-.63-1.453.044-.744.387-1.308 1.077-1.614.676-.3 1.322-.202 1.905.257.113.088.215.195.317.297l4.233 4.247c.05.051.085.116.174.237z"/><path d="M7.899 30.552c0 .921-.731 1.659-1.644 1.657-.906-.002-1.65-.748-1.651-1.659s.739-1.641 1.662-1.638a1.618 1.618 0 0 1 1.634 1.64z"/></svg>