<svg xmlns="http://www.w3.org/2000/svg" width="48" height="48" viewBox="0 0 48 48"><path d="M24 0q3.563 0 6.571 1.756t4.764 4.764 1.756 6.571v8.727h4.364q2.71 0 4.628 1.918t1.918 4.628v13.091q0 2.71-1.918 4.628t-4.628 1.918H6.546q-2.71 0-4.628-1.918T0 41.455V28.364q0-2.71 1.918-4.628t4.628-1.918h4.364v-8.727q0-3.563 1.756-6.571t4.764-4.764T24.001 0zm17.455 26.182H6.546q-.903 0-1.543.639t-.639 1.543v13.091q0 .903.639 1.543t1.543.639h34.909q.903 0 1.543-.639t.639-1.543V28.364q0-.903-.639-1.543t-1.543-.639zM24 4.364q-3.614 0-6.17 2.557t-2.557 6.17v8.727h17.455v-8.727q0-3.614-2.557-6.17t-6.17-2.557z"/></svg>