<svg xmlns="http://www.w3.org/2000/svg" width="41" height="48" viewBox="0 0 41 48"><path d="M36.314 0c.283.068.569.125.849.205a4.822 4.822 0 0 1 3.459 4.056c.025.204.04.411.041.616.003 2.169.008 4.337 0 6.506a4.799 4.799 0 0 1-3.753 4.701 5.15 5.15 0 0 1-1.148.124c-8.455.007-16.911.005-25.366.004-1.43 0-2.668-.481-3.653-1.532-.871-.93-1.293-2.049-1.305-3.321-.005-.498-.002-.996-.002-1.494v-.134c-.015-.013-.021-.023-.028-.023-.34-.028-.679-.031-1.01.064a1.675 1.675 0 0 0-1.215 1.584c-.006 2.362-.007 4.724.001 7.086.003.901.722 1.64 1.625 1.654 1.254.02 2.508.008 3.762.009 3.092.001 6.184-.001 9.276.003 2.263.003 4.135 1.427 4.715 3.587.088.326.132.664.201 1.02h.146c.636-.016 1.271.003 1.898.127 1.331.265 2.19 1.255 2.267 2.611.006.107.008.215.008.322.003 4.908.005 9.817.011 14.725.001 1.11-.236 2.152-.909 3.054-.893 1.197-2.091 1.935-3.541 2.272a6.534 6.534 0 0 1-2.084.15 6.392 6.392 0 0 1-3.435-1.352c-.783-.616-1.355-1.38-1.66-2.335a5.335 5.335 0 0 1-.252-1.634c.002-3.289.006-6.579.007-9.868 0-1.67.018-3.341-.015-5.011-.034-1.741 1.31-2.962 2.861-3.038.437-.021.875-.012 1.313-.016h.167c-.117-.617-.444-1.047-1.001-1.298-.251-.113-.519-.142-.792-.142l-9.16-.001c-1.284 0-2.568.012-3.852-.008A4.8 4.8 0 0 1 .222 19.85a4.785 4.785 0 0 1-.217-1.43c.011-2.362.008-4.724.003-7.086-.002-.69.138-1.35.436-1.965.826-1.704 2.193-2.646 4.08-2.823.247-.023.497-.013.746-.018h.165v-.166c.003-.563-.008-1.125.012-1.687A4.804 4.804 0 0 1 8.687.296C9.03.178 9.392.117 9.746.03c.029-.007.057-.017.085-.026H36.32zM23.055 3.239v-.001H12.89c-.88 0-1.761-.013-2.641.008-.956.023-1.677.761-1.684 1.718a816.685 816.685 0 0 0-.02 6.261c.001.992.705 1.742 1.693 1.814.363.026.729.006 1.094.006l20.613-.006c1.271 0 2.542.003 3.813-.003.76-.004 1.366-.393 1.597-1.04.079-.222.124-.468.126-.704.01-2.104.01-4.208.007-6.313-.001-.502-.168-.944-.543-1.291-.364-.336-.804-.451-1.291-.451-4.2.003-8.4.002-12.6.002zm-4.724 30.598v.124l-.004 8.773a1.772 1.772 0 0 0 .726 1.479 3.128 3.128 0 0 0 1.674.633c.834.074 1.614-.091 2.312-.575.552-.383.826-.905.824-1.584-.008-2.903-.008-5.806-.012-8.709 0-.046-.004-.091-.006-.142h-5.514zm5.56-5.869h-5.482v2.699h5.482v-2.699z"/></svg>