<svg xmlns="http://www.w3.org/2000/svg" width="48" height="48" viewBox="0 0 48 48"><path d="M31.999 6q2.484 0 4.242 1.758T37.999 12v24q0 2.484-1.758 4.242T31.999 42t-4.242-1.758T25.999 36V12q0-2.484 1.758-4.242T31.999 6zM16.001 6q2.484 0 4.242 1.758T22.001 12v24q0 2.484-1.758 4.242T16.001 42t-4.242-1.758T10.001 36V12q0-2.484 1.758-4.242T16.001 6zm0 4q-.828 0-1.415.587t-.587 1.415v24q0 .828.587 1.415t1.415.587 1.415-.587.587-1.415v-24q0-.828-.587-1.415T16.001 10zm15.998 0q-.828 0-1.415.587t-.587 1.415v24q0 .828.587 1.415t1.415.587 1.415-.587.587-1.415v-24q0-.828-.587-1.415T31.999 10z"/></svg>