<svg xmlns="http://www.w3.org/2000/svg" width="48" height="48" viewBox="0 0 48 48"><path d="M.019 44.265V3.812c.012-.063.03-.126.036-.19A3.917 3.917 0 0 1 2.995.166c.324-.083.663-.111.995-.165h40.096c.072.012.142.028.215.033a3.6 3.6 0 0 1 1.497.42c1.473.813 2.184 2.076 2.183 3.752-.002 13.252-.002 26.505-.006 39.758 0 .231-.02.463-.059.69-.299 1.746-1.706 3.331-4.047 3.334-13.148.02-26.294.009-39.441.008-.27 0-.541-.015-.81-.045-1.708-.195-3.043-1.34-3.46-2.968-.06-.236-.093-.477-.138-.715zm44.349-20.26V4.434c0-.099.002-.198-.002-.298-.009-.388-.109-.494-.493-.514-.047-.003-.093-.002-.14-.002H4.274c-.548 0-.645.098-.645.649v39.459c0 .099.003.198.014.297.023.198.134.31.336.322.132.008.264.017.396.017 13.093.002 26.187.002 39.281 0 .658 0 .709-.051.709-.711v-19.65z"/><path d="M25.515 12.492c-.039 1.747-.439 3.429-.942 5.091-.151.5-.312.996-.459 1.495-.024.081-.032.191.003.264.68 1.459 1.446 2.868 2.474 4.119a12.09 12.09 0 0 0 2.736 2.425c.102.068.265.078.393.061 1.445-.194 2.893-.314 4.352-.261 1.047.037 2.085.138 3.075.517.537.206 1.029.482 1.398.941.894 1.111.474 2.544-.878 2.995-.715.238-1.444.228-2.178.132-2.165-.283-4.148-1.075-6.021-2.165a1.19 1.19 0 0 0-.882-.147c-3.336.626-6.529 1.688-9.63 3.055a1.051 1.051 0 0 0-.518.46c-.76 1.325-1.551 2.633-2.514 3.824a13.138 13.138 0 0 1-1.938 1.929c-.799.651-1.904.721-2.681.194a2.056 2.056 0 0 1-.792-2.362c.171-.519.477-.956.84-1.356.948-1.05 2.095-1.836 3.324-2.513.793-.436 1.591-.864 2.389-1.288a.928.928 0 0 0 .399-.395c1.721-3.183 3.27-6.442 4.524-9.84a.903.903 0 0 0-.014-.703c-.596-1.46-1.059-2.96-1.294-4.523-.169-1.133-.248-2.262.099-3.38.28-.9.796-1.572 1.753-1.826 1.102-.291 2.136.189 2.616 1.221.247.531.38 1.277.361 2.034zM20.09 28.526c.012.014.023.025.033.039a52.563 52.563 0 0 1 6.832-2.152c-1.593-1.337-2.732-2.974-3.718-4.773l-3.147 6.885zm2.87-12.086h.054c.021-.058.047-.117.06-.177.145-.617.31-1.23.427-1.852.192-1.011.306-2.028.066-3.05-.06-.258-.159-.372-.375-.394-.24-.026-.441.075-.531.295-.084.207-.166.42-.211.638a5.462 5.462 0 0 0 .001 2.109c.152.814.338 1.621.509 2.433zM37.2 28.353c-.078-.073-.146-.178-.239-.218-.364-.153-.726-.325-1.107-.418-1.095-.265-2.212-.271-3.331-.21-.047.003-.093.011-.138.016 1.539.627 3.084 1.17 4.815.83zm-21.778 4.535c-.02-.021-.038-.044-.057-.065-.614.434-1.236.855-1.837 1.305a4.625 4.625 0 0 0-1.264 1.43c-.066.117-.084.219.016.322.096.099.203.116.321.045l.104-.059c1.226-.705 1.95-1.861 2.718-2.979z"/></svg>