<svg xmlns="http://www.w3.org/2000/svg" width="48" height="48" viewBox="0 0 48 48"><path d="M2.5 43.049v-.473c.033-.16.057-.324.1-.482 1.31-4.81 2.629-9.619 3.928-14.433a3.874 3.874 0 0 1 1.041-1.788c5.669-5.655 11.329-11.32 16.992-16.982l5.586-5.586a2.67 2.67 0 0 1 1.208-.708c.154-.042.314-.065.471-.097h.774c.046.006.091.016.137.018.778.035 1.547.138 2.305.314 2.866.667 5.274 2.108 7.195 4.335 1.924 2.23 2.992 4.826 3.224 7.764l.039.469v.774l-.03.166a2.758 2.758 0 0 1-.805 1.544c-5.058 5.056-10.114 10.113-15.171 15.17-2.526 2.526-5.052 5.051-7.577 7.578a2.776 2.776 0 0 1-1.249.743c-4.251 1.16-8.502 2.321-12.754 3.478-.827.225-1.66.432-2.49.647h-.473c-.024-.006-.047-.016-.072-.019a2.677 2.677 0 0 1-2.277-1.941c-.045-.161-.069-.328-.103-.492zM15.947 25.12c3.178 1.453 5.484 3.76 6.947 6.964.036-.054.055-.094.085-.124l16.865-16.852c.223-.223.222-.223.166-.535-.331-1.836-1.18-3.389-2.567-4.637-1.209-1.088-2.626-1.743-4.236-1.981-.087-.013-.131.021-.183.074L16.034 25.03l-.087.091zM9.022 38.973c.051-.011.082-.015.112-.023 3.102-.845 6.204-1.691 9.306-2.534.092-.025.114-.062.095-.147-.061-.291-.105-.585-.18-.872a8.059 8.059 0 0 0-6.177-5.866c-.184-.038-.371-.065-.559-.097l-2.598 9.539z"/></svg>