<svg xmlns="http://www.w3.org/2000/svg" width="48" height="48" viewBox="0 0 48 48"><path d="M1.994 11.458l.182-1.101c.631-3.911 3.883-7.291 7.766-8.097.986-.205 1.981-.338 2.978-.237 1.317.133 2.603.435 3.789 1.058 3.005 1.579 4.86 4.033 5.46 7.374.937 5.222-2.428 10.306-7.602 11.567-5.503 1.34-11.053-2.099-12.301-7.628-.102-.451-.157-.913-.234-1.37-.007-.04-.023-.078-.036-.117V11.46zm16.446.72c.007-3.476-2.79-6.285-6.262-6.292s-6.28 2.791-6.285 6.266a6.268 6.268 0 0 0 6.25 6.285 6.276 6.276 0 0 0 6.298-6.259zm17.424 13.511c5.357-.001 10.429 4.409 10.129 10.737-.122 2.589-1.16 4.833-3.022 6.656-2.14 2.095-4.75 3.097-7.715 2.905-5.771-.373-9.568-5.098-9.547-10.151a10.168 10.168 0 0 1 10.155-10.147zm-.011 16.441c3.439.017 6.258-2.786 6.276-6.243.018-3.471-2.765-6.294-6.221-6.309a6.262 6.262 0 0 0-6.324 6.246c-.021 3.472 2.779 6.288 6.269 6.306zm5.921-33.954c-.001.47-.154.886-.454 1.248-.081.098-.171.187-.26.276A308163.997 308163.997 0 0 0 9.75 41.017c-.307.307-.64.57-1.066.685a1.954 1.954 0 0 1-2.024-.681c-.476-.615-.542-1.476-.144-2.14.125-.209.289-.403.461-.576 9.758-9.763 19.517-19.523 29.277-29.284.703-.703 1.405-1.409 2.11-2.11.411-.409.891-.673 1.493-.664a1.929 1.929 0 0 1 1.916 1.93z"/></svg>