<svg xmlns="http://www.w3.org/2000/svg" width="48" height="48" viewBox="0 0 48 48"><path d="M10.384 0c1.034.071 1.976.455 2.688 1.335 2.195 2.707 4.394 5.41 6.594 8.112.468.575.834 1.188.924 1.943.104.879-.154 1.632-.768 2.265-.48.495-.969.98-1.45 1.473-.404.413-.795.838-1.205 1.245-.598.594-1.026 1.308-1.471 2.013-.104.162-.029.289.064.413.274.36.558.714.829 1.075 3.368 4.497 7.367 8.364 11.796 11.8.253.197.516.383.775.573.239.177.491.148.718.002.392-.251.788-.501 1.148-.794 1.002-.812 1.89-1.745 2.742-2.71.131-.147.261-.296.398-.436 1.145-1.169 2.656-1.29 3.961-.305.555.418 1.092.863 1.632 1.301 2.336 1.891 4.669 3.786 7.005 5.678 1.394 1.129 1.593 3.339.418 4.69-.805.927-1.603 1.858-2.424 2.771-1.196 1.328-2.658 2.313-4.188 3.206-1.691.986-3.48 1.738-5.386 2.203-.204.05-.408.104-.615.131a1.49 1.49 0 0 1-.77-.083c-3.965-1.565-7.662-3.629-11.223-5.952-3.285-2.143-6.359-4.553-9.121-7.346-3.284-3.319-6.078-7.017-8.514-10.995-1.719-2.806-3.208-5.729-4.529-8.742-.052-.12-.099-.245-.165-.357-.251-.418-.232-.858-.129-1.311C1.146 8.705 3.499 5.023 6.943 2.003c.463-.406.906-.839 1.374-1.239.408-.35.871-.611 1.405-.716.191-.038.39-.032.657-.051zm30.455 41.667c-.041-.03-.063-.044-.082-.06-2.838-2.323-5.676-4.648-8.513-6.975-.09-.074-.153-.062-.242-.011-.32.181-.639.361-.966.53-1.077.55-2.148.528-3.19-.086a13.928 13.928 0 0 1-1.28-.844 64.424 64.424 0 0 1-13.423-13.622c-.46-.633-.733-1.329-.711-2.122.025-.875.391-1.623.88-2.319.117-.166.113-.262-.014-.417-2.014-2.472-4.023-4.95-6.031-7.427l-.888-1.089-.046.066c-1.287 1.822-2.33 3.767-2.948 5.922a1.11 1.11 0 0 0 .051.784 63.553 63.553 0 0 0 6.295 11.216c3.579 5.072 7.866 9.435 12.952 13.005 3.576 2.511 7.387 4.599 11.366 6.395.28.126.546.138.838.058 2.177-.597 4.092-1.706 5.954-3.002zM8.58 4.762l6.937 8.489c.645-.586 1.279-1.164 1.929-1.757l-6.889-8.413-1.979 1.682zm34.657 34.655l1.468-1.707c.191-.222.191-.224-.042-.41l-7.056-5.645c-.399-.32-.798-.638-1.206-.961l-1.712 1.812 8.546 6.91z"/></svg>