<svg xmlns="http://www.w3.org/2000/svg" width="48" height="48" viewBox="0 0 48 48"><path d="M18.159 0c.291.057.584.111.875.173 1.954.406 3.471 2.06 3.686 4.04.093.855-.119 1.663-.462 2.441-.111.25-.239.495-.363.753 4.703 3.573 9.405 7.146 14.125 10.734.142-.118.284-.24.428-.355.334-.267.65-.564 1.011-.789 1.251-.779 2.583-1.004 3.975-.428 1.592.659 2.754 2.496 2.685 4.209-.038.931-.408 1.737-1.079 2.373-.585.556-1.222 1.059-1.842 1.578-2.561 2.147-5.123 4.291-7.683 6.437-.039.033-.077.07-.124.114.444.53.883 1.054 1.323 1.578 3.417 4.072 6.836 8.143 10.252 12.217.689.821.59 1.952-.216 2.555-.686.513-1.511.501-2.133-.092-.426-.407-.798-.873-1.178-1.326-3.517-4.188-7.032-8.377-10.546-12.567-.041-.05-.084-.096-.138-.157-.237.198-.469.393-.702.588-2.814 2.364-5.63 4.727-8.439 7.096-.622.525-1.302.912-2.114 1.043-.845.136-1.634-.018-2.364-.456-.982-.588-1.773-1.359-2.134-2.474-.519-1.605-.167-3.033.978-4.256.359-.384.779-.709 1.172-1.06.062-.054.126-.105.206-.171L9.251 18.046c-.384.088-.758.188-1.136.259-1.153.222-2.275.154-3.282-.51-1.206-.795-1.909-1.936-2.184-3.349-.028-.149-.048-.299-.071-.447v-.633c.01-.045.024-.088.028-.133.144-1.364.744-2.505 1.779-3.383 3.402-2.881 6.822-5.744 10.239-8.605.694-.582 1.498-.951 2.393-1.115.24-.043.48-.087.72-.131h.422zm1.897 31.536c4.434-3.72 8.846-7.42 13.269-11.133-4.603-3.498-9.184-6.978-13.767-10.459-.042.032-.076.054-.106.081-.529.445-1.059.891-1.588 1.335-.66.553-1.319 1.11-1.983 1.659-.636.527-1.464.578-2.101.14-.975-.671-1.014-2-.078-2.787 1.462-1.23 2.927-2.458 4.39-3.685.551-.46.922-1.038 1.145-1.716.072-.222.098-.447.009-.672-.197-.496-.942-.913-1.47-.829-.47.073-.851.318-1.204.615-3.28 2.755-6.563 5.511-9.839 8.272-.198.167-.37.377-.516.593-.212.316-.252.677-.158 1.047.182.711.623 1.057 1.259.989.099-.01.197-.032.294-.051.511-.111.966-.352 1.401-.633.291-.188.573-.389.869-.567.435-.264.883-.145 1.147.291.036.06.067.123.101.184 2.94 5.711 5.88 11.42 8.818 17.13.032.061.065.121.107.201zm-1.893 6.42c.038.08.062.174.116.245.113.142.235.277.363.405.304.304.322.303.658.023 6.738-5.649 13.476-11.298 20.212-16.946.337-.282.675-.564 1.006-.852.216-.188.231-.29.077-.531-.092-.143-.2-.274-.307-.405-.178-.216-.414-.276-.663-.163-.199.09-.395.207-.563.348-6.786 5.691-13.569 11.386-20.347 17.085-.18.151-.314.36-.457.55-.047.062-.058.15-.095.243z"/></svg>