<svg xmlns="http://www.w3.org/2000/svg" width="48" height="48" viewBox="0 0 48 48"><path d="M40.194 23.63v.739c-.084.286-.142.583-.257.858-.399.959-1.125 1.624-2.001 2.14-7.809 4.593-15.618 9.186-23.438 13.764-.519.303-1.109.49-1.676.703-.24.09-.507.111-.762.164h-.925c-.066-.017-.132-.035-.198-.047-1.455-.256-2.512-.997-2.973-2.456-.071-.225-.108-.46-.16-.691V9.191c.014-.034.034-.069.039-.105.217-1.515 1.087-2.466 2.534-2.913.248-.077.505-.118.759-.175h.925c.019.01.039.028.06.031.956.104 1.803.488 2.622.969 6.547 3.852 13.098 7.697 19.647 11.544 1.203.707 2.407 1.407 3.604 2.122.887.531 1.607 1.224 1.986 2.211.093.242.144.501.215.752zM11.98 38.422c.116-.066.195-.111.271-.156l9.163-5.385c4.648-2.732 9.297-5.463 13.944-8.199.197-.116.387-.255.549-.416.175-.174.174-.355.002-.532a2.354 2.354 0 0 0-.489-.381c-.8-.48-1.605-.948-2.409-1.421L12.231 9.724c-.075-.045-.153-.084-.253-.138v28.836z"/></svg>