<svg xmlns="http://www.w3.org/2000/svg" width="48" height="48" viewBox="0 0 48 48"><path d="M2.194 25.442c.022-.29.043-.581.066-.87.365-4.735 2.087-8.914 5.142-12.544a18.92 18.92 0 0 1 1.202-1.298c.699-.692 1.551-.876 2.474-.597.919.277 1.516.91 1.714 1.861.181.873-.063 1.639-.695 2.274a17.008 17.008 0 0 0-2.841 3.771 16.122 16.122 0 0 0-1.915 5.798c-.561 4.36.349 8.387 2.9 11.981 2.621 3.693 6.167 6.043 10.64 6.856 4.944.9 9.469-.162 13.448-3.256 3.337-2.594 5.468-5.991 6.196-10.17.986-5.664-.515-10.624-4.468-14.818-.427-.454-.771-.928-.874-1.56-.231-1.401.877-2.777 2.295-2.847.792-.039 1.454.217 2.01.784 3.106 3.158 5.076 6.919 5.932 11.26.41 2.084.481 4.187.269 6.299a21.805 21.805 0 0 1-16.02 18.84c-2.302.629-4.646.844-7.027.702-8.995-.533-17.252-6.762-19.756-16.312a20.815 20.815 0 0 1-.663-4.462c-.003-.088-.019-.175-.03-.263V25.44z"/><path d="M24.225.049c.133.027.266.051.398.082a2.493 2.493 0 0 1 1.864 2.468c0 7.115-.002 14.23.002 21.344 0 1.027-.454 1.793-1.346 2.272-1.6.859-3.578-.311-3.631-2.129-.002-.06-.002-.12-.002-.178 0-7.091.002-14.182-.002-21.273 0-.88.337-1.582 1.036-2.109a2.266 2.266 0 0 1 1.132-.448c.04-.005.079-.021.12-.031h.43z"/></svg>