<svg xmlns="http://www.w3.org/2000/svg" width="62" height="48" viewBox="0 0 62 48"><path d="M0 38.119v-21.05c.076-.232.14-.469.228-.695.479-1.232 1.596-1.963 3.014-1.964 3.125-.004 6.248-.002 9.373-.002h.306V1.973c0-.086-.002-.171.002-.257.033-1.028.742-1.715 1.77-1.715h33.034c.748 0 1.382.454 1.587 1.172.08.282.109.588.109.882.006 4.013.002 8.023 0 12.036v.317h.335c3.133 0 6.265-.002 9.398.002 1.822.002 3.148 1.338 3.148 3.156 0 6.692.002 13.383-.002 20.077 0 .857-.315 1.6-.913 2.212-.662.678-1.499.907-2.422.905-3.064-.004-6.129-.002-9.193-.002h-.35v.331c0 1.725.004 3.448-.002 5.173-.004.979-.728 1.739-1.643 1.739H14.566c-.093 0-.193.006-.278-.023-.738-.257-1.287-.623-1.345-1.598a7.86 7.86 0 0 1-.019-.485c-.002-1.604 0-3.209 0-4.815v-.323h-.362c-2.126 0-4.25.004-6.376 0-1.1-.002-2.204.023-3.302-.025-1.33-.058-2.441-1.014-2.778-2.307-.027-.103-.066-.204-.101-.308v.004zm3.3-7.84h55.63V17.795H3.3v12.484zm13.009 3.294v11.043h29.63V33.573h-29.63zm.002-30.106v11.031h29.63V3.467h-29.63zm-3.415 33.924v-3.814h-9.55v3.814h9.55zm46.03 0v-3.808h-9.48v3.808h9.48z"/><path d="M49.861 28.863a1.932 1.932 0 0 1-1.927-1.968 1.945 1.945 0 0 1 1.957-1.92 1.962 1.962 0 0 1 1.935 1.974 1.944 1.944 0 0 1-1.963 1.912l-.002.002zm7.665-1.929a1.922 1.922 0 0 1-1.964 1.927c-1.065-.01-1.931-.892-1.922-1.953s.892-1.939 1.947-1.935a1.94 1.94 0 0 1 1.937 1.961h.002zM29.825 6.037h9.267c.973.006 1.48.672 1.24 1.632-.121.487-.409.894-1.127.892-6.203-.014-12.408-.008-18.611-.006-.461 0-.901-.039-1.129-.522-.257-.545-.261-1.09.072-1.608.195-.304.496-.387.843-.385 1.084.004 2.167 0 3.251 0h6.195v-.002h-.002zm-2.116 7.007c-2.414 0-4.83.002-7.245-.002-.648-.002-.938-.203-1.106-.736-.189-.605-.01-1.357.432-1.624.169-.103.403-.134.607-.134 3.635-.008 7.27-.006 10.905-.008 1.178 0 2.356.002 3.532-.008.491-.004.917.076 1.131.596.234.567.164 1.301-.22 1.655a.912.912 0 0 1-.539.234c-.946.029-1.892.025-2.841.027-1.554.002-3.105 0-4.659 0v-.002l.002.002z"/></svg>