<svg xmlns="http://www.w3.org/2000/svg" width="48" height="48" viewBox="0 0 48 48"><path d="M24.792 48.024h-1.536c-.055-.007-.11-.017-.166-.019-1.736-.062-3.449-.295-5.126-.749C11.454 45.492 6.5 41.683 3.127 35.85 1.27 32.639.281 29.153.065 25.449l-.042-.657V23.28c.006-.043.015-.085.018-.128.057-.713.094-1.428.175-2.139a22.477 22.477 0 0 1 1.023-4.575 23.74 23.74 0 0 1 6.425-10 23.719 23.719 0 0 1 9.399-5.417 22.851 22.851 0 0 1 5.392-.955c.219-.012.438-.028.656-.042h1.992c.055.007.11.016.165.02.633.051 1.269.082 1.9.157 1.572.188 3.105.551 4.604 1.059 7.46 2.529 13.288 8.688 15.404 16.288.457 1.642.733 3.314.827 5.017.012.223.029.445.044.667v1.536c-.006.043-.015.085-.018.128-.041.57-.069 1.141-.125 1.71a22.403 22.403 0 0 1-.832 4.214c-1.431 4.789-4.084 8.766-7.966 11.911-2.84 2.3-6.055 3.849-9.616 4.674-1.327.307-2.67.499-4.03.575-.223.012-.446.029-.668.044zm-.79-3.466c11.351-.013 20.568-9.215 20.565-20.532-.003-11.349-9.209-20.553-20.552-20.549-11.312.004-20.523 9.202-20.518 20.487.005 11.378 9.194 20.606 20.506 20.593z"/><path d="M24.223 9.087c1.473-.01 2.93.142 4.366.47 1.276.291 2.359.905 3.156 1.968.528.704.833 1.504 1.01 2.36.241 1.171.359 2.354.337 3.55a15.538 15.538 0 0 1-.531 3.801c-.401 1.468-1.311 2.543-2.632 3.269-.531.292-1.089.535-1.643.783-.892.4-1.716.906-2.479 1.515a.665.665 0 0 0-.272.524c-.008.392 0 .784-.006 1.175-.006.472-.176.865-.574 1.14a1.33 1.33 0 0 1-.769.231c-.9.003-1.8.009-2.7-.001-.771-.009-1.294-.552-1.3-1.319-.005-.596-.026-1.192-.019-1.787.009-.803.105-1.595.402-2.35.317-.804.832-1.441 1.583-1.879 1.25-.729 2.541-1.38 3.842-2.012.259-.126.511-.265.774-.38.557-.242.834-.664.908-1.262.096-.783.195-1.565.138-2.354a11.068 11.068 0 0 0-.172-1.281c-.084-.438-.476-.748-.941-.799a25.956 25.956 0 0 0-3.952-.141c-.519.022-1.038.058-1.556.095-.277.019-.451.152-.51.428-.079.374-.163.754-.181 1.134-.035.734-.025 1.47-.033 2.206-.003.276-.044.542-.185.784-.23.393-.582.616-1.029.625-.959.018-1.919.007-2.879.006-.059 0-.119-.012-.178-.023-.622-.118-1.039-.602-1.044-1.238-.008-.952-.023-1.904-.001-2.855.025-1.03.199-2.036.652-2.975.61-1.265 1.604-2.111 2.895-2.625.736-.293 1.506-.451 2.284-.574 1.073-.17 2.155-.217 3.239-.207zm-5.585 8.674c0-.081.003-.156 0-.231-.039-.999.025-1.989.229-2.97.235-1.13 1.052-1.889 2.162-1.973a51.92 51.92 0 0 1 2.3-.119c1.02-.032 2.039.02 3.055.115.373.035.747.061 1.107.187 1.041.363 1.711 1.059 1.95 2.146a9.49 9.49 0 0 1 .213 2.023c.003.81-.083 1.612-.213 2.41-.146.898-.575 1.626-1.343 2.122-.357.231-.747.415-1.13.602-1.318.643-2.63 1.297-3.897 2.035-.325.189-.58.449-.722.793a4.686 4.686 0 0 0-.266.866c-.133.667-.107 1.345-.088 2.021.002.083.008.165.013.252h1.697c0-.184.002-.359 0-.534-.01-.829.256-1.543.906-2.079a12.266 12.266 0 0 1 2.637-1.669c.561-.261 1.131-.505 1.682-.787.939-.481 1.606-1.205 1.882-2.245.239-.898.38-1.814.436-2.742a14.03 14.03 0 0 0-.308-3.872c-.316-1.443-1.172-2.376-2.611-2.745a14.04 14.04 0 0 0-2.494-.398c-1.45-.102-2.901-.11-4.346.09-.681.095-1.357.22-2.005.457-1.057.385-1.822 1.074-2.198 2.154a6.046 6.046 0 0 0-.313 1.884c-.013.696.001 1.392.004 2.088 0 .038.007.076.011.115h1.652zm.891 16.269c.002-1.948 1.574-3.504 3.538-3.503 1.904.001 3.485 1.592 3.481 3.503a3.515 3.515 0 0 1-3.524 3.509 3.504 3.504 0 0 1-3.495-3.508zm4.869.012a1.37 1.37 0 0 0-1.36-1.374c-.759.002-1.365.61-1.363 1.368s.597 1.353 1.357 1.358a1.36 1.36 0 0 0 1.366-1.351z"/></svg>