<svg xmlns="http://www.w3.org/2000/svg" width="48" height="48" viewBox="0 0 48 48"><path d="M16.571 3.592H5.551c-.053.012-.105.029-.158.034A5.98 5.98 0 0 0 .238 7.951c-.11.389-.161.794-.239 1.191v20c.012.073.028.146.037.219.074.613.109 1.234.226 1.839.843 4.379 3.098 7.856 6.757 10.402 2.152 1.497 4.549 2.38 7.155 2.688.363.043.727.078 1.091.117h1.224l.299-.053c2.457-.419 4.081-2.557 3.826-5.039-.209-2.036-1.98-3.807-4.019-4.011-.561-.056-1.132-.046-1.684-.145-2.943-.523-5.129-2.714-5.67-5.657-.056-.302-.073-.612-.11-.933h.286c2.17 0 4.34.001 6.51-.002.251 0 .503-.011.754-.034 2.972-.263 5.378-2.813 5.398-5.799.029-4.415.009-8.83.007-13.244 0-.203-.018-.408-.041-.61-.261-2.359-1.995-4.41-4.281-5.045-.39-.108-.795-.165-1.192-.245zM3.386 19.214h-.002V9.683c.001-1.57 1.133-2.705 2.699-2.706 3.306-.002 6.612-.001 9.918 0 .143 0 .287.001.427.022 1.356.21 2.275 1.262 2.276 2.636.005 4.299.002 8.599 0 12.898 0 .156-.007.314-.036.467-.244 1.31-1.297 2.183-2.635 2.184-2.844.002-5.687-.001-8.531.001-1.017.001-1.746.734-1.749 1.752-.001.49-.004.98.001 1.469.013 1.277.248 2.512.719 3.701 1.556 3.925 5.273 6.48 9.517 6.542.724.011 1.284.554 1.275 1.235-.008.576-.518 1.164-1.285 1.142a14.323 14.323 0 0 1-2.947-.372c-5.548-1.333-9.614-6.435-9.646-12.135-.018-3.102-.003-6.204-.003-9.306zM48 23.02V9.142c-.013-.065-.031-.13-.037-.195-.23-2.365-1.985-4.469-4.28-5.107-.403-.112-.822-.167-1.234-.249h-11.02c-.332.062-.669.106-.996.19-2.7.693-4.519 3.06-4.52 5.893-.004 6.203 0 12.406-.003 18.609 0 1.078.09 2.147.311 3.201.828 3.959 2.843 7.184 6.051 9.646 2.31 1.772 4.927 2.818 7.821 3.161.364.043.728.078 1.092.116h1.224c.039-.012.076-.029.116-.034 2.493-.329 4.21-2.437 4.011-4.925-.169-2.121-1.942-3.935-4.061-4.146-.446-.044-.898-.036-1.342-.092a6.937 6.937 0 0 1-5.845-5.078 6.023 6.023 0 0 1-.228-1.563h.257c2.183 0 4.366.001 6.55-.001.238 0 .476-.011.713-.033 2.434-.226 4.519-1.954 5.177-4.305.111-.396.164-.808.244-1.212zm-18.705-3.751h-.003c0-3.17-.001-6.34.001-9.51 0-.197 0-.397.035-.589.238-1.311 1.293-2.191 2.628-2.192 3.313-.003 6.626-.002 9.939-.001 1.594 0 2.719 1.128 2.72 2.726v12.755c0 1.599-1.125 2.726-2.719 2.727h-5.939c-.871 0-1.742-.006-2.612.002-.866.007-1.647.681-1.66 1.513-.016 1.025-.058 2.068.098 3.073.582 3.739 2.637 6.411 6.067 8.005 1.299.604 2.686.857 4.118.875.662.008 1.218.579 1.211 1.218-.006.643-.55 1.148-1.235 1.15a12.164 12.164 0 0 1-2.532-.259c-5.83-1.216-10.042-6.299-10.111-12.25-.036-3.081-.006-6.163-.006-9.245z"/></svg>