<svg xmlns="http://www.w3.org/2000/svg" width="48" height="48" viewBox="0 0 48 48"><path d="M1.999 25.999h12q.828 0 1.414.586T15.999 28t-.586 1.415-1.414.586h-6.75l5.438 5.313Q15 37.642 17.983 38.83q2.859 1.171 6.015 1.171t6.015-1.171q1.563-.641 2.929-1.571t2.328-1.907 1.751-2.094 1.266-2.055.804-1.875q.282-.782 1.032-1.133t1.515-.085q.782.282 1.132 1.023t.086 1.508q-.657 1.999-1.907 3.969t-2.813 3.531q-2.876 2.876-6.609 4.391Q27.902 44 23.995 44q-3.891 0-7.532-1.468-3.735-1.515-6.609-4.391l-5.859-5.734v7.594q0 .828-.587 1.415t-1.414.586-1.414-.586-.587-1.415v-12q0-.828.587-1.415T1.994 26zM24 4q3.891 0 7.532 1.468 3.735 1.515 6.609 4.391l.031.031L44 15.593V7.998q0-.828.587-1.414t1.414-.587 1.415.587.586 1.414v12q0 .828-.586 1.414t-1.415.587h-12q-.828 0-1.414-.587T32 19.998t.587-1.415 1.414-.587h6.75l-5.438-5.313q-2.282-2.282-5.196-3.485T24 7.995q-3.156 0-6.015 1.171-2.985 1.188-5.296 3.516-.938.828-2.055 2.523t-1.726 3.46q-.282.782-1.032 1.133t-1.515.086q-.782-.282-1.132-1.023t-.086-1.507q.657-2 1.906-3.969t2.813-3.531q2.875-2.875 6.609-4.39 3.641-1.469 7.532-1.469z"/></svg>