<svg xmlns="http://www.w3.org/2000/svg" width="48" height="48" viewBox="0 0 48 48"><path d="M22 4q3.891 0 7.531 1.468 3.735 1.515 6.609 4.391l5.859 5.735V7.999q0-.828.587-1.414T44 5.998t1.415.587.586 1.414v12q0 .828-.586 1.414T44 22H32q-.828 0-1.415-.587t-.586-1.414.586-1.415T32 17.997h6.75q-4.344-4.22-5.438-5.313-2.328-2.328-5.296-3.516-2.859-1.171-6.015-1.171t-6.015 1.171q-2.985 1.188-5.297 3.516-2.313 2.313-3.516 5.297-1.171 2.859-1.171 6.015t1.171 6.015q1.203 2.985 3.516 5.296 2.313 2.328 5.297 3.516 2.859 1.172 6.015 1.172t6.015-1.172q2.968-1.188 5.296-3.516 2.593-2.593 3.782-5.985.266-.782 1.016-1.132t1.532-.085q.782.282 1.14 1.032t.078 1.532q-.718 2.047-1.945 4t-2.773 3.469q-2.876 2.876-6.609 4.391-3.64 1.468-7.532 1.468t-7.532-1.468q-3.735-1.515-6.609-4.391t-4.39-6.609q-1.469-3.641-1.469-7.532t1.469-7.532q1.515-3.735 4.39-6.609t6.609-4.39q3.64-1.469 7.532-1.469z"/></svg>