<svg xmlns="http://www.w3.org/2000/svg" width="48" height="48" viewBox="0 0 48 48"><path d="M29.287 18.705l-10.54.005c-.017 0-.032-.005-.05-.005h-4.248l8.786-8.791a2.586 2.586 0 0 0 0-3.659l-.036-.038a2.586 2.586 0 0 0-3.657 0L6.524 19.244c-.092.07-.185.136-.268.219l-.014.014-.009.01-.014.014a2.357 2.357 0 0 0-.234.288c-.023.03-.052.056-.073.088a2.581 2.581 0 0 0-.45 1.467l-.001.012.001.012a2.578 2.578 0 0 0 .45 1.467c.021.031.048.057.07.087.075.099.147.199.237.289l.014.014.009.009.014.014c.083.084.176.15.268.22l13.018 13.026a2.586 2.586 0 0 0 3.657 0l.036-.037a2.587 2.587 0 0 0 0-3.66l-8.786-8.791h4.248c.018 0 .034-.005.05-.005v.005h10.54c4.38 0 7.943 3.566 7.943 7.947v7.94a2.649 2.649 0 0 0 5.296 0v-7.94c0-7.315-5.926-13.246-13.238-13.246z"/></svg>