<svg xmlns="http://www.w3.org/2000/svg" width="48" height="48" viewBox="0 0 48 48"><path d="M16.719 7.266q.812 0 1.406.586t.594 1.414-.594 1.422l-9.313 9.313h19.187q3.656 0 6.992 1.422t5.742 3.836 3.836 5.742 1.43 7v2q0 .828-.586 1.414t-1.414.586q-.812 0-1.406-.594t-.594-1.406v-2q0-2.844-1.109-5.438t-2.984-4.469-4.469-2.984-5.438-1.109H8.812l9.313 9.328q.594.594.594 1.406 0 .828-.586 1.422t-1.414.594-1.422-.594L2.578 23.423Q2 22.845 2 22.001q0-.828.578-1.406L15.297 7.861q.594-.594 1.422-.594z"/></svg>