<svg xmlns="http://www.w3.org/2000/svg" width="48" height="48" viewBox="0 0 48 48"><path d="M22.875 8.2a2.024 2.024 0 0 0-2.113.212l-18 14c-.487.375-.775.962-.775 1.575s.287 1.2.775 1.575l18 14c.362.275.788.425 1.225.425.3 0 .6-.062.875-.2a2.008 2.008 0 0 0 1.125-1.8V9.999a1.975 1.975 0 0 0-1.112-1.8zM20 33.913L7.263 24 20 14.087v19.825z"/><path d="M44.875 8.2a2.024 2.024 0 0 0-2.113.212l-18 14c-.487.375-.775.962-.775 1.575s.287 1.2.775 1.575l18 14c.362.275.788.425 1.225.425.3 0 .6-.062.875-.2a2.008 2.008 0 0 0 1.125-1.8V9.999a1.975 1.975 0 0 0-1.112-1.8zM42 33.913L29.263 24 42 14.087v19.825z"/></svg>