<svg xmlns="http://www.w3.org/2000/svg" width="48" height="48" viewBox="0 0 48 48"><path d="M13.576 48.044c-.217-.033-.436-.053-.649-.102a2.936 2.936 0 0 1-2.266-2.794c-.02-.907.315-1.657.949-2.292 6.184-6.183 12.367-12.367 18.554-18.55.059-.059.135-.101.203-.151l.009-.085c-.074-.053-.158-.095-.221-.158L11.626 5.409c-.454-.454-.772-.978-.909-1.613-.384-1.799.959-3.525 2.793-3.593.893-.033 1.644.271 2.273.903 1.061 1.065 2.126 2.126 3.188 3.188 5.88 5.88 11.76 11.761 17.641 17.639.492.49.828 1.054.91 1.752.11.927-.103 1.759-.75 2.459a7.596 7.596 0 0 1-.178.181c-6.915 6.915-13.831 13.828-20.743 20.747-.487.487-1.045.817-1.732.918-.146.021-.294.035-.441.053h-.102z"/></svg>