<svg xmlns="http://www.w3.org/2000/svg" width="48" height="48" viewBox="0 0 48 48"><path d="M44.895 6.495c.93-.93.93-2.46 0-3.39s-2.46-.93-3.39 0L24 20.61l-6.135-6.135A9.574 9.574 0 0 0 19.2 9.6c0-5.295-4.305-9.6-9.6-9.6S0 4.305 0 9.6s4.305 9.6 9.6 9.6c1.785 0 3.45-.48 4.875-1.335L20.61 24l-6.135 6.135A9.574 9.574 0 0 0 9.6 28.8c-5.295 0-9.6 4.305-9.6 9.6S4.305 48 9.6 48s9.6-4.305 9.6-9.6c0-1.785-.48-3.45-1.335-4.875l27.03-27.03zM4.8 9.6c0-2.64 2.16-4.8 4.8-4.8s4.8 2.16 4.8 4.8c0 1.29-.51 2.475-1.35 3.33l-.06.06-.06.06c-.87.84-2.04 1.35-3.33 1.35-2.64 0-4.8-2.16-4.8-4.8zm4.8 33.6c-2.64 0-4.8-2.16-4.8-4.8s2.16-4.8 4.8-4.8c1.29 0 2.475.51 3.33 1.35l.06.06.06.06c.84.87 1.35 2.04 1.35 3.33 0 2.64-2.16 4.8-4.8 4.8z"/><path d="M31.62 28.26a2.408 2.408 0 0 0-3.39 0c-.93.945-.93 2.46 0 3.39l13.275 13.245c.465.465 1.08.705 1.695.705s1.23-.24 1.695-.705c.93-.945.93-2.46 0-3.39L31.62 28.26z"/></svg>