<svg xmlns="http://www.w3.org/2000/svg" width="48" height="48" viewBox="0 0 48 48"><path d="M43.946 45.458H4.077c-.039-.013-.078-.033-.118-.039a4.61 4.61 0 0 1-3.88-3.906c-.012-.089-.052-.174-.079-.261v-8.068c.034-.144.075-.287.102-.432a4.587 4.587 0 0 1 1.017-2.157c-.015-.022-.025-.041-.039-.058a4.583 4.583 0 0 1-1.009-2.325c-.01-.075-.048-.147-.072-.221v-8.068c.026-.08.065-.158.076-.24a4.578 4.578 0 0 1 .903-2.169c.033-.044.061-.092.087-.132l-.029-.05a4.595 4.595 0 0 1-.966-2.278c-.009-.067-.047-.13-.072-.196V6.79c.027-.095.066-.189.079-.287a4.612 4.612 0 0 1 3.542-3.837c.208-.046.418-.083.627-.125h39.526c.182.034.364.064.546.101 2.295.471 3.708 2.539 3.679 4.486-.036 2.453-.008 4.906-.01 7.359 0 .214.002.431-.028.642a4.496 4.496 0 0 1-.886 2.112c-.034.045-.064.092-.092.131.008.025.009.041.017.052.02.03.041.058.063.087.616.821.935 1.736.931 2.772-.01 2.453-.003 4.906-.005 7.359 0 .214.002.431-.028.642a4.52 4.52 0 0 1-.941 2.179l-.104.134c.049.054.093.099.132.147a4.474 4.474 0 0 1 .946 2.809c-.012 2.439-.003 4.878-.005 7.316 0 .214.005.431-.024.643-.263 1.922-1.755 3.491-3.667 3.866-.118.023-.235.052-.352.078zm-19.935-3.247h19.182c.093 0 .186.001.279-.003.454-.019.806-.227 1.063-.594.17-.242.234-.515.233-.81-.003-1.688-.001-3.376-.001-5.064 0-.73.004-1.459-.002-2.189a1.32 1.32 0 0 0-1.006-1.285 2.12 2.12 0 0 0-.51-.047c-12.817-.002-25.634-.002-38.451-.001-.1 0-.2.002-.3.012a1.316 1.316 0 0 0-1.154.973 2.015 2.015 0 0 0-.052.509c-.003 2.332-.002 4.663-.002 6.995 0 .079 0 .157.004.236.033.58.419 1.069.983 1.214.177.046.368.052.552.052 6.394.002 12.788.002 19.182.002zm.012-26.408h19.118c.107 0 .215.002.322-.001a1.3 1.3 0 0 0 .84-.331c.312-.276.465-.624.464-1.043-.002-1.273 0-2.546 0-3.819 0-1.144.003-2.289-.001-3.433a1.348 1.348 0 0 0-1.165-1.354c-.126-.019-.257-.015-.385-.015H4.829c-.079 0-.157-.002-.236.001a1.338 1.338 0 0 0-1.247.976c-.041.149-.054.31-.054.466-.003 2.367-.002 4.735-.002 7.102 0 .064.001.129.005.193a1.326 1.326 0 0 0 1.013 1.213c.158.037.326.044.489.044 6.409.002 12.817.002 19.226.002zm.009 3.167H4.892c-.1 0-.2-.002-.3.002a1.32 1.32 0 0 0-1.246.972 1.89 1.89 0 0 0-.054.487c-.003 2.353-.002 4.706-.002 7.059 0 .071 0 .143.005.214a1.33 1.33 0 0 0 1.14 1.238c.141.02.285.023.428.023l38.322.001c.072 0 .144.006.214-.002.128-.013.258-.021.381-.055.589-.164.984-.683.986-1.304.004-1.28.002-2.561.002-3.841 0-1.152.004-2.303-.002-3.455A1.328 1.328 0 0 0 43.706 19c-.152-.032-.313-.029-.469-.029l-19.204-.001z"/><path d="M8.256 38.815c-.207 0-.416.015-.621-.002-.848-.07-1.479-.794-1.46-1.664a1.604 1.604 0 0 1 1.52-1.566c.371-.016.744-.015 1.115 0 .84.035 1.513.739 1.529 1.583.016.849-.626 1.577-1.461 1.647-.206.017-.414.003-.621.003zm6.446-3.236c.179 0 .358-.007.536.001a1.618 1.618 0 0 1 1.539 1.574c.019.862-.622 1.598-1.47 1.657a9.046 9.046 0 0 1-1.221.001c-.852-.058-1.486-.783-1.472-1.652a1.61 1.61 0 0 1 1.531-1.579c.185-.008.372-.001.557-.001zm6.431 3.237c-.207 0-.416.014-.621-.003-.852-.069-1.485-.79-1.467-1.658a1.603 1.603 0 0 1 1.533-1.574c.364-.014.729-.014 1.093 0 .85.034 1.524.741 1.538 1.598a1.62 1.62 0 0 1-1.476 1.634c-.199.016-.4.002-.6.002zm-.038-26.472c-.242-.012-.49.004-.726-.04-.814-.149-1.355-.846-1.322-1.677a1.583 1.583 0 0 1 1.442-1.525c.432-.04.874-.038 1.305.005.832.082 1.456.838 1.415 1.663a1.625 1.625 0 0 1-1.576 1.563c-.179.004-.357.001-.536.001v.011zm-12.844-.012c-.164 0-.329.003-.493-.001-.842-.019-1.539-.685-1.581-1.508-.045-.887.552-1.635 1.417-1.718a6.968 6.968 0 0 1 1.347.003c.826.082 1.436.841 1.396 1.678a1.625 1.625 0 0 1-1.55 1.544c-.178.006-.357.001-.536.001v.001zm6.427 0c-.164 0-.329.003-.493-.001a1.611 1.611 0 0 1-1.579-1.531c-.045-.866.56-1.613 1.419-1.695a7.391 7.391 0 0 1 1.347.003c.723.064 1.425.722 1.392 1.659a1.611 1.611 0 0 1-1.549 1.564c-.178.006-.357.001-.536.001v.001zm6.444 13.27c-.256-.016-.517-.007-.768-.053-.778-.142-1.314-.809-1.31-1.601a1.606 1.606 0 0 1 1.331-1.586c.105-.019.213-.032.319-.03.392.006.789-.014 1.176.037.741.098 1.388.792 1.331 1.687a1.616 1.616 0 0 1-1.586 1.53c-.164.004-.329.001-.493.001l-.001.016zm-12.867.002c-.263-.018-.531-.01-.789-.058-.77-.144-1.302-.823-1.292-1.616a1.61 1.61 0 0 1 1.329-1.567c.112-.02.227-.033.341-.031.385.005.776-.019 1.155.037.822.122 1.4.886 1.336 1.706a1.631 1.631 0 0 1-1.586 1.511c-.164.004-.329.001-.493.001l-.001.017zm6.413-.002c-.249-.016-.503-.007-.746-.051-.821-.15-1.365-.865-1.315-1.701a1.603 1.603 0 0 1 1.511-1.511 7.786 7.786 0 0 1 1.305.029c.731.087 1.394.773 1.339 1.68a1.612 1.612 0 0 1-1.599 1.538c-.164.003-.329 0-.493 0l-.001.015z"/></svg>