<svg xmlns="http://www.w3.org/2000/svg" width="48" height="48" viewBox="0 0 48 48"><path d="M45.6 43.2h-2.16c-2.16 0-2.88-1.92-4.56-3.12l6.48-17.76c0.48-1.2 0-2.4-1.2-2.88l-6-3.12-2.16-14.4c-0.24-1.2-1.2-1.92-2.4-1.92h-19.2c-1.2 0-2.4 0.96-2.4 1.92l-2.4 14.4-6 3.12c-1.2 0.48-1.68 1.92-1.2 2.88l6.48 18c-0.72 0.72-1.2 0.96-1.92 1.92-0.72 0.72-1.44 0.96-2.4 0.96h-2.16c-1.44 0-2.4 0.96-2.4 2.4s0.96 2.4 2.4 2.4h2.4c2.16 0 4.080-0.72 5.76-2.4 1.2-1.2 2.16-2.4 3.84-2.4 2.16 0 2.64 0.96 4.080 2.4 3.12 3.12 8.4 3.12 11.52 0l1.44-1.44c1.2-1.2 3.6-1.44 5.040 0 2.16 2.16 3.84 3.84 7.2 3.84h1.92c1.44 0 2.4-0.96 2.4-2.4s-0.96-2.4-2.4-2.4zM16.32 4.8h15.12l1.44 8.88-7.92-3.84c-0.72-0.24-1.44-0.24-2.16 0l-7.92 3.84 1.44-8.88zM23.76 14.64c13.2 6.48 9.6 4.8 16.32 8.16l-1.2 3.6-13.92-6.96c-0.72-0.24-1.44-0.24-2.16 0l-13.92 6.96-1.2-3.6c6.48-3.36 3.36-1.68 16.080-8.16zM26.4 42.24c-1.2 1.2-3.36 1.2-4.8 0-2.4-2.64-4.080-4.080-8.16-3.84l-2.88-7.68 13.2-6.72 13.2 6.72-2.64 7.68c-4.080-0.24-5.52 1.44-7.92 3.84z"></path></svg>