<svg xmlns="http://www.w3.org/2000/svg" width="48" height="48" viewBox="0 0 48 48"><path d="M36 0q.828 0 1.422.594l8 8Q46 9.172 46 10q0 .844-.578 1.422l-8 8Q36.844 20 36 20q-.828 0-1.414-.586T34 18q0-.797.578-1.406L39.172 12H36q-2.813 0-5.281 1.227t-4.141 3.352Q24 19.86 24 24.001q0 4.172-2 7.75-1.063 1.922-2.578 3.453-2.219 2.266-5.172 3.531T8 40.001H4q-.828 0-1.414-.586T2 38.001t.586-1.414T4 36.001h4q2.828 0 5.289-1.219t4.133-3.344Q20 28.157 20 24q0-4.172 2-7.75 1.078-1.937 2.578-3.437 2.219-2.266 5.172-3.539T36 8.001h3.172l-4.594-4.578Q34 2.814 34 2.001q0-.828.586-1.414T36 .001zm0 28q.828 0 1.422.594l8 8q.578.578.578 1.422 0 .828-.578 1.406l-8 8Q36.844 48 36 48q-.828 0-1.414-.578T34 46.016q0-.812.578-1.422L39.172 40H36q-3.297 0-6.25-1.266t-5.172-3.531q1.203-1.766 2-3.766 1.672 2.125 4.133 3.344T36 36h3.172l-4.594-4.578Q34 30.813 34 30q0-.828.586-1.414T36 28zM4 8h4q3.297 0 6.25 1.273t5.172 3.539q-1.219 1.797-2 3.766-1.672-2.125-4.141-3.352T8 11.999H4q-.828 0-1.414-.586T2 9.999t.586-1.414T4 7.999z"/></svg>