<svg xmlns="http://www.w3.org/2000/svg" width="48" height="48" viewBox="0 0 48 48"><path d="M9.553 39.605h-.239c-2.38.002-4.762.006-7.144-.003a4.191 4.191 0 0 1-.933-.119c-.378-.09-.66-.337-.873-.664-.859-1.317.02-2.604 1.063-2.819.192-.039.391-.057.586-.057 2.473-.005 4.947-.003 7.421-.003.039 0 .078-.005.094-.005.195-.426.361-.849.576-1.245.942-1.733 2.425-2.732 4.341-3.093 3.058-.578 6.054 1.189 7.054 4.146.056.162.129.203.291.203 8.044-.005 16.091-.006 24.135-.009.469 0 .918.063 1.309.348a1.84 1.84 0 0 1 .687 2.013 1.846 1.846 0 0 1-1.7 1.306c-.144.008-.29.003-.434.003-7.992-.002-15.986-.002-23.977-.007-.178 0-.259.043-.318.22-.878 2.63-3.488 4.386-6.257 4.218-2.628-.159-4.774-1.797-5.631-4.298-.015-.043-.033-.084-.053-.136zm3.392-1.857a2.628 2.628 0 0 0 2.627 2.643c1.434.003 2.61-1.185 2.61-2.636-.002-1.411-1.174-2.593-2.583-2.599-1.458-.008-2.65 1.16-2.652 2.593zm.008-15.576c3.69 0 7.382-.002 11.071.005.177 0 .256-.042.318-.222.94-2.74 3.676-4.53 6.555-4.194 2.611.305 4.388 1.75 5.316 4.218.06.16.13.206.292.204 3.163-.006 6.329-.006 9.492-.009.516 0 .99.118 1.387.465.549.477.756 1.281.51 1.98-.242.69-.901 1.197-1.623 1.212-.809.018-1.619.009-2.427.009-2.454 0-4.908 0-7.361-.008-.15 0-.216.042-.264.186a6.272 6.272 0 0 1-11.878.036c-.063-.184-.149-.218-.321-.218-7.302.005-14.604.005-21.906-.002-.279 0-.57-.024-.836-.102-.825-.246-1.387-1.13-1.264-1.935.146-.959.891-1.611 1.865-1.625.665-.009 1.329-.002 1.993-.002h9.078zm17.354 4.451c1.413.003 2.583-1.188 2.59-2.639.008-1.388-1.18-2.589-2.569-2.597-1.468-.009-2.672 1.152-2.67 2.576.003 1.497 1.157 2.657 2.648 2.66zm3.706-14.556c-4.073 0-8.143.002-12.216-.005-.178 0-.242.06-.302.219-.921 2.444-2.676 3.887-5.267 4.191-2.953.346-5.649-1.418-6.615-4.235-.051-.147-.127-.167-.258-.167-2.402.003-4.803.003-7.203 0-.216 0-.435-.01-.648-.046-.651-.111-1.062-.504-1.337-1.098-.498-1.075.327-2.478 1.593-2.505.243-.005.486-.011.73-.011 2.289 0 4.578.002 6.869.008.147 0 .213-.039.265-.184.798-2.228 2.364-3.607 4.659-4.139 2.783-.643 6.123.879 7.206 4.097.063.189.154.228.336.228 8.025-.006 16.052-.009 24.078-.005.305 0 .623.036.909.13.828.274 1.293 1.095 1.166 1.984-.114.807-.826 1.47-1.648 1.533a3.652 3.652 0 0 1-.295.011h-12.02v-.006zm-21.066-1.824a2.622 2.622 0 0 0 2.611 2.613 2.62 2.62 0 0 0 2.623-2.619 2.618 2.618 0 0 0-5.235.006z"/></svg>