<svg xmlns="http://www.w3.org/2000/svg" width="48" height="48" viewBox="0 0 48 48"><path d="M0 21.051l.074-.261c.178-.648.678-1.073 1.352-1.149.612-.069 1.231.27 1.53.841.117.223.18.451.179.714-.009 1.873-.005 3.745-.005 5.619v.226c-.077.007-.139.014-.232.021.073.05.129.085.183.122A1.55 1.55 0 0 1 1.55 28.36a1.549 1.549 0 0 1-1.501-1.242c-.01-.05-.03-.098-.044-.146v-5.92zm11.229 2.961c0-5.519 0-11.037.002-16.556 0-.202.014-.408.048-.608.123-.704.861-1.357 1.782-1.228.62.087 1.209.717 1.268 1.349a5.4 5.4 0 0 1 .023.492c.003 11.017.005 22.035.003 33.054 0 .222-.027.445-.063.666-.108.665-.851 1.207-1.506 1.216-.456.006-.773-.194-1.077-.459-.291-.252-.431-.591-.461-.974a5.722 5.722 0 0 1-.012-.414V24.014h-.008zm22.432-.003c0-5.499-.002-10.996.005-16.495 0-.273.03-.552.09-.819.135-.601.856-1.059 1.404-1.087.468-.024.821.173 1.145.453.333.288.455.681.477 1.11.005.072.003.144.003.217.002 11.076.002 22.152.005 33.228 0 .675-.222 1.212-.822 1.573-.879.528-2.061-.055-2.25-.997a2.967 2.967 0 0 1-.048-.588c-.003-5.532-.002-11.063-.002-16.595h-.003zm-24.92-.006c0 2.742.002 5.485-.003 8.227 0 .215-.014.438-.069.643-.189.696-.906 1.16-1.656 1.09a1.547 1.547 0 0 1-1.371-1.362 4.756 4.756 0 0 1-.027-.492c0-5.4 0-10.8.003-16.2 0-.236.015-.476.066-.704a1.52 1.52 0 0 1 1.608-1.171c.783.064 1.382.657 1.437 1.425.008.111.009.223.009.335v8.208h.002zm30.532-.011c0-2.775-.002-5.55 0-8.325 0-.768.42-1.364 1.089-1.563.998-.299 1.959.375 2.025 1.419.007.111.005.223.006.335 0 5.425.002 10.851-.002 16.277 0 .216-.012.437-.06.645-.189.798-.883 1.269-1.713 1.178-.732-.08-1.331-.75-1.341-1.523-.011-.783-.005-1.564-.005-2.348v-6.096zm-22.438-.059c0-2.355-.002-4.71.001-7.065 0-.204 0-.411.036-.609a1.527 1.527 0 0 1 1.653-1.287c.8.059 1.41.718 1.44 1.557.006.157.002.316.002.474 0 4.756.002 9.513-.008 14.268 0 .282-.049.582-.153.843-.263.663-.934 1.004-1.671.897-.659-.096-1.204-.666-1.281-1.344a3.801 3.801 0 0 1-.023-.414c-.002-2.44-.002-4.881-.002-7.322h.005zm11.218.076c0-2.421-.003-4.842.005-7.262.002-.258.032-.529.114-.773.233-.684.87-1.063 1.611-1 .659.057 1.23.576 1.356 1.245.028.147.041.3.041.45.002 4.887.003 9.776.002 14.662 0 .861-.451 1.476-1.206 1.659a1.55 1.55 0 0 1-1.914-1.424c-.017-.328-.006-.657-.006-.987v-6.572zM48 27.045l-.263.017.206.112c-.085.581-.705 1.13-1.335 1.182-.939.078-1.717-.594-1.725-1.536-.014-1.881-.012-3.762.002-5.645.005-.75.546-1.38 1.242-1.506.767-.138 1.456.227 1.755.948.07.169.114.364.114.547.008 1.881.005 3.762.005 5.644v.237zm-22.445-3.028c0 .947.012 1.895-.003 2.841-.012.759-.515 1.331-1.258 1.479a1.53 1.53 0 0 1-1.827-1.458c-.011-1.92-.014-3.841-.005-5.763.005-.819.703-1.476 1.541-1.485.814-.009 1.523.648 1.537 1.464.018.974.005 1.947.005 2.921h.012z"/></svg>