<svg xmlns="http://www.w3.org/2000/svg" width="48" height="48" viewBox="0 0 48 48"><path d="M17.6 6.4C17.6 2.865 20.465 0 24 0s6.4 2.865 6.4 6.4-2.865 6.4-6.4 6.4-6.4-2.865-6.4-6.4zm13.577 5.623c0-3.535 2.865-6.4 6.4-6.4s6.4 2.865 6.4 6.4-2.865 6.4-6.4 6.4-6.4-2.865-6.4-6.4zM40 25.6a3.2 3.2 0 1 1 6.4 0 3.2 3.2 0 0 1-6.4 0zm-5.624 13.576a3.2 3.2 0 1 1 6.4 0 3.2 3.2 0 0 1-6.4 0zM20.8 44.8a3.2 3.2 0 0 1 6.4 0 3.2 3.2 0 0 1-6.4 0zM7.224 39.176a3.2 3.2 0 0 1 6.4 0 3.2 3.2 0 0 1-6.4 0zm-1.6-27.153a4.8 4.8 0 1 1 9.6 0 4.8 4.8 0 1 1-9.6 0zM1.2 25.6a3.6 3.6 0 1 1 7.2 0 3.6 3.6 0 0 1-7.2 0z"/></svg>