<svg xmlns="http://www.w3.org/2000/svg" width="48" height="48" viewBox="0 0 48 48"><path d="M24.195 1.086l.228.059c.588.154.979.526 1.23 1.075 1.391 3.032 2.787 6.062 4.181 9.093.621 1.348 1.242 2.696 1.857 4.046.055.121.12.177.256.192 1.293.147 2.584.302 3.878.453l4.191.492 4.21.495c.744.088 1.489.165 2.232.268.724.101 1.221.514 1.444 1.206.228.702.054 1.332-.482 1.838-.768.727-1.554 1.44-2.331 2.157-2.793 2.578-5.587 5.157-8.384 7.731-.1.093-.12.174-.093.306.951 4.74 1.898 9.48 2.842 14.22.149.745-.061 1.377-.676 1.83-.621.458-1.291.473-1.964.096a12001.99 12001.99 0 0 1-12.633-7.09c-.14-.078-.235-.077-.373.002-4.203 2.364-8.409 4.722-12.615 7.08-1 .561-2.172.169-2.58-.852-.164-.41-.13-.819-.045-1.24.941-4.688 1.874-9.377 2.816-14.064.027-.133-.009-.204-.099-.287-1.93-1.777-3.858-3.558-5.787-5.337-1.629-1.503-3.261-3.003-4.886-4.511-.8-.742-.819-1.904-.058-2.623.308-.293.681-.437 1.098-.486 2.623-.306 5.248-.612 7.872-.921 2.168-.253 4.334-.513 6.501-.764.151-.018.222-.078.284-.215 1.966-4.285 3.947-8.563 5.901-12.855.331-.726.771-1.258 1.587-1.398h.395zM12.756 41.697c.085-.044.143-.072.198-.103 3.353-1.881 6.707-3.759 10.054-5.645.669-.377 1.311-.377 1.98 0 3.073 1.733 6.151 3.456 9.228 5.183l1.025.572c-.069-.345-.13-.66-.194-.974-.639-3.201-1.278-6.402-1.919-9.603-.069-.348-.141-.696-.209-1.044-.133-.69.066-1.269.582-1.745 2.834-2.613 5.666-5.227 8.498-7.84.055-.051.127-.086.191-.128-.072-.057-.096-.063-.121-.066l-4.779-.561c-2.226-.261-4.45-.534-6.678-.78-.831-.091-1.388-.479-1.737-1.248-1.578-3.466-3.178-6.924-4.77-10.384-.03-.066-.066-.13-.113-.222-.049.104-.082.168-.112.232l-2.691 5.853c-.711 1.545-1.423 3.09-2.131 4.636-.275.6-.726.978-1.38 1.083-.447.072-.9.111-1.35.164l-4.524.529-4.602.541c-.453.054-.906.11-1.359.163l-.035.057c.041.023.087.036.12.066 1.905 1.756 3.81 3.514 5.713 5.271.957.883 1.914 1.765 2.87 2.65.472.438.696.981.572 1.617-.648 3.294-1.308 6.583-1.963 9.876l-.366 1.843z"/></svg>