<svg xmlns="http://www.w3.org/2000/svg" width="48" height="48" viewBox="0 0 48 48"><path d="M24.195 1.25l0.226 0.059c0.584 0.153 0.972 0.522 1.221 1.067 1.381 3.011 2.768 6.020 4.152 9.030 0.617 1.339 1.233 2.677 1.844 4.018 0.055 0.12 0.119 0.176 0.254 0.191 1.284 0.146 2.566 0.3 3.851 0.45l8.342 0.98c0.739 0.087 1.479 0.164 2.216 0.266 0.719 0.1 1.213 0.51 1.434 1.198 0.226 0.697 0.054 1.323-0.479 1.825-0.763 0.722-1.543 1.43-2.315 2.142-2.774 2.56-5.548 5.121-8.326 7.677-0.099 0.092-0.119 0.173-0.092 0.304 0.944 4.707 1.885 9.414 2.822 14.121 0.148 0.74-0.061 1.367-0.671 1.817-0.617 0.455-1.282 0.47-1.95 0.095-4.183-2.344-8.365-4.691-12.545-7.041-0.139-0.077-0.233-0.077-0.37 0.002-4.174 2.347-8.35 4.689-12.527 7.031-0.993 0.557-2.157 0.168-2.562-0.846-0.163-0.407-0.129-0.813-0.045-1.231 0.934-4.655 1.861-9.312 2.796-13.966 0.027-0.132-0.009-0.203-0.098-0.285-1.917-1.765-3.831-3.533-5.747-5.3-1.618-1.492-3.238-2.982-4.852-4.48-0.794-0.737-0.813-1.891-0.058-2.605 0.306-0.291 0.676-0.434 1.090-0.483 2.605-0.304 5.211-0.608 7.817-0.915 2.153-0.251 4.304-0.509 6.456-0.759 0.15-0.018 0.22-0.077 0.282-0.213 1.952-4.255 3.919-8.503 5.86-12.765 0.329-0.721 0.766-1.249 1.576-1.388h0.392l0.003 0.004zM12.836 41.578c0.084-0.044 0.142-0.071 0.197-0.102 3.33-1.868 6.66-3.733 9.984-5.606 0.664-0.374 1.302-0.374 1.966 0 3.052 1.721 6.108 3.432 9.164 5.147l1.018 0.568c-0.069-0.343-0.129-0.655-0.193-0.967-0.635-3.179-1.269-6.357-1.906-9.536-0.069-0.346-0.14-0.691-0.208-1.037-0.132-0.685 0.066-1.26 0.578-1.733 2.814-2.595 5.627-5.191 8.439-7.785 0.055-0.051 0.126-0.085 0.19-0.127-0.071-0.057-0.095-0.063-0.12-0.066l-4.746-0.557c-2.21-0.259-4.419-0.53-6.631-0.775-0.825-0.090-1.378-0.476-1.725-1.239-1.567-3.442-3.156-6.876-4.737-10.312-0.030-0.066-0.066-0.129-0.112-0.22-0.049 0.103-0.081 0.167-0.111 0.23l-2.672 5.812c-0.706 1.534-1.413 3.068-2.116 4.604-0.273 0.596-0.721 0.971-1.37 1.075-0.444 0.071-0.894 0.11-1.341 0.163l-9.062 1.063c-0.45 0.054-0.9 0.109-1.349 0.162l-0.035 0.057c0.041 0.023 0.086 0.036 0.119 0.066 1.892 1.744 3.783 3.489 5.673 5.234 0.95 0.877 1.901 1.753 2.85 2.632 0.469 0.435 0.691 0.974 0.568 1.606-0.643 3.271-1.299 6.537-1.949 9.807l-0.363 1.83 0.002 0.007z"></path></svg>