<svg xmlns="http://www.w3.org/2000/svg" width="48" height="48" viewBox="0 0 48 48"><path d="M19.636 2.182h8.727q2.71 0 4.628 1.918t1.918 4.628v2.182h6.545q2.71 0 4.628 1.918T48 17.456v21.818q0 2.71-1.918 4.628t-4.628 1.918H6.545q-2.71 0-4.628-1.918t-1.918-4.628V17.456q0-2.71 1.918-4.628t4.628-1.918h6.545V8.728q0-2.71 1.918-4.628t4.628-1.918zM8.727 41.455V15.273H6.545q-.903 0-1.543.639t-.639 1.543v21.818q0 .903.639 1.543t1.543.639h2.182zm26.182 0V15.273H13.091v26.182h21.818zm6.546-26.182h-2.182v26.182h2.182q.903 0 1.543-.639t.639-1.543V17.455q0-.903-.639-1.543t-1.543-.639zM28.364 6.545h-8.727q-.903 0-1.543.639t-.639 1.543v2.182h13.091V8.727q0-.903-.639-1.543t-1.543-.639z"/></svg>