<svg xmlns="http://www.w3.org/2000/svg" width="48" height="48" viewBox="0 0 48 48"><path d="M31.149 0c.125.041.25.084.376.123a2.459 2.459 0 0 1 1.762 2.304c.008.245.014.489.013.734 0 .083.029.119.104.15.349.143.697.289 1.042.441.079.035.123.028.187-.035.228-.227.449-.465.702-.661.986-.763 2.274-.716 3.211.123.402.36.787.744 1.147 1.146.888.99.882 2.378.002 3.373-.17.193-.355.373-.54.553-.056.054-.061.095-.031.165.15.351.296.703.437 1.057.031.079.068.106.156.11.419.019.847.004 1.255.085 1.045.207 1.835 1.16 1.871 2.224.02.596.018 1.193-.002 1.788-.039 1.137-.977 2.141-2.11 2.263-.327.035-.66.027-.99.032-.096.001-.144.035-.18.124-.145.353-.295.703-.449 1.052-.03.069-.013.104.037.153.181.177.363.353.534.541.873.958.906 2.357.053 3.332-.386.441-.805.86-1.247 1.246-.964.844-2.361.815-3.313-.043-.191-.172-.37-.358-.551-.542-.044-.045-.078-.064-.143-.037-.359.152-.719.302-1.081.448-.07.028-.098.067-.1.141-.011.343-.007.688-.043 1.028-.118 1.121-1.144 2.076-2.268 2.108a33.76 33.76 0 0 1-1.828-.002c-1.061-.027-2.084-.958-2.21-2.012-.044-.37-.043-.745-.056-1.118-.003-.079-.023-.118-.101-.149a33.6 33.6 0 0 1-1.058-.437c-.076-.033-.116-.024-.175.033-.233.228-.457.469-.714.667-.96.74-2.237.709-3.151-.089a14.45 14.45 0 0 1-1.18-1.168c-.921-1.012-.909-2.413.013-3.429.164-.181.341-.351.516-.522.048-.047.054-.083.028-.144a54.636 54.636 0 0 1-.455-1.092c-.029-.073-.068-.091-.141-.094-.356-.012-.716.002-1.066-.052-1.094-.168-1.917-.968-2.056-2.059a7.346 7.346 0 0 1 .061-2.385c.196-.975 1.036-1.741 2.027-1.865.335-.042.676-.034 1.015-.037.099-.001.141-.032.176-.12.131-.331.264-.661.409-.985.053-.118.035-.192-.058-.275-.137-.123-.264-.258-.393-.39-.998-1.023-1.016-2.502-.034-3.542.339-.359.688-.708 1.047-1.047.982-.929 2.446-.932 3.437-.013.179.166.351.341.522.516.052.053.09.068.164.036.354-.154.71-.302 1.068-.445.08-.032.099-.072.097-.152-.011-.433-.03-.869.091-1.292.27-.943.894-1.527 1.833-1.789.074-.021.144-.052.216-.078h2.112zM29.21 3.398h-.013c0 .24.007.481-.001.721-.021.594-.304.975-.874 1.127a9.505 9.505 0 0 0-2.288.942c-.159.091-.35.147-.532.171-.375.05-.673-.132-.93-.383-.335-.327-.663-.66-.996-.99-.207-.205-.28-.205-.49.002a91.96 91.96 0 0 0-.766.764c-.227.229-.226.284.002.515.341.345.69.682 1.023 1.035.397.421.461.895.174 1.394a9.388 9.388 0 0 0-.955 2.31c-.114.433-.388.733-.84.833-.137.03-.281.038-.421.04-.455.005-.91.001-1.365.004-.253.002-.303.053-.304.302-.002.365-.001.73 0 1.095.001.362.032.393.399.395.472.002.945-.004 1.417.006.562.012.926.287 1.102.82.051.155.088.313.135.469.185.614.446 1.195.759 1.755.101.181.188.38.229.581.078.381-.087.698-.347.965-.344.354-.697.7-1.043 1.052-.181.184-.18.257.001.44.253.257.508.512.764.766.252.25.311.249.566-.004.286-.284.571-.57.857-.856.043-.042.085-.085.13-.125.448-.413.9-.468 1.439-.183.322.17.638.356.974.493.42.171.854.307 1.287.443.431.136.75.378.853.838.031.141.04.289.042.434.006.459.001.919.006 1.378.003.239.054.288.29.289.403.002.807.002 1.21-.001.239-.001.292-.056.294-.3.003-.481-.003-.962.005-1.442.011-.651.301-1.012.921-1.201.409-.125.82-.252 1.215-.415.351-.145.684-.336 1.021-.515.531-.283.985-.232 1.43.172.044.04.087.082.13.125l.884.883c.234.232.296.233.527.005.205-.202.408-.406.612-.609a8.42 8.42 0 0 0 .162-.166c.194-.202.194-.265-.005-.468-.202-.205-.407-.406-.609-.612-.171-.175-.348-.345-.506-.531-.307-.363-.359-.767-.157-1.2a3.8 3.8 0 0 1 .156-.296c.274-.478.499-.977.669-1.501.077-.236.136-.478.217-.713.135-.394.4-.657.817-.738.142-.028.29-.036.435-.038.451-.006.902-.001 1.352-.007.24-.003.296-.058.299-.287.005-.404.005-.807 0-1.211-.003-.231-.062-.282-.296-.29-.064-.002-.129-.001-.193-.001-.434-.001-.867.004-1.301-.004-.596-.011-1-.309-1.15-.881a9.46 9.46 0 0 0-.94-2.288 1.514 1.514 0 0 1-.175-.571c-.038-.348.134-.63.369-.872.348-.356.703-.705 1.052-1.061.156-.159.156-.23 0-.39a70.604 70.604 0 0 0-.772-.776c-.274-.272-.322-.271-.593-.002-.332.329-.661.663-.997.988-.245.237-.538.382-.884.334a1.5 1.5 0 0 1-.53-.176 9.287 9.287 0 0 0-2.264-.933c-.455-.119-.767-.393-.862-.871a2.053 2.053 0 0 1-.033-.384c-.005-.472-.001-.944-.005-1.417-.002-.198-.061-.258-.254-.26a61.444 61.444 0 0 0-1.288.001c-.182.002-.235.05-.241.229-.009.283-.002.566-.002.85z"/><path d="M24.439 42.917c-2.619 0-5.238.001-7.856-.002a.632.632 0 0 0-.403.136 1887.612 1887.612 0 0 1-5.544 4.237 4.94 4.94 0 0 1-.751.469c-.7.355-1.398.309-2.079-.066a3.25 3.25 0 0 1-.892-.75C4.895 44.59 2.875 42.239.859 39.885a5.005 5.005 0 0 1-.503-.683c-.497-.834-.475-1.671.079-2.465.214-.306.483-.582.761-.834 2.029-1.833 4.066-3.658 6.036-5.554a16.947 16.947 0 0 1 5.067-3.385 9.952 9.952 0 0 1 4.518-.814c.891.047 1.758.234 2.616.471.946.262 1.888.539 2.839.781 1.241.316 2.51.436 3.788.442 1.159.005 2.318-.025 3.477-.007 1.468.022 2.935.077 4.403.114.41.01.797.118 1.172.269.134.054.209.027.308-.072 1.699-1.707 3.403-3.409 5.104-5.114.697-.699 1.516-1.164 2.491-1.358 2.328-.465 4.606.949 5.143 3.252.385 1.652-.053 3.098-1.257 4.303-1.688 1.688-3.375 3.376-5.064 5.063-2.423 2.421-4.845 4.845-7.275 7.259-.358.356-.754.676-1.148.994-.344.278-.757.369-1.194.369l-6.363.001H24.44zM8.982 45.008l.11-.081c.722-.553 1.444-1.107 2.167-1.659l3.696-2.818a1.43 1.43 0 0 1 .829-.314c.699-.023 1.399-.052 2.098-.051 4.426.003 8.852.013 13.278.023a2.036 2.036 0 0 0 1.511-.626c4.04-4.047 8.085-8.089 12.129-12.132.091-.091.184-.181.27-.276.45-.5.535-1.243.214-1.849-.309-.584-.948-.901-1.62-.814-.453.059-.809.288-1.123.602a4974.08 4974.08 0 0 1-5.141 5.132c-.066.066-.074.115-.036.199.307.675.424 1.382.334 2.12-.257 2.095-1.938 3.619-4.039 3.625-3.975.012-7.951.006-11.926.007-.325 0-.64-.049-.947-.158-.849-.301-1.141-1.188-.632-1.931.352-.513.849-.73 1.465-.73 3.924.004 7.848.002 11.772.001.133 0 .266-.005.398-.02a1.255 1.255 0 0 0 1.078-1.581c-.138-.532-.642-.92-1.246-.943-.824-.032-1.647-.071-2.471-.074-1.614-.006-3.228.018-4.842.015-1.51-.002-3.011-.116-4.48-.491-1.192-.305-2.374-.646-3.563-.96-1.329-.351-2.663-.39-3.988.016-1.066.326-2.041.845-2.972 1.451-.994.647-1.873 1.432-2.74 2.236-1.826 1.693-3.655 3.382-5.483 5.072-.021.02-.051.03-.082.047l5.983 6.961zm27.054-32.229c.005 3.263-2.649 5.922-5.917 5.93-3.282.008-5.954-2.642-5.954-5.904 0-3.301 2.647-5.965 5.934-5.972 3.262-.007 5.932 2.667 5.937 5.946zm-5.958 3.283a3.275 3.275 0 0 0 3.295-3.254 3.271 3.271 0 0 0-3.264-3.309c-1.802-.011-3.284 1.445-3.297 3.239a3.28 3.28 0 0 0 3.266 3.323z"/></svg>