<svg xmlns="http://www.w3.org/2000/svg" width="48" height="48" viewBox="0 0 48 48"><path d="M0 21.216V5.232c.015-.053.036-.106.043-.16A5.786 5.786 0 0 1 4.228.208C4.557.117 4.897.068 5.232 0h15.984c.037.013.072.035.11.039 1.678.182 3.106.882 4.296 2.072 6.624 6.624 13.248 13.248 19.87 19.874a8.218 8.218 0 0 1 2.191 3.823c.118.462.181.938.269 1.408v1.296c-.014.045-.035.088-.04.134-.188 1.826-.933 3.387-2.23 4.685a48570.53 48570.53 0 0 1-12.431 12.433 7.396 7.396 0 0 1-3.569 2.001c-.417.1-.844.158-1.267.236h-1.248c-.053-.014-.104-.036-.158-.042-1.913-.202-3.58-.952-4.94-2.31-6.67-6.655-13.328-13.322-19.989-19.986a6.938 6.938 0 0 1-1.871-3.32c-.09-.371-.141-.751-.211-1.127zM13.322 3.885l-7.44.001c-.143 0-.29 0-.43.026-1.054.199-1.628.891-1.634 1.986-.025 4.872-.038 9.743-.074 14.615-.008 1.042.354 1.888 1.086 2.616 6.587 6.558 13.169 13.123 19.753 19.685.119.118.239.236.366.346 1.655 1.434 4.183 1.457 5.746-.179 1.458-1.527 2.979-2.994 4.472-4.487 2.608-2.608 5.214-5.217 7.824-7.824.795-.794 1.185-1.754 1.166-2.871-.021-1.248-.538-2.276-1.414-3.152-6.576-6.57-13.146-13.145-19.719-19.719-.068-.068-.135-.136-.206-.201-.61-.554-1.312-.851-2.152-.847-2.448.012-4.896.004-7.344.004z"/><path d="M7.116 14.073c-.006-3.796 3.106-6.886 6.936-6.884 3.795.001 6.871 3.093 6.878 6.912.007 3.815-3.09 6.919-6.903 6.918-3.8-.001-6.905-3.122-6.912-6.946zm10.224.028c.004-1.875-1.452-3.345-3.314-3.346a3.292 3.292 0 0 0-3.32 3.293c-.008 1.888 1.432 3.362 3.29 3.368 1.877.006 3.34-1.444 3.344-3.315z"/></svg>