<svg xmlns="http://www.w3.org/2000/svg" width="48" height="48" viewBox="0 0 48 48"><path d="M6 10h36q.828 0 1.415.587t.587 1.415-.587 1.414-1.414.586h-36q-.828 0-1.415-.586t-.587-1.414.587-1.415T6.001 10zm0 24.001h36q.828 0 1.415.587t.587 1.414-.587 1.415-1.414.586h-36q-.828 0-1.415-.586t-.587-1.415.587-1.414 1.415-.587zm0-8.002h36q.828 0 1.415.586T44.002 28t-.587 1.415-1.414.586h-36q-.828 0-1.415-.586T3.999 28t.587-1.415 1.415-.586zM6 18h36q.828 0 1.415.587t.587 1.414-.587 1.415-1.414.587h-36q-.828 0-1.415-.587t-.587-1.415.587-1.414T6.001 18z"/></svg>