<svg xmlns="http://www.w3.org/2000/svg" width="48" height="48" viewBox="0 0 48 48"><path d="M48 6.518c0-.095-.014-.205-.027-.3C47.482 2.673 44.4 0 40.814 0H10.241a6.507 6.507 0 0 0-6.464 5.536L.763 25.186a5.843 5.843 0 0 0-.082.995 6.547 6.547 0 0 0 6.545 6.545H17.44v6.545c0 4.814 3.914 8.727 8.727 8.727.859 0 1.65-.505 1.991-1.295l8.168-18.341h4.5c3.586 0 6.655-2.686 7.159-6.245.014-.095.027-.205.027-.3l-.014-15.3zM24.859 43.432a4.368 4.368 0 0 1-3.041-4.159v-8.727c0-1.2-.982-2.182-2.182-2.182H7.227c-1.2 0-2.182-.982-2.182-2.182 0-.109.014-.218.027-.314v-.014l3.027-19.65a2.196 2.196 0 0 1 2.155-1.841h22.473v21.355l-7.868 17.714zM40.827 24H37.09V4.364h3.723c1.377 0 2.564.995 2.809 2.332v14.959A2.852 2.852 0 0 1 40.827 24z"/></svg>