<svg xmlns="http://www.w3.org/2000/svg" width="48" height="48" viewBox="0 0 48 48"><path d="M40.759 15.273H30.545V8.728c0-4.814-3.914-8.727-8.727-8.727-.859 0-1.65.505-1.991 1.295l-8.155 18.341H6.545A6.547 6.547 0 0 0 0 26.182v15.273A6.547 6.547 0 0 0 6.545 48h31.214a6.507 6.507 0 0 0 6.464-5.536l3.014-19.65c.055-.314.082-.655.082-.995-.014-3.614-2.945-6.545-6.559-6.545zM4.364 41.455V26.182c0-1.2.982-2.182 2.182-2.182h4.364v19.636H6.546c-1.2 0-2.182-.982-2.182-2.182zm38.563-19.323v.014l-3.014 19.65a2.196 2.196 0 0 1-2.155 1.841H15.272V22.282L23.14 4.568a4.368 4.368 0 0 1 3.041 4.159v8.727c0 1.2.982 2.182 2.182 2.182h12.396c1.2 0 2.182.982 2.182 2.182 0 .109 0 .218-.014.314z"/></svg>