<svg xmlns="http://www.w3.org/2000/svg" width="34" height="48" viewBox="0 0 34 48"><path d="M22.416 48c-2.411-1.164-3.983-3.027-4.613-5.636-.846-3.505.708-7.139 3.814-8.989.177-.106.23-.215.229-.413-.005-5.975-.005-11.951 0-17.926 0-.199-.053-.307-.23-.412-5.423-3.228-5.363-11.111.107-14.263.225-.13.461-.241.693-.361h.576c.851.364 1.056.696 1.05 1.633-.008 1.256-.003 2.512-.002 3.768.001.575.312.88.897.882.624.002 1.248.001 1.872 0 .596-.001.905-.305.905-.899-.001-1.336-.009-2.672-.01-4.007-.001-.489.191-.887.602-1.16.137-.091.297-.145.447-.216h.576c.107.048.217.091.32.146 2.142 1.147 3.581 2.87 4.234 5.22.14.504.198 1.03.294 1.546v1.248c-.014.053-.035.106-.041.16-.316 2.775-1.68 4.881-4.054 6.337-.15.092-.178.191-.178.346.003 5.998.003 11.995-.002 17.993 0 .172.049.266.2.357 1.981 1.2 3.273 2.919 3.836 5.17.108.432.161.877.24 1.316v1.248l-.059.398c-.455 3.01-2.048 5.184-4.789 6.514h-.576c-.035-.017-.069-.037-.105-.049-.599-.201-.95-.716-.946-1.35.009-1.336.012-2.671.012-4.007 0-.563-.317-.873-.88-.875-.632-.002-1.264-.002-1.896 0-.591.001-.897.31-.897.906l.005 3.983c0 .103-.004.208-.023.309-.112.579-.494.905-1.03 1.083h-.576zm7.932-4.085c.067-.074.094-.099.117-.129 2.056-2.713 1.039-6.886-2.039-8.355a.735.735 0 0 0-.298-.06c-.392-.006-.784.008-1.176-.004a1.307 1.307 0 0 1-1.286-1.215 1.303 1.303 0 0 1 1.11-1.398c.155-.025.314-.02.491-.03v-.225l-.003-18.454c0-.658.281-1.093.878-1.346 3.265-1.382 4.435-5.55 2.366-8.426-.037-.052-.083-.097-.165-.192 0 .579.016 1.091-.003 1.602-.063 1.655-1.423 3.088-3.078 3.194-.868.056-1.745.06-2.614.014-1.594-.085-2.868-1.166-3.16-2.699-.112-.589-.061-1.21-.084-1.816-.003-.081 0-.162 0-.244a.791.791 0 0 0-.218.225c-1.831 2.7-1.003 6.366 1.809 8.035.269.159.536.265.856.239.254-.021.512-.01.767 0 .642.025 1.175.5 1.258 1.112.089.654-.27 1.252-.882 1.447-.157.05-.325.065-.515.101v18.7c0 .633-.281 1.059-.861 1.305-3.267 1.388-4.439 5.5-2.394 8.401.043.061.094.116.18.223 0-.549-.008-1.034.001-1.519.032-1.698 1.403-3.175 3.095-3.281.86-.054 1.729-.062 2.59-.013 1.906.108 3.246 1.56 3.257 3.47.002.424 0 .847 0 1.336zM8.064 0c.626.179.931.618 1.101 1.231a645.279 645.279 0 0 0 1.989 6.978c.178.616.034 1.114-.452 1.524-.287.242-.575.485-.846.745a.499.499 0 0 0-.149.319c-.007 4.118-.006 8.236-.008 12.355 0 .125.013.212.146.287 1.193.668 1.786 1.696 1.798 3.06.006.656-.004 1.312.006 1.967a.565.565 0 0 0 .114.319c.458.57.694 1.212.694 1.946-.002 4.686.002 9.372-.003 14.058-.002 1.52-1.08 2.772-2.653 3.114L9.362 48h-6.24c-.069-.016-.137-.036-.206-.048C1.63 47.712.663 47.063.17 45.81c-.075-.19-.113-.396-.168-.594V30.288c.133-.564.338-1.092.724-1.541a.603.603 0 0 0 .129-.36c.012-.664-.007-1.328.009-1.991.032-1.348.657-2.343 1.841-2.981.137-.074.193-.148.193-.309-.005-4.103-.003-8.206-.01-12.309a.494.494 0 0 0-.145-.321 14.728 14.728 0 0 0-.83-.727c-.501-.413-.646-.923-.467-1.543.665-2.309 1.337-4.617 1.978-6.933C3.595.656 3.885.199 4.513.001h3.552zm1.794 37.777v-6.956c0-.639-.329-.98-.971-.981a945.19 945.19 0 0 0-5.325 0c-.637.002-.968.35-.968.987v13.865c0 .653.347.999 1.01.999 1.751.002 3.502.002 5.253 0 .66-.001 1.001-.346 1.001-1.005v-6.908zM7.106 23.032v-.301c-.001-4.359 0-8.718-.005-13.078a.45.45 0 0 1 .175-.388c.351-.291.687-.6 1.037-.891.114-.095.14-.179.097-.326-.357-1.218-.703-2.44-1.053-3.66l-.512-1.794c-.311 0-.598.008-.885-.003-.151-.006-.22.036-.264.194a811.374 811.374 0 0 1-1.512 5.273c-.042.146-.006.23.107.324.339.281.659.584 1.001.859.17.136.222.287.218.496a96.743 96.743 0 0 0-.021 2.087c-.002 3.647-.001 7.295-.001 10.942v.268h1.618zM9.042 27.2c0-.282.011-.552-.002-.821-.02-.416-.322-.732-.738-.735a294.912 294.912 0 0 0-4.1-.001c-.361.002-.678.246-.722.587-.041.318-.009.646-.009.971h5.571z"/><path d="M4.93 37.77v-5.304c0-.711.277-1.046.98-1.187a1.599 1.599 0 0 1 1.072.146c.364.187.555.472.555.902-.006 3.584-.004 7.167-.004 10.751 0 .657-.267 1.002-.915 1.148-.418.094-.829.056-1.207-.165-.321-.187-.487-.456-.485-.845.009-1.816.004-3.632.004-5.447z"/></svg>