<svg xmlns="http://www.w3.org/2000/svg" width="48" height="48" viewBox="0 0 48 48"><path d="M5.843 12.176v-.357c.03-.225.063-.449.088-.673.111-.98.218-1.959.449-2.919.297-1.227.936-2.219 2.043-2.87.795-.468 1.667-.633 2.579-.633h4.363c.008-.126.011-.234.023-.342.038-.339.053-.684.123-1.016.392-1.842 1.901-3.448 4.194-3.363 1.198.044 2.399.038 3.597.038 1.744.002 3.489-.009 5.233-.021.646-.005 1.263.117 1.828.432 1.384.77 2.058 1.99 2.208 3.534.024.24.037.482.057.738h.201c1.502-.002 3.003-.005 4.504-.005a4.033 4.033 0 0 1 2.726 1.002c.963.829 1.488 1.899 1.698 3.133.107.63.174 1.266.275 1.896.073.456.147.909.118 1.373-.005.067-.007.141-.034.203-.233.531-.605.897-1.194 1.009-.042.008-.099.064-.105.104-.057.407-.105.814-.156 1.223-.142 1.119-.287 2.239-.431 3.358l-.432 3.359c-.144 1.119-.286 2.239-.429 3.36l-.434 3.403c-.133 1.052-.265 2.103-.399 3.153-.144 1.134-.288 2.27-.434 3.404l-.401 3.123c-.135 1.051-.265 2.103-.402 3.153-.126.962-.24 1.926-.39 2.884-.141.901-.462 1.737-1.041 2.46-.849 1.062-1.922 1.682-3.306 1.682-5.713 0-11.427-.002-17.14-.009a3.44 3.44 0 0 1-.912-.101c-1.848-.516-2.98-1.72-3.339-3.608-.172-.909-.284-1.83-.408-2.746-.161-1.182-.309-2.366-.461-3.551-.136-1.071-.265-2.142-.4-3.213-.132-1.047-.269-2.093-.402-3.138-.144-1.125-.285-2.25-.428-3.375l-.433-3.389a4415.25 4415.25 0 0 1-.457-3.596c-.164-1.277-.329-2.553-.492-3.831-.171-1.336-.342-2.671-.511-4.008-.011-.078-.033-.123-.122-.138a1.803 1.803 0 0 1-.327-.097c-.48-.182-.786-.516-.886-1.028zm4.129 1.192c.005.061.008.114.014.166.105.821.21 1.641.313 2.46l.431 3.405c.144 1.135.289 2.27.435 3.404l.429 3.345c.144 1.125.29 2.248.433 3.373l.428 3.345c.144 1.13.289 2.259.432 3.389l.428 3.39c.154 1.218.313 2.436.465 3.654.073.591.299 1.104.73 1.521.287.277.624.421 1.029.421 5.634-.003 11.27-.003 16.904-.002.37 0 .682-.129.959-.372.486-.428.699-.981.777-1.605.099-.791.21-1.579.313-2.371.145-1.119.286-2.239.429-3.36l.405-3.168.429-3.345.429-3.33.434-3.359.428-3.33.432-3.358c.146-1.14.291-2.278.435-3.418.036-.284.069-.567.103-.858H9.972zM39.2 10.55c-.111-.604-.189-1.2-.336-1.777-.158-.612-.564-1.032-1.187-1.194a3.136 3.136 0 0 0-.779-.089c-7.581-.006-15.162-.006-22.743-.007-1.134 0-2.27.002-3.404-.003-.488-.002-.866.166-1.181.561-.366.46-.555.973-.636 1.542l-.138.964h30.402zM18.139 4.694H29.86c-.062-.359-.093-.705-.185-1.035-.124-.446-.439-.723-.897-.811a2.777 2.777 0 0 0-.531-.042c-2.859-.003-5.716-.001-8.575-.001-.099 0-.198 0-.297.007-.513.039-.875.282-1.053.777-.128.354-.154.723-.181 1.105z"/><path d="M14.226 17.345c-.01-.976.598-1.596 1.43-1.572.646.018 1.229.54 1.302 1.191.128 1.137.243 2.274.363 3.412l.343 3.28.31 3 .345 3.294c.114 1.098.225 2.197.339 3.295l.345 3.309c.114 1.103.225 2.206.339 3.311.034.33.079.658.11.988.054.621-.351 1.389-1.172 1.523-.762.124-1.453-.349-1.556-1.096-.117-.848-.204-1.701-.295-2.552-.108-.999-.209-1.999-.312-3l-.284-2.748-.315-3.044-.311-3.015-.313-3.029c-.093-.906-.188-1.812-.28-2.72-.105-1.02-.21-2.04-.313-3.058-.03-.296-.057-.591-.075-.771zm8.393 11.884c0-3.875 0-7.749.002-11.623 0-.207.001-.418.036-.622a1.335 1.335 0 0 1 1.232-1.119 1.4 1.4 0 0 1 1.425.99c.045.15.064.312.064.468.003 7.908.002 15.816.002 23.724 0 .321-.033.633-.185.922a1.362 1.362 0 0 1-1.448.706 1.357 1.357 0 0 1-1.108-1.184 2.69 2.69 0 0 1-.018-.311c-.002-3.984-.002-7.968-.002-11.952zm5.931 11.543l.139-1.377.285-2.733.316-3.028.309-2.985.314-2.998.282-2.703c.105-1.005.21-2.009.313-3.014.094-.906.186-1.812.282-2.718.078-.744.135-1.489.245-2.229.081-.54.38-.959.919-1.145a1.338 1.338 0 0 1 1.772 1.12c.036.34-.003.692-.036 1.035-.098 1.02-.209 2.04-.315 3.058-.103.999-.208 2-.313 2.998l-.311 2.985-.316 3.043-.309 3.015-.315 3.043c-.104 1.005-.204 2.01-.311 3.015-.075.71-.108 1.427-.249 2.123-.251 1.236-1.566 1.361-2.2.807-.375-.327-.506-.756-.504-1.309z"/></svg>