<svg xmlns="http://www.w3.org/2000/svg" width="58" height="48" viewBox="0 0 58 48"><path d="M46.65 13.523h-6.425V6.398c0-.895-.723-1.618-1.618-1.618h-3.74c-.574 0-1.101.298-1.4.792l-2.249 3.809h-1.251L17.702.317a1.62 1.62 0 0 0-1.939.011L3.739 9.392H1.616c-.895 0-1.618.723-1.618 1.618v30.588c0 .895.723 1.618 1.618 1.618H9.9C10.623 45.97 13.124 48 16.096 48s5.473-2.031 6.196-4.784h19.16C42.175 45.97 44.676 48 47.648 48s5.473-2.042 6.196-4.784h2.834c.895 0 1.618-.723 1.618-1.618V25.157c-.011-6.414-5.232-11.634-11.645-11.634zm-29.899-9.89l7.779 5.76H9.121l7.63-5.76zm-.665 41.132c-1.744 0-3.167-1.423-3.167-3.167s1.423-3.167 3.167-3.167 3.167 1.423 3.167 3.167-1.411 3.167-3.167 3.167zM36.99 39.98H22.281c-.723-2.754-3.213-4.784-6.196-4.784s-5.473 2.042-6.196 4.784H3.234V29.608h2.432c.895 0 1.618-.723 1.618-1.618s-.723-1.618-1.618-1.618H3.234v-3.235h6.471c.895 0 1.618-.723 1.618-1.618s-.723-1.618-1.618-1.618H3.234v-7.263h28.901c.574 0 1.101-.298 1.4-.792l2.249-3.809h1.205v31.942zm10.647 4.785c-1.744 0-3.167-1.423-3.167-3.167s1.423-3.167 3.167-3.167 3.167 1.423 3.167 3.167-1.423 3.167-3.167 3.167zm7.412-4.785h-1.216c-.723-2.754-3.224-4.784-6.196-4.784s-5.473 2.042-6.196 4.784h-1.216v-7.836h14.812v7.836h.011zm0-11.083H40.225V16.758h6.425c4.624 0 8.398 3.763 8.398 8.398v3.74z"/></svg>