<svg xmlns="http://www.w3.org/2000/svg" width="48" height="48" viewBox="0 0 48 48"><path d="M46.933 4.467a1.981 1.981 0 0 0-2.246.05 19.755 19.755 0 0 1-4.443 2.358c-2.122-1.775-4.678-2.742-7.346-2.742-5.994 0-10.871 4.877-10.883 10.858-4.467-.372-10.064-2.283-16.319-10.101a1.98 1.98 0 0 0-1.837-.72 1.996 1.996 0 0 0-1.564 1.229C2.208 5.622.136 10.872.669 17.225c.447 5.299 2.792 12.236 11.082 16.865a21.017 21.017 0 0 1-8.674 1.849c-.298 0-.596 0-.881-.012a1.988 1.988 0 0 0-1.055 3.723c4.79 2.656 10.077 4.07 15.276 4.083h.112c5.051 0 9.915-1.303 14.097-3.76 8.401-4.951 13.216-14.023 13.216-24.906a8.9 8.9 0 0 0-.05-1.005 16.754 16.754 0 0 0 3.934-7.334c0-.025.012-.05.012-.074l.025-.112a1.952 1.952 0 0 0-.831-2.072zm-6.602 7.459a2 2 0 0 0-.583 1.824c.087.434.124.881.136 1.315 0 4.927-1.067 9.357-3.164 13.142a22.008 22.008 0 0 1-8.091 8.327c-3.574 2.097-7.744 3.214-12.087 3.214h-.099a26.843 26.843 0 0 1-6.403-.819 24.854 24.854 0 0 0 7.135-3.363c.608-.41.931-1.129.844-1.861s-.558-1.353-1.241-1.626C9.345 29.101 5.262 24.038 4.629 17.014c-.236-2.569.05-4.951.41-6.776 1.526 1.638 3.437 3.4 5.696 4.877 3.983 2.606 8.438 3.921 13.253 3.921a1.992 1.992 0 0 0 1.986-1.986v-2.048c0-3.81 3.102-6.912 6.912-6.912 1.986 0 3.921.856 5.448 2.42a1.978 1.978 0 0 0 2.01.509c.385-.124.782-.248 1.167-.397-.36.472-.757.893-1.179 1.303z"/></svg>