<svg xmlns="http://www.w3.org/2000/svg" width="48" height="48" viewBox="0 0 48 48"><path d="M24 2q3.516 0 6.836.984t6.094 2.797 5 4.273 3.703 5.523 2.039 6.422q.328 1.937.328 4H26v12q0 1.656 1.172 2.828T30 41.999t2.828-1.172T34 37.999q0-.828.586-1.414T36 35.999t1.414.586.586 1.414q0 3.313-2.344 5.656T30 45.999t-5.656-2.344T22 37.999v-12H0q0-2.063.328-4 .563-3.359 2.039-6.422t3.703-5.523 5-4.273 6.094-2.797T24 2zm0 4q-4.75 0-8.922 2.094t-6.961 5.734T4.406 22h39.188q-.922-4.531-3.711-8.172t-6.961-5.734T24 6z"/></svg>