<svg xmlns="http://www.w3.org/2000/svg" width="48" height="48" viewBox="0 0 48 48"><path d="M42 6H16c-.575 0-1.125.25-1.5.688l-14 16a2 2 0 0 0 0 2.638l14 16c.375.437.925.688 1.5.688h26a6 6 0 0 0 6-6V12.001a6 6 0 0 0-6-6zm2 30c0 1.1-.9 2-2 2H16.912L4.662 24l12.25-14H42c1.1 0 2 .9 2 2v24z"/><path d="M37.412 16.588a2.007 2.007 0 0 0-2.825 0l-4.588 4.588-4.588-4.588c-.775-.775-2.05-.775-2.825 0s-.775 2.05 0 2.825l4.588 4.588-4.588 4.588a2.007 2.007 0 0 0 0 2.825 1.996 1.996 0 0 0 2.824 0l4.588-4.588 4.588 4.588a1.996 1.996 0 0 0 2.824 0 2.007 2.007 0 0 0 0-2.825l-4.588-4.588 4.588-4.588a1.983 1.983 0 0 0 0-2.825z"/></svg>