<svg xmlns="http://www.w3.org/2000/svg" width="48" height="48" viewBox="0 0 48 48"><path d="M48.044 34.424c-.033.218-.053.436-.102.649a2.938 2.938 0 0 1-2.794 2.267c-.907.02-1.657-.315-2.292-.95-6.183-6.184-12.367-12.367-18.55-18.553-.059-.058-.101-.135-.151-.202l-.085-.009c-.053.073-.095.157-.158.22L5.409 36.375c-.454.455-.978.773-1.613.909-1.799.384-3.525-.959-3.593-2.793-.033-.892.271-1.644.903-2.273 1.065-1.061 2.126-2.126 3.188-3.188 5.88-5.88 11.761-11.76 17.639-17.642.49-.492 1.054-.828 1.752-.911.927-.11 1.759.104 2.459.75l.181.178c6.915 6.915 13.828 13.832 20.747 20.744.487.487.817 1.045.918 1.733.021.145.035.294.053.441v.102z"/></svg>