<svg xmlns="http://www.w3.org/2000/svg" width="48" height="48" viewBox="0 0 48 48"><path d="M24 2.094q.844 0 1.422.578l10 10.001q.578.578.578 1.422 0 .86-.57 1.429t-1.429.57q-.845 0-1.422-.578l-6.578-6.594v23.172q0 .828-.586 1.415T24 34.096t-1.415-.586-.587-1.415V8.923l-6.578 6.594q-.609.577-1.422.577-.828 0-1.414-.586t-.586-1.414q0-.813.577-1.422L22.576 2.671q.577-.578 1.422-.578zm19.999 28q.828 0 1.415.587t.587 1.415v8q0 2.501-1.734 4.235-1.766 1.765-4.22 1.765H8q-2.452 0-4.25-1.751-1.751-1.797-1.751-4.249v-7.999q0-.828.587-1.415T4 30.095t1.415.586.586 1.415v8q0 .828.587 1.415t1.414.587h32.047q.813 0 1.383-.586t.57-1.415v-8q0-.828.587-1.415t1.415-.587z"/></svg>