<svg xmlns="http://www.w3.org/2000/svg" width="48" height="48" viewBox="0 0 48 48"><path d="M24.948 0c.324.048.648.105.974.144 4.055.503 7.465 2.272 10.23 5.267 2.029 2.196 3.358 4.768 3.94 7.71 1.041 5.262-.118 9.972-3.567 14.1-.275.33-.566.645-.849.969-.003.003 0 .012 0 .036l.23.132c2.785 1.598 5.183 3.631 7.058 6.255 1.677 2.344 2.773 4.946 3.433 7.743.264 1.119.375 2.257.482 3.396.122 1.284-.718 2.087-1.688 2.217-1.414.192-2.367-.569-2.492-2.008-.199-2.324-.771-4.541-1.812-6.635-1.688-3.393-4.275-5.88-7.627-7.6-.404-.207-.821-.387-1.229-.586-.124-.061-.223-.051-.346.015-1.589.857-3.264 1.465-5.046 1.768-3.648.621-7.127.096-10.416-1.596-.375-.192-.646-.194-1.015-.005-2.367 1.21-4.467 2.754-6.153 4.829-1.683 2.07-2.759 4.432-3.384 7.014a16.644 16.644 0 0 0-.411 2.709c-.109 1.461-1.62 2.424-2.898 1.837-.669-.307-1.059-.844-1.212-1.56-.009-.041-.025-.08-.039-.12v-.599c.01-.066.027-.132.032-.2a19.386 19.386 0 0 1 1.204-5.614c1.803-4.857 4.929-8.607 9.404-11.227l.265-.159c-.284-.324-.567-.63-.832-.951-3.241-3.935-4.442-8.439-3.625-13.451.679-4.176 2.699-7.613 6.024-10.244C15.983 1.689 18.71.54 21.761.181c.355-.042.707-.12 1.059-.18h2.13zm11.368 16.632c.035-6.81-5.515-12.42-12.319-12.454-6.855-.035-12.387 5.472-12.432 12.38-.045 6.841 5.447 12.402 12.282 12.439 6.873.036 12.437-5.48 12.469-12.363z"/></svg>