<svg xmlns="http://www.w3.org/2000/svg" width="65" height="48" viewBox="0 0 65 48"><path d="M0 44.936c0-.409.204-.817.204-1.43.817-7.149 4.289-12.868 10.213-16.953.613-.409 1.226-.817 1.838-1.021 0 0 .204 0 .204-.204-3.064-3.064-4.698-6.945-4.289-11.643.204-4.085 2.043-7.557 5.106-10.213 5.719-5.106 14.706-4.698 20.017.613 5.923 5.719 6.128 15.523 0 21.243 1.226.817 2.655 1.634 4.085 2.655 1.226-1.226 2.451-2.451 4.085-3.472-2.247-2.86-3.064-5.923-2.247-9.396a10.84 10.84 0 0 1 3.881-5.923c4.085-3.064 9.804-2.655 13.481.817s4.494 9.804.817 14.298l.204.204c3.064 1.838 5.311 4.494 6.536 7.966.613 1.838 1.021 3.677 1.021 5.515 0 1.021-.613 1.838-1.43 2.043-1.226.409-2.655-.409-2.655-1.838 0-.817-.204-1.634-.204-2.247-.613-3.472-2.451-5.923-5.311-7.762l-1.226-.613c-.613-.409-1.021-.409-1.634-.204-2.451.817-4.698.817-7.149-.204h-.613c-1.838.817-3.472 1.838-4.698 3.472.204.204.204.409.409.409 2.655 3.268 4.289 7.149 4.698 11.234.204.817.204 1.838.204 2.655 0 1.226-.409 1.838-1.634 2.247-.817.204-1.634 0-2.247-.817-.409-.409-.409-1.021-.409-1.634-.204-4.085-1.43-7.762-3.881-11.03-2.043-2.655-4.698-4.494-7.762-5.719a1.305 1.305 0 0 0-1.226 0 16.647 16.647 0 0 1-6.332 1.226c-1.838 0-3.472-.409-5.311-1.226-.204-.204-.613-.204-.817 0C9.8 30.435 5.919 34.929 4.285 41.261c-.409 1.226-.409 2.451-.409 3.881v.817c.204.613.204.817 0 1.021-.409.613-1.021 1.021-1.838 1.021-1.021 0-1.838-.817-2.043-1.838v-1.226zm12.255-30.025c0 5.923 4.698 10.621 10.621 10.621s10.621-4.698 10.621-10.621S28.799 4.29 22.876 4.29c-5.719 0-10.621 4.698-10.621 10.621zm37.175 9.191c3.472 0 6.332-2.86 6.332-6.332s-2.86-6.332-6.332-6.332-6.332 2.86-6.332 6.332 2.86 6.332 6.332 6.332z"/></svg>