<svg xmlns="http://www.w3.org/2000/svg" width="48" height="48" viewBox="0 0 48 48"><path d="M0 15.025c0.038-0.187 0.076-0.373 0.113-0.56 0.198-1.011 0.631-1.905 1.343-2.652 0.734-0.77 1.653-1.176 2.7-1.28 0.572-0.057 1.15-0.073 1.726-0.077 1.197-0.009 2.395-0.008 3.592 0.009 0.462 0.007 0.859-0.117 1.242-0.374 4.586-3.070 9.177-6.134 13.767-9.197 0.373-0.249 0.754-0.482 1.175-0.646 2.017-0.787 3.701 0.42 4.25 1.924 0.137 0.376 0.22 0.762 0.228 1.162 0.002 0.102 0.003 0.205 0.003 0.307 0.001 13.494 0.003 26.987 0.004 40.481 0 0.43-0.006 0.859-0.107 1.279-0.314 1.309-1.169 2.092-2.424 2.481-0.157 0.049-0.32 0.079-0.48 0.118h-0.846c-0.763-0.177-1.408-0.594-2.047-1.020-4.542-3.030-9.084-6.062-13.622-9.098-0.316-0.211-0.644-0.314-1.025-0.312-1.53 0.010-3.061 0.012-4.591 0.002-0.363-0.002-0.73-0.036-1.088-0.1-2.253-0.408-3.88-2.364-3.883-4.66-0.005-3.657-0.007-7.313-0.012-10.969-0-0.095-0.013-0.19-0.020-0.285v-6.534zM26.439 3.859c-0.099 0.064-0.174 0.11-0.247 0.159-3.967 2.638-7.933 5.276-11.9 7.913-0.528 0.351-1.053 0.706-1.586 1.050-0.204 0.132-0.299 0.306-0.288 0.545 0.002 0.051 0 0.102 0 0.154 0 4.387 0.001 8.774 0.001 13.161 0 2.536 0.002 5.073-0.005 7.609-0.001 0.287 0.096 0.488 0.342 0.635 0.253 0.151 0.492 0.323 0.738 0.486 4.218 2.804 8.435 5.608 12.653 8.412 0.089 0.059 0.18 0.114 0.292 0.185v-40.309zM8.82 14.028h-0.211c-1.23 0.001-2.459 0.001-3.689 0.002-0.051 0-0.103-0-0.154 0.002-0.65 0.034-1.029 0.369-1.131 1.011-0.024 0.151-0.022 0.306-0.022 0.459-0.001 5.526-0.001 11.053-0.001 16.579 0 0.218-0.010 0.436 0.003 0.653 0.010 0.171 0.031 0.346 0.078 0.51 0.104 0.359 0.345 0.599 0.709 0.687 0.191 0.046 0.391 0.072 0.588 0.073 1.21 0.007 2.42 0.005 3.631 0.005 0.062 0 0.125-0.005 0.198-0.008v-19.973zM48.054 24.218c-0.005 1.958-0.317 3.675-0.915 5.34-0.725 2.017-1.856 3.786-3.3 5.361-1.432 1.563-3.071 2.859-4.951 3.845-0.409 0.214-0.833 0.357-1.304 0.328-0.782-0.048-1.399-0.622-1.496-1.4-0.083-0.667 0.138-1.209 0.671-1.619 0.142-0.109 0.295-0.203 0.444-0.303 0.629-0.419 1.274-0.814 1.883-1.26 1.582-1.16 2.91-2.56 3.901-4.264 0.624-1.073 1.018-2.232 1.284-3.439 0.254-1.151 0.349-2.316 0.263-3.493-0.101-1.374-0.442-2.689-1.028-3.934-1.137-2.417-2.789-4.386-5.075-5.798-0.589-0.364-1.208-0.67-1.847-0.939-0.537-0.226-0.917-0.609-1.092-1.167-0.214-0.682-0.1-1.32 0.331-1.889 0.465-0.613 1.207-0.824 1.963-0.536 0.507 0.193 1.010 0.41 1.488 0.665 2.721 1.454 4.918 3.465 6.476 6.146 0.891 1.534 1.497 3.179 1.906 4.902 0.194 0.819 0.291 1.65 0.35 2.487 0.027 0.383 0.038 0.767 0.048 0.964z"></path><path d="M40.868 23.996c-0.017 1.426-0.228 2.583-0.725 3.679-0.549 1.211-1.383 2.194-2.438 2.989-0.377 0.284-0.779 0.539-1.181 0.788-0.715 0.445-1.467 0.373-2.218 0.111-0.287-0.1-0.497-0.311-0.644-0.578-0.201-0.365-0.273-0.759-0.218-1.169 0.050-0.38 0.243-0.69 0.551-0.912 0.222-0.16 0.461-0.3 0.703-0.429 0.424-0.226 0.839-0.466 1.218-0.764 0.952-0.749 1.545-1.709 1.729-2.914 0.256-1.682-0.415-3.62-1.948-4.686-0.414-0.288-0.866-0.494-1.352-0.627-0.111-0.030-0.221-0.065-0.328-0.106-0.48-0.185-0.728-0.545-0.768-1.051-0.028-0.353 0-0.704 0.085-1.049 0.173-0.707 0.734-1.080 1.462-1 0.471 0.052 0.911 0.186 1.336 0.392 1.2 0.58 2.246 1.351 3.068 2.41 0.839 1.081 1.35 2.302 1.541 3.654 0.070 0.493 0.101 0.992 0.127 1.263zM6.286 28.857c0.912 0.005 1.635 0.733 1.63 1.64-0.005 0.911-0.754 1.663-1.648 1.656-0.897-0.007-1.651-0.768-1.648-1.664 0.003-0.902 0.755-1.639 1.667-1.633z"></path></svg>
