<svg xmlns="http://www.w3.org/2000/svg" width="48" height="48" viewBox="0 0 48 48"><path d="M26.893 0c.334.114.671.222 1.001.345 1.299.485 2.133 1.661 2.183 3.066.003.086.003.171.003.256 0 13.53 0 27.06.003 40.592 0 .57-.054 1.128-.268 1.66-.333.828-.928 1.392-1.733 1.767a3.391 3.391 0 0 1-1.857.289c-.285-.033-.572-.151-.832-.282a10.634 10.634 0 0 1-1.119-.657c-4.603-3.069-9.206-6.142-13.804-9.218a1.334 1.334 0 0 0-.776-.233c-1.59.006-3.179.011-4.768.003-2.401-.012-4.184-1.401-4.785-3.727a3.226 3.226 0 0 1-.102-.794c-.006-5.884.003-11.77-.014-17.655a4.913 4.913 0 0 1 .402-1.962c.771-1.817 2.174-2.799 4.12-2.892 1.684-.081 3.375-.032 5.063-.029.342.002.635-.081.921-.271C15.19 7.141 19.852 4.029 24.516.919a8.94 8.94 0 0 1 .78-.458c.429-.223.877-.381 1.377-.336.072.006.15-.048.225-.074l-.005-.05zm-.495 44.182V3.927c-.057.035-.098.057-.135.083-4.547 3.024-9.091 6.05-13.641 9.07-.177.119-.232.256-.232.459.003 7.014.003 14.028-.001 21.042 0 .218.076.347.253.465 4.527 3.006 9.051 6.017 13.577 9.026.054.036.109.068.178.111zM8.805 14.098c-.048-.005-.085-.01-.124-.01-1.287 0-2.574-.006-3.863.003-.753.006-1.179.431-1.218 1.182-.003.066-.003.132-.003.197v17.183c0 .08-.002.157.006.237.049.6.333.968.855 1.087.151.035.312.05.468.051 1.229.005 2.457.003 3.684.003h.194V14.1zm39.172 10.245c-.071 4.01-1.42 7.441-4.032 10.379-1.483 1.669-3.201 3.048-5.187 4.08-.496.258-1.022.392-1.578.253-1.167-.291-1.588-1.843-.745-2.745.154-.165.346-.302.538-.425 1.029-.657 2.067-1.297 2.988-2.11 1.727-1.526 3.11-3.297 3.831-5.509 1.315-4.032.727-7.773-1.773-11.212-1.431-1.968-3.268-3.422-5.508-4.347-1.282-.531-1.512-2.055-.786-3.027.456-.612 1.208-.855 2.013-.556.666.247 1.317.561 1.932.916 4.41 2.549 7.005 6.392 8.012 11.346.108.533.153 1.079.206 1.62.046.468.063.941.088 1.339z"/><path d="M40.785 24.155c-.018 3.189-1.386 5.47-3.938 7.086-.453.286-.912.57-1.468.552-.338-.012-.687-.043-1.005-.146-.569-.183-.874-.627-.984-1.201-.115-.603.042-1.128.53-1.515.228-.181.495-.321.756-.454.788-.402 1.492-.901 2.039-1.608 1.873-2.426.735-6.516-2.484-7.347-.753-.195-1.072-.614-1.063-1.392.003-.254.03-.513.085-.761.153-.688.686-1.107 1.388-1.045.38.033.774.111 1.119.264 1.59.703 2.917 1.734 3.84 3.235.646 1.053 1.001 2.205 1.122 3.429.035.346.048.694.063.904zM7.892 30.526a1.656 1.656 0 0 1-1.637 1.651 1.668 1.668 0 0 1-1.651-1.66 1.65 1.65 0 0 1 1.653-1.632c.92.007 1.636.727 1.636 1.642z"/></svg>