<svg xmlns="http://www.w3.org/2000/svg" width="48" height="48" viewBox="0 0 48 48"><path d="M.106 42.671c.206-.415.389-.845.623-1.244 7.23-12.339 14.467-24.673 21.694-37.013.313-.534.709-.915 1.312-1.067h.537c.246.115.517.197.731.355.192.142.353.35.476.559 4.711 8.021 9.416 16.046 14.122 24.07l8.023 13.683c.483.824.312 1.799-.426 2.316-.208.146-.467.218-.703.325H1.511c-.044-.016-.087-.034-.131-.047a1.664 1.664 0 0 1-1.13-.972c-.06-.137-.096-.284-.143-.427v-.537zm43.175-1.432L24.002 8.364 4.723 41.239h38.558z"/><path d="M26.676 24.929v5.12c-.001.97-.537 1.508-1.504 1.511-.874.003-1.748.003-2.622 0-.899-.004-1.47-.572-1.47-1.474 0-3.489.004-6.977.01-10.466.001-.808.579-1.393 1.389-1.401.936-.009 1.872-.009 2.807.001.772.008 1.338.553 1.394 1.322.006.089.006.179.006.268v5.12h-.01zm-1.738 4.899v-9.874h-2.104v9.874h2.104zm1.74 5.423c.005 1.525-1.255 2.788-2.783 2.791-1.537.003-2.799-1.242-2.806-2.768a2.787 2.787 0 0 1 2.792-2.818 2.792 2.792 0 0 1 2.797 2.795zm-2.801-1.087c-.605.003-1.087.492-1.079 1.094s.501 1.086 1.1 1.077a1.098 1.098 0 0 0 1.072-1.108 1.088 1.088 0 0 0-1.092-1.063z"/></svg>