<svg xmlns="http://www.w3.org/2000/svg" width="48" height="48" viewBox="0 0 48 48"><path d="M48 21.021v5.957c-.017.339-.029.679-.053 1.017-.096 1.369-.194 2.738-.293 4.107a14.972 14.972 0 0 1-.77 3.713c-.599 1.775-1.677 3.147-3.328 4.059-1.104.61-2.302.877-3.544.951-2.027.121-4.054.239-6.083.307-2.422.082-4.845.11-7.268.162-.068.001-.136.014-.204.022h-4.018c-.062-.007-.125-.02-.187-.021-2.977-.063-5.955-.111-8.931-.193-1.741-.048-3.484-.089-5.216-.305-.853-.106-1.706-.213-2.525-.49-1.738-.586-3.109-1.621-3.95-3.284a11.317 11.317 0 0 1-1.166-3.89 75.608 75.608 0 0 1-.415-5.399c-.076-2.081-.041-4.166-.047-6.249-.001-.502.015-1.004.048-1.505.09-1.364.191-2.727.29-4.091a15 15 0 0 1 .797-3.796c.656-1.909 1.875-3.31 3.696-4.185 1.048-.504 2.171-.702 3.316-.766 2.201-.124 4.402-.237 6.605-.311 2.105-.071 4.212-.087 6.318-.129.074-.001.148-.014.223-.021h5.403c.074.007.148.019.223.021 1.12.018 2.24.016 3.359.054 2.849.095 5.698.2 8.547.317.922.038 1.847.093 2.748.305 2.198.518 3.89 1.713 4.883 3.78.71 1.477 1.064 3.055 1.19 4.683.107 1.375.199 2.751.295 4.126.024.35.037.702.054 1.052zM24.291 9.592c-2.806.047-5.334.07-7.861.136-2.238.059-4.476.152-6.712.256-.846.039-1.698.095-2.529.244-1.468.263-2.561 1.059-3.135 2.479-.391.968-.657 1.969-.74 3.011-.121 1.541-.275 3.082-.329 4.626-.064 1.822-.039 3.647-.048 5.471-.002.479-.004.959.025 1.437.09 1.497.19 2.994.294 4.49.076 1.087.283 2.148.655 3.174.276.759.636 1.457 1.311 1.951a4.31 4.31 0 0 0 1.47.71c1.066.276 2.157.387 3.252.442 1.729.087 3.459.162 5.19.205 4.443.112 8.887.225 13.331.11 3.202-.083 6.403-.196 9.603-.319.892-.034 1.79-.096 2.669-.243 1.541-.257 2.668-1.091 3.245-2.586.363-.941.622-1.907.702-2.915.119-1.518.267-3.036.328-4.557.063-1.579.042-3.162.049-4.743.003-.756.013-1.514-.029-2.268a249.593 249.593 0 0 0-.327-4.817 10.655 10.655 0 0 0-.788-3.246c-.438-1.069-1.229-1.763-2.279-2.189-.723-.293-1.491-.357-2.256-.398-1.942-.106-3.884-.22-5.828-.274-3.179-.088-6.359-.131-9.262-.187z"/><path d="M17.873 23.497c0-2.089-.001-4.178.001-6.267.001-.76.481-1.353 1.212-1.491.352-.067.683.008 1.002.174 2.742 1.434 5.487 2.865 8.231 4.297 1.272.664 2.544 1.329 3.818 1.99.546.284.851.727.849 1.342-.002.607-.305 1.047-.845 1.327L20.09 31.113c-.8.414-1.7.148-2.056-.63-.1-.218-.15-.477-.151-.718-.011-2.089-.007-4.178-.007-6.267h-.002zm2.943 3.934l7.525-3.899-7.525-3.925v7.825z"/></svg>