<svg xmlns="http://www.w3.org/2000/svg" width="48" height="48" viewBox="0 0 48 48"><path d="M20 1.999q3.657 0 6.991 1.43t5.742 3.835 3.836 5.742 1.429 6.991q0 3.141-1.023 6.015t-2.914 5.218L45.42 42.574q.578.578.578 1.422 0 .859-.57 1.429t-1.429.57q-.845 0-1.422-.578L31.233 34.058q-2.345 1.89-5.218 2.915T20 37.996q-3.657 0-6.992-1.429t-5.742-3.836-3.835-5.742-1.429-6.991 1.429-6.991 3.835-5.742 5.742-3.835T20 2.001zM20 6q-2.844 0-5.438 1.11t-4.469 2.985-2.985 4.468T5.998 20t1.11 5.438 2.985 4.468 4.469 2.985T20 34.001t5.437-1.11 4.468-2.985 2.985-4.468T34 20t-1.11-5.437-2.985-4.469-4.468-2.985-5.438-1.11zm-6 12h12q.828 0 1.415.587t.587 1.414-.586 1.415-1.415.587h-12q-.828 0-1.414-.587T12 20.001t.587-1.414T14.001 18z"/></svg>